<?xml version="1.0" standalone="no"?>
<!DOCTYPE svg PUBLIC "-//W3C//DTD SVG 20010904//EN"
 "http://www.w3.org/TR/2001/REC-SVG-20010904/DTD/svg10.dtd">
<svg version="1.0" xmlns="http://www.w3.org/2000/svg"
 width="900.000000pt" height="900.000000pt" viewBox="0 0 900.000000 900.000000"
 preserveAspectRatio="xMidYMid meet">
<metadata>
Created by potrace 1.10, written by Peter Selinger 2001-2011
</metadata>
<g transform="translate(0.000000,900.000000) scale(0.100000,-0.100000)"
fill="#000000" stroke="none">
<path d="M4130 8910 c-8 -5 -58 -10 -110 -10 -52 0 -124 -5 -160 -11 -36 -6
-96 -14 -135 -19 -38 -4 -95 -13 -125 -19 -30 -7 -89 -19 -130 -28 -87 -18
-166 -38 -231 -58 -26 -8 -54 -15 -63 -15 -8 0 -30 -6 -48 -14 -18 -7 -60 -21
-93 -31 -33 -9 -72 -23 -87 -31 -14 -8 -34 -14 -43 -14 -9 0 -31 -6 -48 -14
-18 -7 -57 -23 -87 -35 -120 -48 -144 -59 -330 -151 -91 -45 -172 -85 -180
-90 -233 -133 -485 -304 -634 -430 -246 -208 -452 -415 -642 -641 -16 -20
-107 -140 -192 -254 -16 -22 -101 -153 -128 -198 -16 -27 -37 -61 -46 -75 -37
-59 -71 -124 -154 -292 -92 -187 -103 -210 -129 -280 -9 -25 -21 -53 -26 -62
-5 -10 -18 -46 -30 -80 -11 -35 -25 -72 -29 -83 -10 -21 -23 -62 -60 -185 -12
-41 -29 -95 -36 -119 -8 -25 -14 -53 -14 -64 0 -11 -7 -40 -15 -66 -30 -97
-68 -312 -90 -511 -14 -119 -16 -222 -12 -570 2 -260 9 -454 16 -500 7 -41 17
-102 22 -135 5 -33 14 -87 19 -120 5 -33 14 -76 19 -95 5 -19 17 -66 26 -105
32 -144 112 -414 127 -429 4 -6 8 -16 8 -23 0 -13 76 -217 104 -278 41 -89
190 -387 216 -430 16 -27 34 -59 40 -70 6 -11 19 -33 30 -50 11 -16 23 -36 26
-43 22 -45 193 -289 248 -353 17 -20 42 -51 56 -70 121 -163 533 -573 675
-671 5 -4 28 -22 50 -40 220 -184 657 -439 980 -573 50 -20 99 -41 110 -46 27
-11 105 -39 130 -46 11 -2 34 -11 50 -18 72 -31 383 -116 545 -149 317 -64
459 -76 885 -76 209 1 412 5 450 11 39 5 95 12 125 15 30 3 78 9 105 15 28 5
81 14 119 19 38 5 83 14 100 19 17 5 54 15 81 21 157 35 410 106 460 129 11 5
48 19 83 30 34 12 70 25 80 30 9 5 37 17 62 26 92 34 417 192 505 245 28 16
59 34 70 39 11 5 37 21 58 35 21 14 40 26 42 26 17 0 368 252 445 319 14 12
41 36 60 52 88 75 171 153 274 256 98 99 136 140 224 241 13 15 33 38 46 52
32 36 236 308 236 316 0 3 12 23 28 43 15 20 33 45 39 56 11 18 132 219 153
255 15 25 172 343 185 375 7 17 18 41 23 55 6 14 21 50 32 80 12 30 28 70 36
88 8 18 14 41 14 50 0 10 4 22 9 28 4 5 18 43 31 84 12 41 27 86 33 100 5 14
14 41 18 60 5 19 15 62 23 95 8 33 20 80 26 105 6 25 15 61 21 81 13 50 39
200 50 284 5 39 13 95 18 125 27 157 22 958 -8 1120 -5 30 -17 94 -25 141 -9
48 -16 97 -16 109 0 13 -6 46 -14 74 -8 28 -19 71 -26 96 -27 110 -41 167 -49
200 -4 19 -13 46 -18 60 -6 14 -21 59 -33 100 -13 41 -27 79 -31 84 -5 6 -9
18 -9 28 0 17 -18 65 -46 121 -8 16 -14 33 -14 39 0 9 -9 33 -45 113 -16 37
-173 354 -185 375 -5 8 -39 67 -76 130 -64 109 -209 329 -223 340 -4 3 -51 64
-106 135 -120 157 -491 536 -637 651 -55 44 -110 87 -121 97 -11 9 -23 17 -26
17 -3 0 -22 14 -41 31 -19 17 -94 70 -166 118 -172 113 -167 110 -184 118 -8
4 -46 25 -85 48 -38 23 -142 76 -230 119 -151 75 -188 92 -260 122 -16 7 -46
20 -67 28 -20 9 -42 16 -50 16 -8 0 -18 4 -24 9 -5 5 -25 14 -44 19 -19 6 -66
22 -105 35 -38 14 -95 32 -125 41 -30 9 -77 23 -103 31 -26 8 -55 15 -63 15
-8 0 -36 6 -62 14 -78 23 -144 38 -197 47 -27 4 -75 12 -105 18 -229 40 -369
51 -745 57 -162 2 -266 0 -275 -6z m490 -879 c218 -14 511 -61 658 -108 23 -7
49 -13 58 -13 16 0 272 -84 319 -105 17 -7 50 -21 75 -31 199 -77 471 -224
490 -264 4 -8 15 -33 25 -55 44 -101 76 -145 105 -145 9 0 25 -7 36 -15 10 -8
29 -15 40 -15 12 0 27 -7 34 -15 7 -8 23 -15 36 -15 12 0 30 -7 39 -16 9 -9
33 -18 53 -19 50 -3 98 -26 150 -70 46 -40 52 -63 22 -90 -28 -25 -25 -55 11
-125 38 -72 87 -122 145 -151 24 -11 46 -25 50 -30 3 -5 12 -9 20 -9 7 0 42
-13 76 -29 35 -16 75 -32 91 -35 15 -4 27 -11 27 -17 0 -6 15 -25 33 -43 30
-29 70 -85 130 -181 21 -35 23 -43 11 -60 -9 -14 -14 -60 -15 -143 -1 -129 7
-157 53 -190 10 -7 18 -20 18 -28 0 -12 4 -13 21 -4 22 13 69 6 69 -10 0 -5
-8 -14 -17 -19 -16 -9 -16 -10 4 -11 12 0 25 5 28 10 8 13 62 13 70 0 4 -6 1
-17 -5 -25 -10 -12 -9 -15 7 -15 32 0 45 -21 26 -42 -14 -16 -15 -18 0 -18 17
0 50 -42 60 -75 7 -25 35 -104 46 -130 23 -56 52 -153 76 -250 9 -33 22 -87
30 -120 8 -33 20 -89 25 -125 6 -36 14 -78 19 -95 5 -16 12 -61 15 -100 7 -77
12 -108 22 -142 4 -15 2 -23 -5 -23 -6 0 -71 60 -144 133 -72 74 -159 154
-192 179 -69 52 -184 131 -205 141 -8 4 -28 16 -45 27 -16 10 -52 31 -80 45
-27 15 -68 36 -90 48 -110 61 -341 150 -495 191 -36 10 -88 24 -116 32 -28 8
-64 14 -80 14 -16 0 -45 5 -64 10 -19 6 -116 18 -215 26 -146 12 -212 13 -350
4 -179 -12 -330 -30 -455 -56 -103 -21 -258 -65 -318 -90 -18 -8 -39 -14 -47
-14 -7 0 -26 -6 -42 -14 -15 -7 -44 -20 -63 -28 -164 -70 -315 -156 -439 -250
-36 -27 -70 -47 -77 -46 -24 6 -224 202 -224 220 0 10 -7 18 -17 18 -20 0
-103 73 -103 90 0 5 11 10 24 10 13 0 29 7 36 15 7 8 22 15 33 15 26 0 67 38
67 62 0 10 4 18 9 18 10 0 81 68 81 78 1 4 21 23 45 42 25 19 45 41 45 47 0 7
6 13 13 13 8 0 22 9 32 20 21 23 50 26 70 8 54 -49 92 -68 132 -67 l38 1 -35
12 c-49 17 -101 43 -125 61 -17 14 -18 17 -5 25 8 5 21 10 29 10 16 0 75 -18
108 -33 12 -5 47 -7 78 -4 47 5 62 12 98 46 54 51 93 81 105 81 5 0 15 6 21
14 9 11 50 13 187 13 142 0 177 2 184 14 11 18 161 20 167 3 2 -6 -6 -14 -19
-18 -19 -5 -20 -8 -9 -15 10 -6 25 -5 43 5 20 10 43 13 78 8 41 -5 53 -3 76
15 17 13 41 21 65 21 62 0 114 61 129 150 11 61 3 92 -32 130 -26 29 -29 39
-25 79 2 26 14 65 26 88 11 23 21 47 21 53 0 21 -54 126 -107 208 -52 80 -247
288 -323 345 -237 176 -380 259 -605 352 -49 20 -99 42 -110 47 -11 6 -33 15
-50 19 -28 7 -50 14 -135 44 -35 13 -111 35 -205 61 -395 107 -946 133 -1315
63 -95 -18 -157 -22 -164 -10 -4 6 1 14 11 18 10 3 60 26 110 49 51 24 98 44
104 44 6 0 23 6 37 14 15 8 47 22 72 31 25 9 60 23 78 31 18 8 39 14 47 14 8
0 29 6 47 14 18 8 60 22 93 31 33 9 83 22 110 30 63 18 135 34 203 45 29 5 74
13 100 19 90 19 278 41 367 42 50 1 100 4 113 7 25 8 97 6 312 -7z m-860 -402
c36 -5 97 -13 135 -18 110 -13 316 -55 380 -77 23 -8 51 -14 63 -14 13 0 33
-5 45 -12 12 -6 35 -15 52 -19 40 -10 158 -51 298 -105 52 -21 291 -138 332
-164 17 -10 48 -28 70 -40 22 -12 56 -35 76 -51 20 -16 41 -29 47 -29 6 0 12
-4 14 -8 2 -4 21 -21 43 -37 56 -42 82 -64 139 -115 64 -58 206 -221 206 -236
0 -6 7 -17 15 -24 28 -23 4 -30 -99 -30 -101 0 -104 1 -137 30 -19 17 -45 33
-59 36 -14 3 -33 9 -42 15 -10 5 -26 9 -36 9 -11 0 -31 11 -46 25 -32 30 -50
32 -41 6 6 -19 4 -21 -118 -74 -21 -9 -48 -17 -61 -17 -13 0 -26 -7 -30 -15
-3 -8 -14 -15 -24 -15 -10 0 -27 -7 -38 -15 -10 -8 -26 -15 -35 -15 -22 0 -61
-44 -54 -61 3 -8 0 -22 -7 -32 -12 -15 -17 -16 -63 -2 -27 9 -54 20 -59 25 -6
6 -24 10 -40 10 -17 1 -42 7 -56 15 -15 9 -53 14 -96 15 -73 0 -100 11 -106
44 -1 11 -9 21 -15 24 -16 5 -18 -44 -3 -53 6 -3 10 -19 10 -35 0 -66 -136
-97 -196 -45 -16 14 -53 42 -82 61 -48 32 -59 36 -126 36 -61 1 -81 -3 -112
-23 -55 -33 -96 -76 -116 -122 -24 -52 -23 -57 11 -104 40 -56 101 -86 174
-85 57 0 85 -13 50 -24 -10 -3 -30 -12 -45 -20 -16 -8 -28 -12 -28 -8 0 21
-29 -23 -32 -49 -3 -30 -24 -49 -83 -76 -37 -17 -112 -110 -149 -186 -21 -41
-42 -75 -48 -75 -11 0 -98 89 -98 101 0 5 5 9 10 9 6 0 10 26 10 58 0 50 -5
66 -31 103 -42 59 -111 122 -184 167 -57 35 -64 37 -146 37 -83 0 -88 1 -128
34 -29 24 -40 39 -36 52 4 13 -1 19 -24 24 -29 6 -42 16 -111 79 -19 17 -107
97 -195 176 -87 80 -171 156 -186 170 -28 27 -156 143 -228 206 -76 67 -141
134 -141 144 0 12 220 176 325 244 77 49 85 52 185 79 109 30 146 38 213 47
38 5 73 12 78 15 5 4 48 11 97 16 48 5 114 13 147 18 87 12 489 12 565 0z
m1490 -949 c12 -6 18 -21 18 -45 0 -35 -1 -35 -42 -35 -32 0 -53 -8 -82 -30
-45 -34 -56 -36 -89 -14 -34 23 -31 37 15 69 32 22 46 26 75 21 31 -6 39 -4
56 18 23 29 24 30 49 16z m88 -68 c3 -19 -1 -23 -15 -20 -10 2 -19 14 -21 26
-3 19 1 23 15 20 10 -2 19 -14 21 -26z m90 -12 c13 -23 24 -30 49 -30 17 0 33
-6 36 -12 3 -10 9 -9 23 3 20 17 134 35 134 22 -1 -19 -30 -43 -59 -49 -17 -4
-34 -11 -37 -15 -7 -13 -52 -11 -60 2 -3 6 -16 8 -28 5 -24 -6 -96 38 -96 60
0 7 -3 19 -6 28 -11 29 26 17 44 -14z m-428 -15 c0 -8 -4 -15 -10 -15 -5 0
-10 7 -10 15 0 8 5 15 10 15 6 0 10 -7 10 -15z m-3372 -86 c28 -28 52 -55 52
-60 0 -4 11 -14 24 -21 22 -12 108 -86 235 -203 30 -27 62 -57 71 -65 9 -8 41
-37 71 -65 30 -27 77 -70 104 -94 28 -24 75 -67 105 -95 30 -29 125 -114 210
-191 85 -77 157 -142 160 -146 3 -3 57 -52 120 -109 140 -126 297 -269 405
-370 44 -41 107 -100 140 -130 55 -51 59 -58 60 -100 0 -36 -4 -46 -23 -56
-13 -6 -29 -17 -35 -23 -6 -6 -19 -11 -29 -11 -10 0 -37 -13 -60 -30 -22 -16
-45 -30 -49 -30 -4 0 -23 14 -41 30 -18 17 -39 30 -48 30 -9 0 -26 7 -39 16
-17 12 -49 17 -129 18 -100 1 -110 -1 -147 -25 -66 -44 -89 -73 -140 -176 -14
-29 -30 -53 -35 -53 -6 0 -19 9 -30 20 -11 11 -31 20 -44 20 -13 0 -29 7 -36
15 -7 8 -28 15 -47 15 -21 0 -36 6 -39 15 -4 8 -12 15 -19 15 -7 0 -18 7 -26
16 -13 16 -12 20 16 87 6 13 2 17 -18 17 -33 0 -62 -42 -47 -69 18 -34 12 -51
-17 -52 -67 -1 -66 -16 1 -23 38 -4 81 -13 97 -21 15 -8 43 -15 62 -15 19 0
40 -7 47 -15 7 -8 17 -15 23 -15 6 0 40 -30 76 -67 68 -70 123 -113 144 -113
7 0 23 -6 37 -13 14 -8 70 -17 123 -20 121 -8 150 -22 178 -86 14 -34 34 -58
62 -78 23 -15 45 -32 49 -38 10 -13 0 -64 -18 -92 -20 -31 -19 -201 1 -227 21
-27 19 -92 -1 -104 -12 -7 -16 -23 -16 -60 1 -28 -2 -62 -7 -74 -17 -46 -23
62 -7 137 13 61 13 71 1 85 -11 12 -16 47 -17 123 -2 59 -6 107 -9 107 -4 0
-20 -7 -35 -15 -18 -10 -42 -13 -64 -10 -20 3 -47 2 -60 -3 -24 -10 -24 -10
10 -16 19 -3 49 -7 65 -8 26 -3 30 -6 28 -32 -4 -54 -7 -56 -91 -56 -59 0 -83
4 -92 15 -8 10 -30 15 -61 15 -38 0 -49 4 -49 16 0 10 -8 15 -22 14 -58 -5
-88 0 -88 15 0 13 -11 15 -57 13 -61 -3 -76 -22 -19 -24 71 -2 78 -34 7 -34
-31 0 -53 5 -61 15 -7 8 -27 15 -45 15 -18 0 -38 7 -45 15 -7 8 -27 15 -45 15
-19 0 -46 6 -62 14 -67 32 -100 45 -123 48 -36 4 -31 22 8 26 24 2 32 -1 32
-12 0 -12 11 -16 45 -16 31 0 47 -5 51 -15 4 -9 17 -14 34 -13 15 1 39 -6 53
-15 31 -20 101 -24 95 -4 -3 6 -22 13 -44 15 -21 2 -43 10 -47 18 -5 9 -16 12
-26 9 -10 -3 -29 3 -44 15 -14 11 -40 20 -60 20 -19 0 -40 7 -47 15 -7 8 -28
15 -47 15 -21 0 -36 6 -39 15 -8 19 -78 21 -72 3 3 -7 17 -15 33 -18 16 -3 30
-11 33 -17 6 -21 -53 -15 -73 7 -11 12 -28 19 -43 18 -14 -2 -27 3 -29 9 -3 9
7 12 33 10 30 -1 39 2 42 16 3 12 -3 17 -21 17 -14 0 -38 7 -53 15 -16 8 -37
15 -47 15 -10 0 -20 7 -23 15 -4 8 -18 15 -34 15 -15 0 -33 7 -40 15 -7 8 -20
15 -30 15 -10 0 -23 7 -30 15 -7 8 -18 15 -25 15 -7 0 -16 7 -19 16 -4 10 -13
13 -26 9 -11 -4 -20 -2 -20 4 0 6 -14 18 -30 26 l-31 16 23 19 23 18 -27 11
c-16 6 -28 15 -28 20 0 5 -8 11 -17 15 -28 9 -52 27 -109 84 -65 62 -98 70
-78 18 3 -9 13 -16 21 -16 8 0 26 -13 40 -30 13 -16 32 -30 41 -30 10 0 22
-11 29 -25 6 -14 7 -25 2 -25 -5 0 -9 5 -9 10 0 6 -9 10 -20 10 -11 0 -23 7
-26 15 -4 8 -11 15 -18 15 -6 0 -26 14 -44 30 -18 17 -38 30 -43 30 -5 0 -14
10 -18 23 -7 16 -5 25 7 35 9 7 17 22 17 35 0 17 7 23 30 25 17 2 34 10 38 18
9 16 37 19 37 5 0 -6 12 -16 28 -23 34 -17 37 -52 4 -56 -13 -2 -25 3 -28 12
-6 16 -44 23 -44 8 0 -5 13 -18 30 -30 16 -12 37 -36 45 -52 9 -18 23 -30 35
-30 11 0 20 -7 20 -15 0 -8 9 -15 20 -15 11 0 20 -4 20 -10 0 -5 7 -10 16 -10
25 0 11 23 -23 40 -28 14 -31 19 -32 66 0 39 5 56 19 69 28 26 97 29 188 11
110 -22 272 -104 272 -138 0 -4 13 -27 30 -49 21 -30 28 -48 24 -65 -5 -19 -1
-26 21 -34 14 -5 31 -10 36 -10 14 0 11 26 -6 40 -8 7 -15 19 -15 27 0 7 -13
27 -30 43 -43 42 -42 97 2 125 17 11 33 26 36 33 7 21 -32 13 -57 -13 -13 -14
-27 -25 -31 -25 -17 0 -60 20 -102 47 -24 15 -52 30 -63 33 -14 4 -21 17 -25
43 -6 47 -24 49 -28 2 -3 -35 -18 -45 -38 -25 -6 6 -42 12 -80 15 -38 3 -88 7
-111 11 -38 5 -43 3 -43 -15 0 -26 -15 -34 -30 -16 -7 8 -18 15 -26 15 -7 0
-18 9 -24 20 -14 26 -28 25 -57 -2 -21 -20 -24 -20 -41 -4 -17 15 -20 15 -32
1 -7 -8 -22 -15 -33 -15 -11 0 -25 -7 -31 -16 -13 -17 -46 -10 -46 10 0 6 -13
20 -30 29 -31 19 -43 54 -15 43 10 -3 32 11 62 39 37 36 49 43 64 35 12 -7 20
-7 24 1 4 6 17 8 29 6 11 -3 42 -2 68 2 25 4 54 4 62 -1 10 -6 16 -5 16 1 0 6
10 19 21 30 l22 20 -27 12 c-30 14 -33 24 -10 33 20 8 34 -1 34 -20 0 -8 6
-14 14 -14 8 0 17 -7 20 -16 3 -8 11 -12 17 -8 9 5 7 11 -4 19 -10 7 -17 17
-17 23 0 6 -11 22 -24 35 l-24 24 -19 -22 c-10 -12 -26 -24 -35 -28 -10 -4
-18 -13 -18 -22 0 -22 -31 -19 -37 4 -6 23 -43 36 -43 16 0 -8 7 -18 16 -23 9
-5 14 -14 11 -19 -8 -12 -86 -12 -105 1 -13 7 -41 -17 -42 -36 0 -5 -7 -8 -15
-8 -9 0 -18 -7 -21 -15 -4 -8 -12 -15 -18 -15 -14 0 -76 67 -76 81 0 5 -7 9
-15 9 -8 0 -15 9 -15 20 0 11 5 20 10 20 6 0 10 5 10 11 0 11 -9 10 -70 -6
-23 -6 -23 -5 -8 8 15 12 16 18 5 40 -6 15 -18 27 -24 27 -7 0 -13 7 -13 15 0
8 -7 15 -15 15 -17 0 -20 26 -4 35 6 4 8 13 5 21 -3 8 -1 23 6 33 15 24 -28
87 -48 70 -15 -12 -34 -4 -34 15 0 8 -7 19 -15 26 -19 16 -19 47 0 66 11 12
12 20 5 35 -12 22 -5 39 16 39 12 0 13 10 8 49 -5 36 -2 55 10 73 9 14 14 32
11 40 -3 8 1 28 10 44 8 16 15 35 15 43 0 9 7 11 24 7 19 -5 28 1 47 29 13 19
32 35 41 35 25 0 27 12 8 42 -19 31 -30 27 -30 -11 0 -32 -45 -59 -55 -33 -7
19 2 48 31 94 13 21 24 50 24 66 0 27 26 88 90 214 17 32 30 63 30 68 0 6 8
23 19 38 15 22 110 180 156 260 30 53 89 122 103 122 10 0 41 -23 70 -51z
m2979 18 c25 -2 97 -73 88 -87 -6 -10 -72 15 -97 37 -13 12 -30 14 -69 10 -55
-7 -82 -26 -99 -72 -8 -21 -16 -25 -49 -25 -50 0 -71 8 -71 27 0 11 7 14 25
11 20 -4 35 4 66 34 51 49 114 79 154 72 17 -2 40 -6 52 -7z m158 -53 c9 -4
21 -18 27 -33 l10 -26 11 23 c16 34 39 28 35 -10 -3 -30 -6 -32 -44 -34 -23
-1 -46 1 -51 5 -17 11 -31 43 -26 62 6 20 12 23 38 13z m798 -80 c-4 -58 -18
-60 -21 -3 -1 37 1 49 10 46 8 -2 12 -19 11 -43z m-270 -25 c6 -65 1 -93 -14
-83 -12 7 -12 144 0 144 4 0 11 -28 14 -61z m375 49 c7 -7 12 -31 12 -55 0
-41 -1 -43 -30 -43 -34 0 -41 23 -13 39 17 9 17 10 0 28 -13 15 -14 22 -5 31
15 15 21 15 36 0z m-468 -24 c0 -12 -4 -13 -21 -3 -17 9 -19 13 -8 19 16 11
29 4 29 -16z m270 -24 c0 -16 -4 -30 -10 -30 -5 0 -10 14 -10 30 0 17 5 30 10
30 6 0 10 -13 10 -30z m-80 -22 c0 -4 -6 -8 -13 -8 -14 0 -39 35 -30 44 7 7
43 -23 43 -36z m-324 -3 c4 -8 3 -26 0 -40 -5 -18 -13 -25 -31 -25 -21 0 -25
5 -25 30 0 39 44 67 56 35z m138 -10 c8 -21 -11 -65 -28 -65 -21 0 -46 11 -46
20 0 11 48 60 58 60 6 0 12 -7 16 -15z m-994 -25 c0 -23 -5 -31 -25 -36 -13
-3 -27 -14 -30 -25 -10 -29 -55 -59 -89 -59 l-31 0 25 20 c113 89 140 112 140
121 0 5 2 9 5 9 3 0 5 -13 5 -30z m740 -21 c0 -5 -7 -9 -15 -9 -9 0 -15 9 -15
21 0 18 2 19 15 9 8 -7 15 -16 15 -21z m761 -2 c-1 -12 -15 -9 -19 4 -3 6 1
10 8 8 6 -3 11 -8 11 -12z m-2467 -9 c53 -16 100 -46 158 -102 72 -70 81 -127
10 -68 -20 18 -75 55 -122 83 -86 52 -100 64 -100 87 0 15 3 15 54 0z m1467
-66 c-13 -4 -15 -32 -2 -32 14 0 21 -43 9 -57 -6 -7 -14 -13 -18 -13 -12 0
-23 91 -12 102 6 6 8 16 5 23 -2 8 1 24 9 37 13 22 13 22 16 -17 2 -22 -1 -41
-7 -43z m681 71 c-26 -3 -35 -11 -47 -39 -14 -33 -28 -43 -39 -25 -3 4 3 16
14 26 11 10 20 24 20 32 0 9 13 13 43 11 37 -1 38 -2 9 -5z m-773 -99 c-25
-30 -40 -4 -20 34 5 9 13 26 17 37 7 16 9 12 12 -18 2 -21 -2 -45 -9 -53z
m1046 75 c11 -16 -1 -22 -30 -15 -14 4 -23 11 -20 16 8 13 42 13 50 -1z m71
-38 c-8 -8 -22 -10 -35 -6 -26 8 -28 25 -2 25 11 0 23 5 27 11 4 8 9 7 15 -2
5 -9 3 -19 -5 -28z m-651 13 c25 -10 -1 -22 -33 -16 -24 5 -25 6 -7 13 11 4
21 8 22 8 1 1 9 -2 18 -5z m-171 -39 c-6 -16 -34 -21 -34 -7 0 13 11 22 26 22
8 0 11 -6 8 -15z m321 6 c3 -5 -4 -12 -15 -16 -26 -8 -100 4 -100 16 0 12 107
12 115 0z m-428 -71 c-21 -24 -35 -34 -42 -27 -7 6 -6 11 3 14 6 3 12 15 12
27 0 32 18 47 41 33 16 -10 15 -14 -14 -47z m-386 7 c-13 -13 -26 -3 -16 12 3
6 11 8 17 5 6 -4 6 -10 -1 -17z m-91 -12 c0 -8 -7 -15 -15 -15 -8 0 -15 7 -15
15 0 8 7 15 15 15 8 0 15 -7 15 -15z m-93 -52 c-7 -7 -37 22 -37 35 0 6 6 12
13 15 12 4 34 -40 24 -50z m411 12 c19 -17 38 -25 64 -25 26 0 38 -4 38 -14 0
-18 -95 -15 -112 2 -7 7 -20 12 -29 12 -9 0 -22 7 -29 15 -18 22 -87 19 -117
-5 -30 -23 -43 -25 -43 -6 0 7 12 22 28 32 56 39 152 33 200 -11z m-798 -44
c0 -10 -15 -31 -33 -47 -38 -33 -77 -96 -77 -124 0 -32 -11 -50 -31 -50 -25 0
-24 10 6 66 14 26 25 52 25 58 0 14 88 116 101 116 5 0 9 -8 9 -19z m570 -15
c0 -18 -27 -29 -36 -14 -4 5 0 14 7 19 20 13 29 11 29 -5z m-320 -6 c0 -5 -7
-13 -15 -17 -9 -5 -16 -29 -19 -62 -2 -29 -8 -56 -13 -60 -5 -3 -12 -14 -16
-24 -4 -10 -11 -15 -17 -12 -15 9 -12 38 5 61 8 10 15 32 15 48 0 15 10 39 23
52 23 25 37 30 37 14z m174 1 c3 -5 -6 -12 -20 -15 -14 -4 -38 -21 -54 -37
-37 -41 -49 -20 -14 26 19 25 34 35 55 35 15 0 30 -4 33 -9z m-304 -102 c0
-26 -39 -69 -62 -69 -24 0 -23 21 1 27 11 3 24 18 30 34 12 34 31 39 31 8z
m150 -71 c0 -18 3 -43 6 -55 4 -16 1 -25 -11 -29 -28 -11 -39 11 -20 40 16 25
16 28 1 45 -17 18 -12 31 11 31 8 0 13 -12 13 -32z m78 -13 c10 -21 9 -30 -4
-50 -18 -28 -34 -33 -34 -11 0 8 7 17 17 20 15 6 14 8 -2 20 -11 8 -16 20 -12
30 9 23 22 20 35 -9z m-268 -30 c0 -8 -9 -15 -20 -15 -11 0 -20 7 -20 15 0 8
9 15 20 15 11 0 20 -7 20 -15z m119 -54 c12 -8 9 -11 -12 -16 -31 -8 -61 0
-52 15 8 12 45 13 64 1z m-89 -30 c0 -14 -18 -23 -30 -16 -6 4 -8 11 -5 16 8
12 35 12 35 0z m195 -1 c3 -6 -1 -13 -9 -16 -21 -8 -66 3 -66 16 0 13 67 13
75 0z m2065 -109 c74 -5 153 -13 175 -19 22 -6 76 -18 120 -27 88 -18 170 -40
228 -61 101 -37 195 -73 232 -90 57 -25 180 -86 240 -120 33 -18 69 -38 80
-44 33 -16 54 -31 180 -124 124 -91 304 -265 388 -373 l47 -62 2 -88 c4 -233
-3 -388 -18 -404 -10 -12 -16 -47 -19 -119 -2 -56 -9 -107 -14 -114 -5 -6 -12
-42 -13 -80 -2 -37 -9 -70 -15 -74 -5 -4 -13 -28 -17 -55 -8 -50 -27 -95 -46
-107 -9 -6 -8 -14 5 -33 21 -32 12 -49 -21 -41 -19 5 -24 2 -24 -14 0 -11 7
-22 15 -26 21 -8 19 -33 -5 -63 -11 -14 -20 -39 -20 -54 0 -16 -4 -29 -9 -29
-18 0 -61 43 -61 61 0 11 -4 17 -10 14 -5 -3 -19 6 -32 20 -12 14 -28 25 -36
25 -8 0 -21 8 -28 18 -10 14 -15 15 -25 5 -8 -8 -9 -13 -3 -13 16 0 94 -79 94
-95 0 -7 11 -20 25 -29 21 -14 23 -20 15 -36 -7 -13 -7 -21 0 -25 6 -3 13 1
16 9 7 19 34 21 34 4 0 -7 -7 -22 -15 -32 -8 -11 -15 -32 -15 -47 0 -18 -6
-28 -20 -32 -16 -4 -19 -11 -15 -30 5 -19 0 -32 -24 -56 -17 -17 -35 -31 -41
-31 -5 0 -10 -4 -10 -10 0 -5 7 -10 15 -10 26 0 16 -40 -17 -70 -18 -16 -42
-38 -53 -48 -11 -10 -28 -21 -37 -25 -10 -3 -18 -11 -18 -17 0 -15 26 -12 40
5 19 23 43 19 35 -6 -9 -28 -41 -59 -61 -59 -9 0 -18 -9 -21 -20 -3 -11 -13
-20 -23 -20 -10 0 -20 -7 -24 -15 -3 -8 -13 -15 -22 -15 -10 0 -25 -6 -33 -14
-34 -30 -194 -106 -213 -101 -24 8 -23 32 2 40 11 3 20 11 20 17 0 5 -7 7 -16
4 -45 -17 -64 -18 -70 -2 -4 9 -17 22 -29 29 -13 7 -54 41 -91 76 -38 35 -79
70 -92 79 -14 9 -22 22 -19 33 3 12 -3 19 -24 23 -34 7 -103 77 -86 88 7 4 26
8 43 8 17 0 37 7 44 15 7 8 18 15 24 15 6 0 28 15 48 33 35 30 38 38 47 112 6
44 11 134 13 201 2 110 0 123 -20 152 -38 53 -80 72 -158 71 -145 -1 -302 -65
-402 -165 -35 -35 -70 -64 -77 -64 -7 0 -57 42 -111 94 -55 52 -137 127 -184
167 -108 94 -142 125 -254 230 -50 48 -114 106 -143 130 -38 32 -49 48 -43 59
16 28 -77 114 -131 122 -50 7 -29 56 43 101 15 9 53 20 84 23 76 9 98 31 89
87 -11 68 -128 207 -174 207 -15 0 -51 19 -85 44 -50 38 -68 46 -122 51 -34 4
-67 4 -73 0 -6 -3 -14 0 -16 8 -7 16 20 124 35 142 15 18 1 25 -50 25 -44 0
-52 4 -111 61 -132 125 -196 147 -279 94 -30 -19 -44 -23 -57 -15 -24 12 -166
40 -209 40 -21 0 -34 5 -34 13 0 17 159 126 265 181 28 15 57 30 65 35 69 40
325 141 410 161 60 15 123 31 176 46 28 8 64 14 80 14 16 0 47 5 69 11 90 25
442 35 695 20z m-1362 -574 c2 -11 -3 -17 -17 -17 -23 0 -35 15 -26 31 10 15
39 6 43 -14z m47 -15 c0 -18 -20 -15 -23 4 -3 10 1 15 10 12 7 -3 13 -10 13
-16z m101 -50 c58 -56 106 -120 99 -132 -9 -15 -23 -12 -42 10 -10 11 -23 20
-31 20 -21 0 -55 37 -49 54 4 10 1 16 -8 16 -8 0 -15 9 -15 20 0 11 -4 20 -10
20 -5 0 -10 7 -10 15 0 26 26 17 66 -23z m-3906 3 c0 -8 -4 -15 -10 -15 -5 0
-10 7 -10 15 0 8 5 15 10 15 6 0 10 -7 10 -15z m120 -150 c0 -18 5 -25 20 -25
13 0 20 -7 20 -20 0 -22 -1 -23 -24 -14 -9 3 -16 12 -16 20 0 8 -6 14 -14 14
-19 0 -28 14 -20 34 10 25 34 19 34 -9z m1813 -91 c12 -13 -3 -21 -28 -17 -13
3 -22 9 -19 14 6 10 38 12 47 3z m2034 -51 c13 -12 18 -33 7 -33 -9 0 -64 64
-64 74 0 8 18 -5 57 -41z m249 11 c20 -19 34 -38 31 -41 -7 -6 -96 37 -104 50
-5 9 14 27 30 27 4 0 24 -16 43 -36z m-4039 -41 c-9 -8 -57 39 -50 50 2 4 16
-4 30 -18 14 -14 23 -28 20 -32z m2220 32 c22 -11 32 -24 36 -48 6 -41 30
-104 45 -119 19 -19 14 -45 -10 -62 -19 -14 -25 -14 -43 -2 -12 8 -35 16 -51
18 -41 4 -36 21 9 32 33 9 37 13 37 43 0 18 -3 33 -8 33 -12 0 -72 -58 -72
-69 0 -6 -7 -11 -15 -11 -8 0 -15 7 -15 15 0 8 7 15 15 15 8 0 15 7 15 15 0 8
7 15 16 15 12 0 15 7 12 25 -4 18 0 26 13 30 20 7 26 35 8 35 -6 0 -27 -18
-48 -40 -42 -45 -51 -49 -51 -20 0 13 9 22 25 26 30 7 30 11 8 36 -15 17 -15
19 3 33 24 18 34 18 71 0z m162 -22 c10 -10 24 -28 30 -40 6 -13 17 -23 23
-23 13 0 106 -79 243 -205 55 -51 121 -110 147 -131 48 -40 60 -64 33 -64 -33
0 -65 -31 -65 -64 0 -42 16 -56 62 -56 39 0 58 19 58 59 0 34 15 31 61 -12 24
-24 114 -105 199 -182 85 -77 157 -142 160 -145 3 -4 50 -46 105 -96 85 -75
173 -156 219 -200 6 -6 56 -50 111 -99 120 -107 124 -111 125 -152 0 -24 -7
-37 -29 -52 -16 -12 -34 -21 -41 -21 -23 0 -97 -40 -124 -67 -49 -49 -59 -78
-45 -133 11 -44 10 -50 -10 -84 -16 -26 -41 -45 -84 -65 -103 -49 -125 -83
-92 -141 21 -37 18 -56 -15 -102 -18 -24 -30 -53 -30 -71 0 -17 -6 -56 -14
-86 -33 -130 -67 -413 -66 -551 1 -75 23 -172 46 -203 12 -16 33 -27 57 -31
42 -7 48 -21 15 -30 -17 -4 -20 -8 -10 -14 15 -10 60 -4 68 9 8 13 88 11 121
-3 28 -11 28 -11 -20 -19 -27 -4 -54 -12 -60 -17 -7 -6 -28 -15 -47 -20 l-35
-10 37 -1 c20 -1 39 3 42 8 3 5 27 12 53 16 27 4 54 11 60 17 20 16 203 5 217
-13 9 -12 70 -14 400 -11 259 2 393 -1 400 -8 5 -5 39 -9 76 -9 l65 2 -57 9
c-32 6 -58 14 -58 18 0 23 173 27 218 5 48 -25 23 -54 -46 -55 -14 0 -26 -7
-29 -17 -6 -22 -67 -63 -93 -63 -30 0 -68 -21 -73 -40 -3 -12 -18 -19 -52 -23
-35 -3 -53 -11 -66 -28 -13 -18 -34 -26 -81 -34 -36 -6 -63 -15 -63 -22 0 -23
-5 -25 -195 -88 -609 -201 -1205 -239 -1790 -113 -25 5 -65 13 -90 18 -25 4
-79 18 -120 30 -41 11 -91 25 -110 29 -40 10 -89 27 -138 47 -18 8 -39 14 -47
14 -7 0 -26 6 -42 14 -15 8 -48 22 -73 31 -118 45 -348 159 -480 238 -68 40
-175 112 -182 122 -13 18 -2 30 26 29 17 -1 19 0 6 3 -21 5 -28 37 -10 48 6 4
22 25 36 47 16 25 31 38 39 34 11 -4 14 4 12 32 -2 31 1 37 19 40 15 2 20 8
17 21 -2 9 3 23 11 30 9 8 16 20 16 29 0 8 7 23 15 32 8 9 32 50 53 91 39 74
39 74 24 119 -40 122 -61 147 -167 201 -64 33 -275 143 -388 203 -48 26 -107
49 -130 52 -66 9 -70 5 -221 -228 -42 -65 -79 -118 -84 -118 -12 0 -63 57
-120 135 -29 39 -55 75 -59 80 -11 14 -65 96 -78 117 -5 9 -27 45 -47 78 -30
48 -38 72 -38 108 0 48 -21 92 -44 92 -17 0 -60 48 -83 95 -43 85 -83 175 -83
188 0 7 -6 21 -13 32 -16 25 -34 78 -43 128 -7 40 12 98 48 146 23 30 16 71
-17 116 -29 38 -65 121 -65 148 0 30 -39 67 -70 67 -35 0 -50 17 -50 58 0 19
-6 60 -14 91 -13 53 -27 166 -33 276 -9 179 -10 295 -2 295 5 0 12 -7 14 -15
14 -45 63 -121 156 -245 80 -107 93 -122 196 -229 71 -73 90 -98 81 -108 -13
-16 3 -18 19 -2 8 8 25 -3 62 -40 28 -28 58 -51 67 -51 12 0 15 -6 11 -21 -4
-16 -3 -19 5 -11 13 13 38 4 38 -13 0 -8 9 -17 20 -20 11 -3 20 -13 20 -22 0
-10 6 -13 16 -9 9 4 32 -7 57 -27 53 -41 59 -44 195 -113 62 -31 115 -61 118
-66 3 -5 15 -6 26 -3 14 5 21 1 25 -14 4 -16 11 -19 34 -14 24 5 29 2 29 -15
0 -18 4 -20 36 -15 34 6 36 4 29 -16 -6 -20 -4 -21 33 -15 34 5 41 3 44 -12 3
-15 11 -18 48 -16 36 3 43 1 33 -9 -23 -23 -14 -28 37 -22 50 6 61 -2 38 -25
-10 -10 -1 -11 45 -6 54 6 57 6 57 -16 0 -18 4 -21 23 -16 59 17 74 17 90 2 8
-9 31 -16 50 -16 80 0 125 -22 72 -36 -14 -3 -25 -10 -25 -14 0 -7 83 3 113
15 22 9 147 -4 147 -15 0 -4 -10 -10 -22 -13 -12 -4 -19 -9 -15 -13 3 -4 42
-1 85 6 58 9 89 9 118 1 52 -15 64 -13 34 4 l-25 14 35 15 c19 8 48 28 64 45
27 28 30 37 29 98 0 38 4 73 9 80 5 7 7 17 4 22 -11 18 13 99 44 144 45 67 38
106 -29 180 -19 21 -22 30 -13 39 7 7 12 41 12 77 1 42 6 73 15 85 8 11 15 29
15 40 0 25 77 96 105 96 11 0 29 7 39 15 11 8 30 15 42 15 12 0 27 7 34 15 7
8 19 15 27 15 31 0 72 43 78 83 5 26 13 41 25 44 12 3 16 11 13 24 -3 10 0 32
6 48 10 24 9 33 -8 62 -67 111 -80 197 -22 142z m1339 -1 c2 -7 -3 -12 -12
-12 -9 0 -16 7 -16 16 0 17 22 14 28 -4z m-3693 -62 c-5 -8 -11 -8 -17 -2 -6
6 -7 16 -3 22 5 8 11 8 17 2 6 -6 7 -16 3 -22z m2045 -78 c0 -13 -12 -22 -22
-16 -10 6 -1 24 13 24 5 0 9 -4 9 -8z m1875 -32 c0 -22 -29 -18 -33 3 -3 14 1
18 15 15 10 -2 18 -10 18 -18z m78 -27 c3 -21 9 -48 13 -61 l7 -24 -25 24
c-20 19 -24 30 -20 61 2 20 8 37 12 37 4 0 10 -17 13 -37z m-1961 -8 c0 -5 -5
-11 -11 -13 -6 -2 -11 4 -11 13 0 9 5 15 11 13 6 -2 11 -8 11 -13z m1896 -26
c-2 -6 -8 -10 -13 -10 -5 0 -11 4 -13 10 -2 6 4 11 13 11 9 0 15 -5 13 -11z
m-3568 -35 c0 -10 -7 -14 -22 -12 -32 5 -35 28 -4 28 17 0 26 -5 26 -16z
m1645 6 c3 -5 -1 -10 -10 -10 -9 0 -34 -18 -55 -40 -21 -22 -43 -40 -49 -40
-5 0 -12 -17 -14 -37 l-4 -38 -1 35 c-2 39 28 97 56 107 9 4 23 13 30 20 16
15 38 17 47 3z m-1684 -63 c-1 -12 -15 -9 -19 4 -3 6 1 10 8 8 6 -3 11 -8 11
-12z m123 -52 c4 -11 -2 -15 -22 -15 -26 1 -26 1 -8 15 24 18 23 18 30 0z m51
-34 c7 -12 -12 -24 -25 -16 -11 7 -4 25 10 25 5 0 11 -4 15 -9z m-75 -29 c0
-13 -12 -22 -22 -16 -10 6 -1 24 13 24 5 0 9 -4 9 -8z m150 -7 c0 -8 -9 -15
-20 -15 -20 0 -26 11 -13 23 12 13 33 7 33 -8z m60 -31 c0 -10 -7 -14 -22 -12
-32 5 -35 28 -4 28 17 0 26 -5 26 -16z m75 -29 c0 -5 -10 -11 -22 -13 -16 -2
-23 2 -23 13 0 11 7 15 23 13 12 -2 22 -7 22 -13z m-12 -51 c11 -11 -3 -24
-18 -18 -8 4 -12 10 -9 15 6 11 18 12 27 3z m226 -93 c11 -7 9 -10 -8 -16 -24
-7 -44 2 -36 16 8 11 26 11 44 0z m94 -36 c-3 -13 -30 -18 -51 -10 -14 5 -14
7 -2 16 19 11 56 8 53 -6z m97 -30 c0 -10 -10 -15 -29 -15 -34 0 -50 16 -24
23 36 9 53 7 53 -8z m351 -31 c8 -8 33 -14 55 -14 21 -1 50 -7 64 -15 16 -9
54 -14 103 -15 l78 0 14 -32 c7 -18 12 -35 10 -37 -2 -2 -22 6 -45 18 -28 14
-59 21 -100 21 -47 0 -60 3 -60 15 0 11 -13 15 -54 15 -35 0 -58 5 -66 15 -8
10 -30 15 -61 15 -41 0 -49 3 -49 19 0 16 6 18 48 14 26 -3 54 -12 63 -19z
m-474 -10 c-9 -9 -28 6 -21 18 4 6 10 6 17 -1 6 -6 8 -13 4 -17z m243 17 c0
-10 -71 -21 -85 -12 -5 3 4 9 20 12 45 10 65 10 65 0z m100 -30 c0 -6 -5 -13
-10 -16 -15 -9 -43 3 -35 15 8 13 45 13 45 1z m95 -36 c0 -5 -10 -11 -22 -13
-16 -2 -23 2 -23 13 0 11 7 15 23 13 12 -2 22 -7 22 -13z m129 -23 c13 -7 -16
-22 -46 -22 -26 0 -43 12 -32 23 7 7 65 6 78 -1z m156 -32 c0 -9 -71 -20 -83
-13 -4 2 -5 8 -3 11 6 10 86 11 86 2z m-117 -35 c1 -5 -6 -11 -15 -13 -11 -2
-18 3 -18 13 0 17 30 18 33 0z m-1895 -29 c2 -9 1 -25 -3 -34 -5 -14 -7 -14
-15 -2 -14 22 -12 62 3 58 6 -3 14 -12 15 -22z m30 -104 c2 -15 -2 -22 -12
-22 -11 0 -16 9 -16 26 0 31 23 28 28 -4z m5777 -12 c3 -6 -2 -13 -12 -16 -87
-25 -230 -138 -248 -194 -9 -30 -39 -21 -43 12 -4 35 -28 42 -53 17 -13 -13
-27 -18 -37 -14 -15 6 -15 8 -2 18 8 7 24 29 35 50 11 20 23 37 27 37 3 0 13
6 20 13 34 32 100 63 173 80 38 9 134 7 140 -3z m-1502 -459 c29 -26 69 -63
90 -81 20 -18 40 -42 43 -54 3 -14 21 -30 42 -39 20 -10 58 -36 83 -60 25 -23
83 -76 129 -117 213 -190 340 -313 340 -329 0 -6 14 -14 30 -17 21 -5 30 -12
30 -26 0 -12 12 -24 36 -34 42 -17 36 -31 -18 -44 -30 -7 -28 -8 20 -9 55 -1
97 -16 87 -31 -3 -5 -30 -12 -60 -15 -84 -11 -67 -28 23 -24 63 3 77 1 77 -11
0 -12 -17 -16 -78 -18 -57 -2 -79 -7 -84 -17 -4 -12 -25 -15 -88 -15 -55 0
-96 -6 -121 -17 -30 -13 -63 -16 -149 -13 -60 1 -150 3 -199 4 -58 1 -91 5
-93 13 -5 14 130 23 153 10 8 -4 19 -5 26 -1 7 4 30 7 52 6 23 -1 57 1 76 4
67 12 0 21 -154 23 -137 1 -207 12 -166 24 46 15 52 18 46 25 -4 4 -35 7 -69
8 -34 0 -100 8 -147 17 -47 9 -101 17 -121 17 -19 0 -44 7 -55 15 -27 20 -47
19 -62 -5 -7 -11 -22 -20 -35 -21 -21 -1 -21 -1 3 -8 14 -4 77 -8 140 -10 67
-1 116 -6 119 -12 2 -6 14 -14 27 -19 26 -10 48 -54 40 -77 -4 -9 -21 -12 -60
-9 -29 2 -58 6 -64 9 -12 8 -154 22 -205 20 -21 0 -43 -5 -50 -11 -7 -5 -24
-12 -39 -16 -30 -7 -149 4 -144 13 2 3 43 6 90 5 74 0 86 2 86 17 0 14 14 17
103 19 56 2 121 2 145 1 32 -1 42 3 42 14 0 11 -10 15 -42 13 -24 -1 -84 0
-135 2 -71 2 -96 -1 -114 -14 -24 -17 -93 -21 -161 -10 l-38 7 0 53 c0 29 4
55 9 58 4 3 10 39 13 79 4 58 10 80 26 97 20 22 26 23 122 16 133 -9 207 6
310 63 18 10 57 27 84 35 18 6 100 -27 112 -45 9 -15 54 -10 61 7 9 23 -8 34
-66 41 -30 3 -55 12 -58 19 -3 8 -17 14 -32 14 -34 0 -51 17 -51 49 0 37 -54
125 -96 158 -20 15 -66 44 -103 64 -42 23 -67 43 -68 55 -3 24 23 55 62 75 82
42 98 49 108 49 7 0 26 13 42 29 17 16 34 29 38 30 5 1 32 -21 60 -48z m-325
-353 c-3 -7 -14 -14 -26 -16 -11 -2 -26 -10 -32 -18 -7 -8 -23 -14 -35 -14
-12 0 -28 -7 -35 -15 -7 -8 -19 -15 -26 -15 -8 0 -14 7 -14 15 0 8 9 15 19 15
10 0 21 7 25 15 3 8 16 15 29 15 14 0 30 7 37 15 15 18 63 20 58 3z m2423 -19
c23 -12 16 -29 -12 -29 -11 0 -22 -7 -25 -15 -7 -17 -59 -45 -86 -45 -26 0
-22 19 6 30 13 5 27 14 31 19 3 6 15 11 26 11 12 0 19 7 19 20 0 22 12 25 41
9z m-157 -97 c8 -14 -53 -54 -71 -48 -14 6 -13 10 7 31 23 25 54 33 64 17z
m106 -32 c0 -5 -11 -10 -25 -10 -14 0 -28 -7 -31 -15 -4 -8 -18 -15 -31 -15
l-26 0 24 19 c34 26 89 40 89 21z m-5300 -95 c15 -18 15 -17 -30 -35 -50 -20
-79 -42 -80 -62 0 -10 -7 -18 -16 -18 -11 0 -15 -6 -11 -20 3 -13 -1 -24 -13
-30 -12 -6 -16 -17 -13 -30 3 -11 0 -20 -6 -20 -6 0 -16 -11 -21 -25 -5 -14
-16 -25 -24 -25 -9 0 -12 -7 -9 -19 7 -28 -12 -34 -33 -10 -17 19 -17 22 -3
32 9 7 19 22 23 35 4 12 12 22 17 22 5 0 9 4 9 10 0 5 12 26 26 47 14 21 30
47 35 58 5 11 18 34 29 50 11 17 23 36 26 43 9 17 79 15 94 -3z m66 -30 c4 -8
15 -15 25 -15 11 0 22 -7 25 -15 4 -8 14 -15 24 -15 10 0 25 -7 34 -15 8 -8
24 -15 36 -15 11 0 23 -7 26 -15 4 -8 14 -15 24 -15 25 0 36 -20 19 -31 -23
-15 -39 -10 -39 12 0 18 -4 20 -30 14 -26 -6 -30 -4 -30 15 0 19 -4 21 -30 15
-26 -6 -30 -4 -30 14 0 24 -4 25 -31 10 -17 -9 -21 -7 -26 10 -3 14 -13 21
-29 21 -23 0 -32 19 -17 33 12 13 44 7 49 -8z m297 -157 c54 -26 58 -34 21
-48 -38 -15 -45 -12 -38 15 6 24 4 25 -20 19 -22 -5 -26 -3 -26 15 0 26 4 26
63 -1z m91 -53 c8 -8 21 -15 29 -15 23 0 40 -27 33 -55 -4 -14 -11 -25 -16
-25 -16 0 -50 38 -50 56 0 11 -6 14 -20 9 -29 -9 -42 2 -27 25 14 24 30 25 51
5z m-706 -98 c3 -26 2 -27 -17 -15 -26 16 -28 51 -3 46 10 -2 18 -14 20 -31z
m4432 -17 c0 -14 -20 -22 -37 -16 -12 5 -13 9 -3 21 11 14 40 10 40 -5z m-845
1 c7 -12 -12 -24 -25 -16 -11 7 -4 25 10 25 5 0 11 -4 15 -9z m775 -6 c0 -8
-6 -15 -14 -15 -17 0 -28 14 -19 24 12 12 33 6 33 -9z m120 0 c0 -8 -6 -15
-14 -15 -17 0 -28 14 -19 24 12 12 33 6 33 -9z m-1257 -30 c-4 -15 -66 -12
-71 3 -3 10 6 13 34 10 22 -2 38 -7 37 -13z m147 5 c0 -17 -38 -30 -72 -24
-50 9 -60 13 -53 24 8 13 125 13 125 0z m743 -32 c-10 -21 -12 -21 -18 -5 -10
25 2 54 17 39 8 -8 8 -18 1 -34z m70 27 c1 -5 -6 -11 -15 -13 -11 -2 -18 3
-18 13 0 17 30 18 33 0z m105 3 c-5 -14 -51 -23 -74 -14 -27 10 -4 26 37 26
28 0 39 -4 37 -12z m-235 -41 c-3 -5 -10 -4 -15 1 -6 6 -7 16 -3 22 6 9 9 9
16 -1 4 -7 5 -17 2 -22z m-628 13 c7 -11 -11 -40 -25 -40 -4 0 -5 11 -2 25 5
26 16 32 27 15z m68 -5 c1 -5 -6 -11 -15 -13 -11 -2 -18 3 -18 13 0 17 30 18
33 0z m87 0 c0 -8 -6 -15 -14 -15 -17 0 -28 14 -19 24 12 12 33 6 33 -9z m184
9 c36 -11 -6 -24 -64 -19 -30 2 -59 4 -63 5 -5 0 -6 4 -3 8 6 10 103 14 130 6z
m86 -9 c0 -8 -6 -15 -14 -15 -17 0 -28 14 -19 24 12 12 33 6 33 -9z m60 0 c0
-8 -4 -15 -9 -15 -13 0 -22 16 -14 24 11 11 23 6 23 -9z m68 6 c10 -6 9 -10
-7 -14 -21 -5 -36 5 -24 17 8 8 15 7 31 -3z m462 0 c0 -13 -37 -24 -51 -15 -8
4 -7 9 2 15 19 12 49 11 49 0z m-1105 -40 c-9 -16 -25 -3 -18 15 4 10 9 12 15
6 6 -6 7 -15 3 -21z m-57 8 c-2 -6 -8 -10 -13 -10 -5 0 -11 4 -13 10 -2 6 4
11 13 11 9 0 15 -5 13 -11z m986 2 c11 -17 -11 -22 -69 -15 -31 4 -52 10 -47
13 18 10 110 12 116 2z m-691 -27 c11 -11 -3 -24 -18 -18 -8 4 -12 10 -9 15 6
11 18 12 27 3z m132 -3 c3 -5 1 -12 -4 -16 -14 -8 -92 6 -85 16 7 12 81 11 89
0z m55 0 c0 -14 -18 -23 -30 -16 -6 4 -8 11 -5 16 8 12 35 12 35 0z m85 0 c3
-5 1 -12 -5 -16 -14 -9 -52 4 -45 16 8 12 42 12 50 0z m63 -2 c-2 -6 -8 -10
-13 -10 -5 0 -11 4 -13 10 -2 6 4 11 13 11 9 0 15 -5 13 -11z m77 2 c7 -12
-31 -25 -45 -16 -6 4 -8 11 -5 16 8 12 42 12 50 0z m414 0 c11 -7 9 -10 -8
-16 -25 -8 -36 -2 -26 14 8 13 15 14 34 2z m-699 -66 c0 -8 -7 -15 -15 -15 -8
0 -15 7 -15 15 0 8 7 15 15 15 8 0 15 -7 15 -15z m201 -8 c-13 -13 -26 -3 -16
12 3 6 11 8 17 5 6 -4 6 -10 -1 -17z m-3321 -76 c0 -12 -20 -25 -27 -18 -7 7
6 27 18 27 5 0 9 -4 9 -9z m3930 -336 c0 -10 -11 -15 -35 -16 -19 -1 -40 -2
-47 -3 -19 -2 -20 22 -1 27 42 11 83 7 83 -8z"/>
<path d="M5409 7586 c-41 -28 -69 -67 -69 -96 0 -46 131 -110 194 -94 45 11
59 103 20 135 -8 6 -14 17 -14 23 0 21 -45 56 -71 56 -13 0 -40 -11 -60 -24z"/>
<path d="M5889 7463 c-23 -6 -52 -61 -45 -87 8 -32 70 -95 105 -107 37 -13 71
3 71 32 0 23 -65 150 -83 161 -13 8 -22 8 -48 1z m61 -112 c0 -8 -10 -4 -26
12 -15 15 -23 31 -18 38 8 13 43 -27 44 -50z"/>
<path d="M6242 7028 c-17 -17 -15 -42 6 -61 24 -22 35 -21 55 1 21 23 21 36 1
56 -18 19 -45 21 -62 4z"/>
<path d="M5850 6980 c-11 -11 -20 -27 -20 -35 0 -19 35 -55 53 -55 20 0 47 33
47 57 0 11 -11 28 -25 37 -31 20 -31 20 -55 -4z"/>
<path d="M6109 6771 c-22 -17 -24 -28 -27 -121 -4 -98 -3 -102 23 -125 15 -14
38 -25 54 -25 16 0 34 -6 40 -14 17 -21 99 -30 118 -14 18 15 53 92 53 117 0
18 -156 168 -197 189 -29 16 -37 15 -64 -7z m99 -94 c23 -23 42 -46 42 -50 0
-4 -20 -6 -45 -5 -41 1 -45 4 -56 35 -11 34 -7 63 9 63 4 0 27 -19 50 -43z"/>
<path d="M6702 6600 c-17 -14 -24 -30 -24 -56 0 -52 25 -74 83 -74 44 0 50 3
65 31 41 80 -55 156 -124 99z m78 -40 c0 -23 -26 -38 -41 -23 -14 14 0 43 22
43 12 0 19 -7 19 -20z"/>
<path d="M7052 6458 c-22 -22 -14 -74 13 -92 33 -22 48 -20 73 7 27 28 28 58
4 80 -22 20 -73 22 -90 5z"/>
<path d="M6545 6290 c-34 -13 -48 -39 -47 -86 0 -63 30 -94 88 -94 35 0 47 5
68 31 68 80 -12 189 -109 149z m69 -38 c9 -16 -10 -31 -32 -25 -22 5 -27 14
-15 26 9 10 41 9 47 -1z"/>
<path d="M6980 6114 c-16 -14 -30 -30 -30 -35 0 -5 -20 -29 -45 -52 -25 -24
-45 -51 -45 -61 0 -26 42 -94 65 -104 20 -9 79 4 103 23 56 43 72 67 72 110 0
54 -31 118 -65 133 -21 10 -29 8 -55 -14z m50 -84 c-18 -11 -24 -6 -16 16 5
14 9 15 19 5 9 -9 9 -14 -3 -21z"/>
<path d="M5725 5950 c-4 -6 7 -10 27 -9 27 0 30 2 13 9 -27 12 -33 12 -40 0z"/>
<path d="M5095 5907 c-30 -16 -35 -23 -22 -25 10 -2 26 3 35 11 12 11 32 13
75 10 31 -3 57 -9 57 -14 0 -5 15 -9 33 -8 l32 1 -32 14 c-17 7 -34 18 -38 24
-11 18 -98 10 -140 -13z"/>
<path d="M4891 5917 c2 -1 15 -11 28 -22 l24 -20 -14 23 c-8 12 -20 22 -28 22
-8 0 -12 -1 -10 -3z"/>
<path d="M5443 5913 c43 -2 110 -2 150 0 40 1 5 3 -78 3 -82 0 -115 -2 -72 -3z"/>
<path d="M5690 5890 c0 -5 12 -10 28 -9 24 0 25 1 7 9 -27 12 -35 12 -35 0z"/>
<path d="M4995 5860 c-3 -5 3 -10 15 -10 12 0 18 5 15 10 -3 6 -10 10 -15 10
-5 0 -12 -4 -15 -10z"/>
<path d="M4685 5800 c-4 -6 5 -10 19 -10 14 0 26 5 26 10 0 6 -9 10 -19 10
-11 0 -23 -4 -26 -10z"/>
<path d="M4979 5791 c12 -8 51 -4 51 5 0 2 -15 4 -32 4 -23 0 -29 -3 -19 -9z"/>
<path d="M4770 5754 c0 -18 20 -27 54 -22 24 3 22 4 -14 20 -34 14 -40 14 -40
2z"/>
<path d="M4593 5703 c15 -2 39 -2 55 0 15 2 2 4 -28 4 -30 0 -43 -2 -27 -4z"/>
<path d="M7424 5649 c-10 -17 13 -36 27 -22 12 12 4 33 -11 33 -5 0 -12 -5
-16 -11z"/>
<path d="M4248 5497 c-8 -7 -22 -24 -31 -39 -16 -26 -16 -28 1 -37 28 -15 62
13 62 49 0 34 -11 44 -32 27z"/>
<path d="M4118 5480 c12 -11 29 -20 38 -20 16 0 16 2 -1 20 -10 11 -27 20 -38
20 -21 0 -20 0 1 -20z"/>
<path d="M7556 5472 c-9 -14 21 -35 40 -28 8 3 14 12 12 19 -6 15 -44 22 -52
9z"/>
<path d="M4580 5450 c0 -11 5 -20 10 -20 6 0 10 9 10 20 0 11 -4 20 -10 20 -5
0 -10 -9 -10 -20z"/>
<path d="M3434 7532 c-11 -9 -43 -46 -69 -82 -50 -66 -84 -107 -120 -141 -15
-16 -20 -33 -20 -84 0 -54 4 -67 24 -89 49 -52 135 -83 262 -92 68 -5 91 -3
117 10 17 9 44 16 60 16 16 0 35 7 42 15 7 8 17 15 22 15 5 0 24 12 43 26 62
47 59 137 -7 204 -22 22 -47 40 -55 40 -8 0 -55 41 -104 90 -85 85 -92 90
-132 90 -25 0 -51 -8 -63 -18z m132 -114 c27 -40 59 -93 72 -118 14 -25 28
-49 33 -54 12 -13 11 -26 -1 -26 -20 0 -157 147 -178 191 -29 60 -28 79 2 79
19 0 35 -16 72 -72z m-186 -87 c0 -12 -20 -25 -27 -18 -7 7 6 27 18 27 5 0 9
-4 9 -9z m-32 -43 c-2 -6 -10 -14 -16 -16 -7 -2 -10 2 -6 12 7 18 28 22 22 4z"/>
<path d="M2740 7262 c-19 -9 -45 -27 -58 -39 l-22 -23 28 -6 c15 -3 54 -19 86
-36 50 -25 61 -27 73 -16 16 17 30 113 17 120 -26 16 -92 16 -124 0z"/>
<path d="M4706 7265 c-11 -8 -29 -15 -41 -15 -12 0 -26 -5 -32 -11 -6 -6 -26
-14 -44 -19 -67 -16 -170 -59 -199 -83 -9 -6 -26 -28 -38 -49 -21 -33 -21 -37
-7 -52 9 -9 21 -16 28 -16 6 0 29 -8 51 -19 135 -61 205 -75 353 -69 85 2 117
8 148 24 36 19 40 25 43 65 3 44 -4 63 -66 171 -41 70 -66 88 -126 88 -29 0
-59 -7 -70 -15z m89 -55 c3 -5 -7 -12 -22 -15 -15 -4 -35 -10 -43 -16 -8 -5
-22 -12 -30 -15 -8 -3 -28 -12 -43 -20 -16 -7 -35 -14 -43 -14 -8 0 -25 -7
-39 -16 -25 -16 -91 -16 -88 1 1 5 17 14 35 18 18 5 37 13 43 18 5 5 18 9 30
9 12 0 30 7 41 15 10 8 28 15 39 15 11 0 29 7 39 15 22 17 72 20 81 5z"/>
<path d="M4117 7094 c-11 -12 3 -24 29 -24 16 0 24 5 22 13 -5 13 -40 22 -51
11z"/>
<path d="M4190 7060 c0 -5 9 -10 21 -10 11 0 17 5 14 10 -3 6 -13 10 -21 10
-8 0 -14 -4 -14 -10z"/>
<path d="M4265 7049 c18 -5 33 -5 39 1 7 7 -4 10 -29 9 -40 -1 -40 -1 -10 -10z"/>
<path d="M3180 6816 c0 -12 34 -82 42 -87 13 -9 79 16 93 34 6 9 24 17 41 20
16 2 11 2 -11 0 -22 -2 -56 -6 -75 -9 -29 -5 -41 -1 -63 20 -15 14 -27 24 -27
22z"/>
<path d="M3203 6693 c-4 -10 -11 -21 -17 -25 -7 -5 -5 -8 5 -8 18 0 39 19 39
37 0 19 -20 16 -27 -4z"/>
<path d="M3476 6561 c-15 -23 25 -48 86 -54 32 -3 60 -2 63 3 7 11 -21 21 -40
14 -28 -11 -82 5 -92 28 -7 16 -12 18 -17 9z"/>
<path d="M3057 6491 c-10 -47 -9 -51 8 -51 16 0 18 19 6 60 -7 24 -7 24 -14
-9z"/>
<path d="M3706 6464 c10 -14 21 -21 26 -16 14 14 -2 42 -23 42 -19 0 -19 -1
-3 -26z"/>
<path d="M1491 6129 c-79 -20 -100 -34 -132 -85 -19 -32 -20 -35 -3 -86 28
-90 34 -114 34 -132 0 -22 36 -92 59 -114 57 -54 168 -68 287 -37 138 36 193
87 209 197 10 63 0 99 -37 137 -33 34 -165 101 -198 101 -11 0 -37 6 -57 14
-65 24 -86 25 -162 5z m127 -55 c12 -4 22 -10 22 -15 0 -10 -74 -12 -109 -2
-23 6 -23 7 -5 14 24 9 62 11 92 3z m106 -30 c9 -3 13 -10 10 -15 -8 -14 -48
-11 -70 6 -18 14 -17 14 13 15 17 0 38 -3 47 -6z"/>
<path d="M2253 5606 c-32 -15 -82 -55 -135 -108 -69 -69 -86 -92 -100 -139
-23 -71 -22 -87 3 -151 22 -57 66 -110 114 -136 45 -25 225 -24 285 2 156 66
197 95 223 157 15 36 13 56 -11 149 -22 88 -94 167 -195 218 -76 38 -115 40
-184 8z m89 -42 c3 -3 -5 -24 -18 -47 -13 -23 -24 -50 -24 -59 0 -16 -6 -32
-45 -123 -7 -16 -16 -38 -19 -47 -15 -47 -56 -1 -56 63 0 17 -6 32 -15 35 -40
16 5 89 94 153 42 29 71 38 83 25z"/>
<path d="M1107 5353 c-3 -5 -2 -15 2 -22 7 -10 10 -10 16 -1 4 6 3 16 -3 22
-5 5 -12 6 -15 1z"/>
<path d="M1136 5292 c-3 -6 -1 -14 5 -17 15 -10 25 3 12 16 -7 7 -13 7 -17 1z"/>
<path d="M1016 5263 c-11 -11 -6 -23 9 -23 8 0 15 4 15 9 0 13 -16 22 -24 14z"/>
<path d="M1490 5242 c0 -17 23 -52 34 -52 2 0 1 14 -3 32 -7 36 -31 51 -31 20z"/>
<path d="M1220 5136 c0 -9 7 -16 16 -16 17 0 14 22 -4 28 -7 2 -12 -3 -12 -12z"/>
<path d="M1705 5124 c-4 -16 -8 -33 -9 -39 -2 -5 1 -21 6 -35 7 -17 4 -35 -8
-62 -20 -45 -13 -71 18 -66 19 2 22 8 20 33 -1 17 -3 62 -3 100 0 79 -13 118
-24 69z"/>
<path d="M1100 5045 c0 -8 7 -15 15 -15 8 0 15 7 15 15 0 8 -7 15 -15 15 -8 0
-15 -7 -15 -15z"/>
<path d="M1160 4985 c0 -8 7 -15 15 -15 8 0 15 7 15 15 0 8 -7 15 -15 15 -8 0
-15 -7 -15 -15z"/>
<path d="M1496 4992 c-3 -6 -1 -14 5 -17 15 -10 25 3 12 16 -7 7 -13 7 -17 1z"/>
<path d="M1440 4958 c0 -16 5 -28 10 -28 13 0 13 20 0 40 -8 12 -10 9 -10 -12z"/>
<path d="M1522 4933 c5 -25 28 -28 28 -4 0 12 -6 21 -16 21 -9 0 -14 -7 -12
-17z"/>
<path d="M1327 4903 c-13 -12 -7 -23 13 -23 11 0 20 7 20 15 0 15 -21 21 -33
8z"/>
<path d="M1750 4891 c0 -5 6 -14 14 -20 10 -9 15 -8 19 3 3 8 3 17 0 20 -9 9
-33 7 -33 -3z"/>
<path d="M1250 4870 c0 -5 9 -19 20 -30 22 -22 40 -26 40 -10 0 13 -37 50 -50
50 -5 0 -10 -4 -10 -10z"/>
<path d="M1790 4822 c0 -24 45 -68 55 -53 3 6 0 14 -8 17 -9 3 -18 16 -21 30
-7 28 -26 32 -26 6z"/>
<path d="M3270 4825 c0 -17 22 -29 41 -23 6 2 0 12 -15 21 -23 15 -26 16 -26
2z"/>
<path d="M1310 4710 c0 -11 3 -20 8 -20 4 0 18 -3 31 -7 23 -6 23 -6 6 21 -20
31 -45 34 -45 6z"/>
<path d="M1740 4420 c0 -5 7 -10 15 -10 8 0 15 5 15 10 0 6 -7 10 -15 10 -8 0
-15 -4 -15 -10z"/>
<path d="M1815 4390 c-3 -5 3 -10 15 -10 12 0 18 5 15 10 -3 6 -10 10 -15 10
-5 0 -12 -4 -15 -10z"/>
<path d="M1732 4353 c2 -13 11 -17 31 -15 19 3 27 -1 27 -12 0 -9 8 -16 19
-16 10 0 24 -7 31 -15 15 -18 63 -20 58 -2 -3 6 -13 14 -24 16 -10 2 -23 9
-27 17 -4 8 -16 14 -25 14 -9 0 -26 7 -36 15 -28 21 -58 19 -54 -2z"/>
<path d="M1910 4266 c0 -11 10 -16 31 -16 38 0 35 24 -4 28 -19 2 -27 -1 -27
-12z"/>
<path d="M2010 4230 c19 -13 30 -13 30 0 0 6 -10 10 -22 10 -19 0 -20 -2 -8
-10z"/>
<path d="M2052 4208 c5 -15 68 -24 68 -10 0 10 -32 22 -58 22 -8 0 -12 -6 -10
-12z"/>
<path d="M2130 4180 c0 -5 12 -13 28 -16 15 -4 32 -10 37 -14 6 -4 29 -11 52
-15 23 -3 44 -13 47 -21 6 -15 66 -20 66 -5 0 11 -25 21 -51 21 -10 0 -19 5
-19 10 0 6 -19 10 -43 10 -30 0 -48 6 -60 20 -17 21 -57 28 -57 10z"/>
<path d="M2377 4094 c-4 -4 -7 -11 -7 -16 0 -13 50 -6 53 7 2 12 -36 19 -46 9z"/>
<path d="M2462 4058 c5 -15 42 -22 66 -13 14 5 14 7 2 15 -23 15 -72 12 -68
-2z"/>
<path d="M2708 4053 c12 -2 32 -2 45 0 12 2 2 4 -23 4 -25 0 -35 -2 -22 -4z"/>
<path d="M2993 4053 c15 -2 37 -2 50 0 12 2 0 4 -28 4 -27 0 -38 -2 -22 -4z"/>
<path d="M2572 4028 c5 -15 42 -22 66 -13 14 5 14 7 2 15 -23 15 -72 12 -68
-2z"/>
<path d="M2825 4031 c-17 -7 -16 -8 9 -15 15 -4 37 -4 49 0 22 7 22 7 2 15
-25 10 -35 10 -60 0z"/>
<path d="M2687 4003 c-16 -16 -4 -23 38 -23 45 0 60 12 29 24 -21 8 -59 8 -67
-1z"/>
<path d="M2815 3971 l-30 -8 37 -7 c42 -9 69 -5 69 9 0 13 -37 15 -76 6z"/>
<path d="M2945 3941 c-19 -8 -19 -8 3 -15 13 -5 40 -5 60 -1 32 6 34 9 17 15
-25 11 -54 11 -80 1z"/>
<path d="M6234 5511 c-11 -5 -40 -33 -65 -63 -24 -29 -67 -76 -94 -105 -62
-64 -83 -123 -67 -191 6 -27 7 -53 2 -63 -7 -12 4 -26 54 -62 102 -75 255
-119 346 -101 28 6 53 7 55 4 3 -4 30 -11 62 -15 31 -4 63 -14 71 -22 10 -10
26 -13 48 -10 26 4 36 0 53 -21 11 -14 21 -31 21 -36 0 -6 5 -5 12 2 23 23
-59 82 -115 82 -14 0 -27 7 -31 15 -3 10 -19 15 -46 15 -41 0 -55 16 -22 26 9
3 24 10 32 15 8 5 22 12 30 16 36 17 100 121 100 163 0 45 -44 111 -127 191
-115 110 -185 156 -249 163 -27 3 -58 2 -70 -3z m-2 -207 c-5 -9 -7 -25 -5
-35 4 -13 0 -19 -10 -19 -22 0 -26 21 -9 48 17 26 38 31 24 6z m-26 -89 c16
-17 19 -25 9 -25 -8 0 -17 5 -20 10 -3 6 -15 10 -26 10 -10 0 -19 7 -19 15 0
23 30 18 56 -10z"/>
<path d="M4960 5330 c-18 -22 -33 -30 -57 -30 -31 0 -52 -14 -36 -23 9 -5 204
30 212 38 2 3 -10 5 -27 5 -18 0 -39 8 -50 20 -18 19 -18 19 -42 -10z"/>
<path d="M5135 5290 c-3 -6 5 -14 19 -20 14 -5 26 -14 26 -20 0 -5 7 -10 15
-10 21 0 18 11 -9 38 -26 24 -41 28 -51 12z"/>
<path d="M7015 5017 c-35 -31 -47 -48 -42 -60 3 -9 14 -17 24 -17 10 0 27 -7
37 -15 28 -21 106 -18 160 6 42 18 45 22 34 38 -7 10 -33 35 -57 55 -60 50
-92 49 -156 -7z"/>
<path d="M5870 4651 l0 -71 29 0 c17 0 33 5 37 11 3 6 31 22 61 35 45 20 54
28 51 47 -3 19 -11 23 -68 28 -36 4 -75 10 -87 14 -22 7 -23 6 -23 -64z"/>
<path d="M6626 4583 c-10 -3 -44 -24 -75 -46 -32 -23 -81 -51 -109 -62 -69
-26 -142 -99 -152 -152 -11 -62 2 -117 35 -157 16 -20 35 -36 41 -36 6 0 17
-7 24 -15 7 -8 19 -15 28 -15 8 0 24 -8 35 -17 29 -27 254 -26 317 1 105 43
132 59 155 94 44 64 34 104 -50 207 -22 28 -49 67 -60 88 -38 74 -75 107 -125
112 -25 2 -53 1 -64 -2z m54 -73 c0 -5 -4 -10 -10 -10 -5 0 -21 -21 -36 -46
-25 -42 -115 -114 -142 -114 -5 0 -15 -7 -22 -15 -16 -20 -30 -18 -59 6 -23
19 -23 20 -5 40 11 12 28 25 39 30 44 20 108 59 143 88 36 29 92 42 92 21z"/>
<path d="M7434 4577 c-7 -20 -2 -47 11 -50 14 -3 19 43 6 56 -7 7 -12 6 -17
-6z"/>
<path d="M7330 4493 c-15 -2 -45 -21 -69 -42 l-42 -38 25 -16 c14 -9 54 -26
90 -38 63 -21 67 -21 110 -5 54 21 68 58 40 101 -28 43 -64 52 -154 38z"/>
<path d="M5856 4235 c-11 -8 -27 -15 -36 -15 -9 0 -25 -9 -36 -21 -17 -19 -25
-20 -105 -14 -82 7 -88 6 -99 -14 -10 -20 -9 -21 16 -15 15 4 68 7 118 8 90 1
92 0 160 -41 76 -45 81 -45 133 3 15 15 39 30 52 35 29 11 24 17 -51 58 -63
34 -120 40 -152 16z"/>
<path d="M7294 4161 c-57 -35 -74 -77 -74 -181 0 -115 -16 -150 -70 -150 -19
0 -46 -3 -58 -7 -39 -10 -4 -23 65 -23 41 0 67 -5 77 -15 8 -8 23 -15 33 -15
10 0 31 -7 47 -15 36 -19 85 -19 110 0 11 8 26 15 33 15 7 0 43 20 79 46 37
25 73 43 80 40 8 -3 13 -2 12 2 -1 4 3 17 11 30 20 37 10 65 -29 83 -34 16
-92 74 -147 145 -48 64 -111 80 -169 45z"/>
<path d="M5921 3971 c-20 -13 20 -24 55 -15 25 7 26 8 9 15 -27 10 -47 10 -64
0z"/>
<path d="M7670 3960 c0 -5 7 -10 15 -10 8 0 15 -7 15 -15 0 -9 7 -18 15 -21
17 -7 20 -41 6 -63 -8 -12 -12 -12 -25 -2 -11 9 -16 10 -16 2 0 -6 4 -11 9
-11 5 0 12 -10 15 -22 6 -22 7 -22 20 -5 17 21 25 22 41 0 8 -11 18 -14 31 -9
18 7 18 9 -3 23 -13 9 -23 24 -23 34 0 11 -9 28 -20 39 -11 11 -20 23 -20 28
0 10 -38 42 -50 42 -6 0 -10 -4 -10 -10z"/>
<path d="M7582 3818 c6 -18 28 -21 28 -4 0 9 -7 16 -16 16 -9 0 -14 -5 -12
-12z"/>
<path d="M7550 3771 c0 -12 6 -21 16 -21 9 0 14 7 12 17 -5 25 -28 28 -28 4z"/>
<path d="M7500 3754 c0 -10 31 -36 37 -31 3 3 -2 13 -10 22 -16 15 -27 19 -27
9z"/>
<path d="M7710 3683 c0 -13 5 -23 10 -23 13 0 13 11 0 30 -8 12 -10 11 -10 -7z"/>
<path d="M7615 3310 c-4 -6 -3 -16 3 -22 6 -6 12 -6 17 2 4 6 3 16 -3 22 -6 6
-12 6 -17 -2z"/>
<path d="M7587 3263 c-12 -11 -8 -23 8 -23 8 0 15 7 15 15 0 16 -12 20 -23 8z"/>
<path d="M7520 3066 c0 -8 -7 -17 -16 -20 -8 -3 -12 -11 -9 -16 4 -7 16 -2 31
12 27 27 30 38 9 38 -8 0 -15 -6 -15 -14z"/>
<path d="M7335 3027 c-12 -7 -32 -22 -45 -34 -41 -39 2 -27 46 12 39 35 38 44
-1 22z"/>
<path d="M7395 2980 c-3 -5 3 -10 14 -10 12 0 21 5 21 10 0 6 -6 10 -14 10 -8
0 -18 -4 -21 -10z"/>
<path d="M7343 2948 c-10 -17 -69 -58 -82 -58 -14 0 -71 -34 -71 -42 0 -14 16
-9 43 12 14 11 30 20 36 20 11 0 61 28 71 40 3 4 13 9 23 13 10 4 15 11 12 17
-8 14 -22 13 -32 -2z"/>
<path d="M7398 2903 c-16 -8 -28 -18 -28 -24 0 -5 -7 -9 -15 -9 -7 0 -18 -6
-22 -12 -8 -13 -39 -30 -125 -68 -27 -11 -48 -25 -48 -30 0 -15 23 -12 46 5
10 8 27 15 36 15 9 0 23 6 30 13 7 6 33 22 58 34 25 12 60 38 78 58 36 37 33
42 -10 18z"/>
<path d="M3530 4480 c0 -13 5 -20 13 -17 6 2 12 10 12 17 0 7 -6 15 -12 18 -8
2 -13 -5 -13 -18z"/>
<path d="M1375 3911 c-6 -11 9 -23 19 -14 9 9 7 23 -3 23 -6 0 -12 -4 -16 -9z"/>
<path d="M4013 3838 c-25 -28 -81 -139 -94 -188 -35 -130 -14 -246 59 -335 34
-41 150 -125 173 -125 11 0 19 -7 19 -16 0 -12 7 -14 28 -9 16 3 43 -1 65 -10
20 -8 63 -15 96 -15 58 0 61 1 94 43 42 51 87 129 87 148 0 8 -16 32 -36 54
-20 22 -53 65 -72 95 -34 51 -37 61 -38 134 -1 70 -4 81 -25 97 -13 11 -35 22
-49 26 -43 11 -201 90 -223 112 -18 18 -62 12 -84 -11z m74 -60 c15 -7 50 -28
78 -45 27 -18 55 -33 62 -33 20 0 15 -21 -6 -27 -11 -3 -22 -11 -25 -19 -8
-22 37 -17 57 6 17 20 47 26 60 13 4 -3 0 -15 -10 -25 -15 -17 -15 -20 4 -46
31 -42 36 -76 15 -103 l-19 -22 -31 23 c-18 13 -35 20 -39 16 -4 -4 -1 -11 7
-16 25 -16 1 -24 -26 -9 -62 33 -164 208 -164 282 0 20 1 20 37 5z"/>
<path d="M4520 3746 c0 -29 11 -39 35 -30 24 10 15 48 -12 52 -19 3 -23 -1
-23 -22z"/>
<path d="M4642 3604 c-12 -8 -22 -24 -22 -35 0 -25 39 -79 57 -79 7 0 13 -4
13 -10 0 -21 57 -10 80 15 32 34 19 71 -35 102 -47 27 -63 28 -93 7z"/>
<path d="M1711 3279 c-22 -23 -41 -45 -41 -50 0 -4 -19 -36 -42 -71 -89 -132
-98 -162 -68 -223 12 -24 28 -49 36 -56 19 -15 274 -29 329 -17 56 12 83 43
100 114 20 85 20 87 -34 150 -27 32 -59 77 -71 100 -31 63 -72 94 -125 94 -37
0 -48 -6 -84 -41z m130 -49 c27 -39 34 -70 14 -70 -9 0 -38 -18 -64 -40 -26
-22 -50 -40 -54 -40 -4 0 -26 -13 -49 -30 -49 -36 -62 -38 -52 -8 8 25 45 81
57 86 4 2 7 9 7 16 0 7 9 21 20 31 11 10 20 23 20 28 0 20 44 58 64 55 10 -2
27 -14 37 -28z"/>
<path d="M3655 3267 c-41 -41 -45 -74 -14 -123 19 -31 25 -34 68 -34 65 0 91
27 91 97 0 58 -18 81 -73 90 -32 5 -41 1 -72 -30z m85 -28 c0 -5 -7 -9 -15 -9
-15 0 -20 12 -9 23 8 8 24 -1 24 -14z"/>
<path d="M2855 3241 c-6 -5 -26 -14 -45 -19 -31 -9 -32 -10 -9 -11 15 -1 46 8
70 19 37 16 40 20 19 20 -15 0 -30 -4 -35 -9z"/>
<path d="M2463 3183 c9 -2 25 -2 35 0 9 3 1 5 -18 5 -19 0 -27 -2 -17 -5z"/>
<path d="M2678 3183 c12 -2 30 -2 40 0 9 3 -1 5 -23 4 -22 0 -30 -2 -17 -4z"/>
<path d="M3078 3183 c12 -2 32 -2 45 0 12 2 2 4 -23 4 -25 0 -35 -2 -22 -4z"/>
<path d="M4733 3164 c-9 -24 11 -38 37 -24 17 9 19 14 9 26 -15 19 -38 18 -46
-2z"/>
<path d="M2563 3153 c9 -2 25 -2 35 0 9 3 1 5 -18 5 -19 0 -27 -2 -17 -5z"/>
<path d="M2828 3153 c12 -2 30 -2 40 0 9 3 -1 5 -23 4 -22 0 -30 -2 -17 -4z"/>
<path d="M2703 3123 c9 -2 25 -2 35 0 9 3 1 5 -18 5 -19 0 -27 -2 -17 -5z"/>
<path d="M2858 3093 c17 -2 47 -2 65 0 17 2 3 4 -33 4 -36 0 -50 -2 -32 -4z"/>
<path d="M2535 2974 c-27 -7 -63 -14 -78 -14 -39 0 -87 -30 -93 -57 -5 -17 5
-35 40 -74 38 -42 46 -58 46 -90 0 -29 5 -41 22 -50 27 -15 115 -5 138 16 9 8
26 15 38 15 11 0 23 4 26 9 3 5 21 12 40 15 31 6 86 54 86 74 -1 24 -53 92
-98 129 -58 48 -81 51 -167 27z m108 -68 c38 -29 10 -49 -63 -44 -31 1 -44 -2
-51 -15 -14 -25 -32 -21 -57 12 -23 32 -20 41 14 41 13 0 26 5 29 10 9 15 107
12 128 -4z"/>
<path d="M4323 2870 c-31 -28 -37 -57 -19 -85 22 -33 60 -42 92 -21 14 10 28
24 31 32 10 26 -7 64 -37 79 -37 19 -42 19 -67 -5z m47 -45 c0 -8 -7 -15 -15
-15 -8 0 -15 7 -15 15 0 8 7 15 15 15 8 0 15 -7 15 -15z"/>
<path d="M3365 2841 c-11 -3 -40 -17 -65 -31 -48 -26 -97 -46 -145 -60 -138
-40 -191 -88 -237 -215 -24 -66 -25 -219 -2 -267 45 -90 53 -103 68 -113 24
-15 47 4 77 64 15 29 39 65 55 82 25 26 34 29 90 29 36 0 68 5 76 13 43 39 61
50 98 58 25 6 47 6 58 0 12 -6 26 -5 42 5 14 7 41 13 60 14 38 0 83 34 95 69
15 49 -70 210 -167 314 -43 46 -61 52 -103 38z m3 -82 c-16 -9 -32 -44 -42
-90 -5 -25 -8 -25 -88 -26 -105 -1 -168 -11 -190 -31 -10 -8 -18 -11 -18 -6 0
14 46 54 62 54 8 0 23 7 34 15 10 8 27 15 36 15 18 0 57 16 148 60 30 14 59
24 64 22 5 -3 2 -9 -6 -13z m102 -58 c5 -11 10 -31 10 -44 0 -14 7 -30 15 -37
20 -16 46 -70 34 -70 -5 0 -25 6 -44 14 -36 15 -41 25 -48 109 -5 51 12 65 33
28z m-454 -188 c-13 -13 -28 15 -20 38 l7 24 10 -28 c5 -16 6 -31 3 -34z m33
-37 c9 -11 10 -20 1 -35 -16 -32 -30 -25 -30 14 0 37 10 44 29 21z"/>
<path d="M4034 2781 c-58 -35 -78 -86 -54 -132 12 -22 75 -26 100 -6 30 23 50
62 50 97 0 61 -37 77 -96 41z"/>
<path d="M4365 2586 c-14 -20 -14 -28 -3 -45 20 -32 46 -36 74 -10 28 26 30
42 8 63 -23 24 -61 20 -79 -8z"/>
<path d="M4032 2354 c-48 -34 -15 -124 46 -124 33 0 45 8 61 37 36 70 -41 133
-107 87z m68 -38 c0 -8 -5 -18 -11 -22 -14 -8 -33 11 -25 25 10 16 36 13 36
-3z"/>
<path d="M4260 2220 c0 -5 7 -10 15 -10 8 0 15 5 15 10 0 6 -7 10 -15 10 -8 0
-15 -4 -15 -10z"/>
<path d="M3624 2150 c-27 -11 -46 -63 -35 -93 12 -29 46 -57 72 -57 28 0 69
47 69 80 0 53 -57 91 -106 70z m46 -55 c0 -8 -4 -15 -10 -15 -5 0 -10 7 -10
15 0 8 5 15 10 15 6 0 10 -7 10 -15z"/>
<path d="M4347 2024 c-4 -4 -7 -17 -7 -28 0 -19 1 -19 17 -3 12 11 14 20 7 27
-6 6 -13 7 -17 4z"/>
<path d="M3976 1881 c-24 -26 -17 -53 17 -65 39 -14 65 12 51 51 -12 34 -44
41 -68 14z"/>
<path d="M3220 1864 c-30 -7 -72 -16 -94 -20 -21 -3 -49 -16 -63 -30 -20 -20
-23 -30 -17 -61 4 -21 13 -50 20 -65 8 -15 14 -45 14 -67 0 -22 4 -42 9 -46 5
-3 12 -18 16 -34 3 -16 12 -35 19 -41 19 -15 113 -41 164 -45 53 -3 61 -11 36
-30 -18 -14 -18 -14 4 -15 13 0 32 5 43 11 11 6 34 7 51 3 l31 -6 -24 -20 -24
-19 40 6 c22 4 67 8 99 9 94 5 101 29 60 216 -9 41 -18 85 -20 96 -5 28 -60
54 -116 54 -50 0 -75 17 -112 78 -30 47 -42 50 -136 26z m95 -86 c26 -41 78
-70 138 -77 26 -3 49 -10 50 -16 4 -18 -66 -17 -123 0 -94 30 -103 34 -97 53
2 9 6 23 8 31 2 9 -5 17 -16 19 -35 7 -41 22 -9 22 21 -1 34 -9 49 -32z m-109
-3 c4 -8 14 -15 24 -15 11 0 22 -4 25 -10 8 -13 -36 -13 -67 -1 -13 5 -31 12
-41 15 -27 9 -11 26 24 26 17 0 32 -6 35 -15z"/>
<path d="M4286 1733 c-10 -10 -7 -41 4 -48 12 -7 40 12 40 26 0 12 -36 30 -44
22z"/>
<path d="M4060 1703 c-56 -21 -68 -86 -23 -128 53 -48 123 -16 123 57 0 50
-54 89 -100 71z m35 -63 c-5 -8 -11 -8 -17 -2 -6 6 -7 16 -3 22 5 8 11 8 17 2
6 -6 7 -16 3 -22z"/>
<path d="M2808 1556 c-10 -7 -18 -22 -18 -33 0 -22 41 -46 65 -37 22 9 19 61
-4 74 -24 12 -22 12 -43 -4z"/>
<path d="M5105 1540 l-30 -8 37 -1 c20 0 40 4 43 9 7 11 -6 11 -50 0z"/>
<path d="M5430 1510 c-69 -4 -136 -11 -149 -15 -24 -8 -24 -8 -4 -16 12 -4 50
-4 85 1 34 5 157 10 273 10 130 0 205 4 200 9 -13 13 -252 19 -405 11z"/>
<path d="M4896 1500 c7 -7 29 -7 65 -1 l54 9 -64 1 c-44 1 -62 -2 -55 -9z"/>
<path d="M5155 1480 c-23 -6 -15 -8 35 -8 45 0 59 2 45 8 -24 10 -40 10 -80 0z"/>
<path d="M5897 1473 c18 -2 50 -2 70 0 21 2 7 4 -32 4 -38 0 -55 -2 -38 -4z"/>
<path d="M4983 1443 c15 -2 37 -2 50 0 12 2 0 4 -28 4 -27 0 -38 -2 -22 -4z"/>
<path d="M4858 1413 c12 -2 30 -2 40 0 9 3 -1 5 -23 4 -22 0 -30 -2 -17 -4z"/>
<path d="M5273 1413 c43 -2 110 -2 150 0 40 1 5 3 -78 3 -82 0 -115 -2 -72 -3z"/>
<path d="M5818 1413 c29 -2 74 -2 100 0 26 2 2 3 -53 3 -55 0 -76 -1 -47 -3z"/>
<path d="M5038 1383 c12 -2 30 -2 40 0 9 3 -1 5 -23 4 -22 0 -30 -2 -17 -4z"/>
<path d="M3522 1361 c-11 -7 -11 -9 0 -13 18 -7 39 2 32 13 -6 11 -15 11 -32
0z"/>
<path d="M5338 1353 c34 -2 88 -2 120 0 31 2 3 3 -63 3 -66 0 -92 -1 -57 -3z"/>
<path d="M5763 1353 c9 -2 25 -2 35 0 9 3 1 5 -18 5 -19 0 -27 -2 -17 -5z"/>
<path d="M5053 1323 c15 -2 39 -2 55 0 15 2 2 4 -28 4 -30 0 -43 -2 -27 -4z"/>
<path d="M5403 1293 c42 -2 112 -2 155 0 42 1 7 3 -78 3 -85 0 -120 -2 -77 -3z"/>
<path d="M5360 2580 c0 -9 31 -30 44 -30 4 0 1 9 -6 20 -13 21 -38 27 -38 10z"/>
<path d="M5931 2380 c-10 -5 -9 -8 2 -13 7 -3 19 -2 26 3 10 5 9 8 -2 13 -7 3
-19 2 -26 -3z"/>
<path d="M4833 2343 c15 -2 37 -2 50 0 12 2 0 4 -28 4 -27 0 -38 -2 -22 -4z"/>
<path d="M5870 2320 c-25 -4 -40 -8 -35 -9 38 -7 116 -8 150 -1 29 6 33 8 14
9 -15 0 -39 3 -55 5 -16 2 -49 0 -74 -4z"/>
<path d="M4764 2301 c-2 -2 -4 -13 -4 -24 0 -13 5 -17 16 -13 9 3 45 6 81 6
47 0 64 3 61 13 -4 11 -144 28 -154 18z"/>
<path d="M5504 2288 c-8 -13 16 -17 86 -15 36 1 66 7 67 12 3 12 -146 15 -153
3z"/>
<path d="M5933 2263 c-35 -2 -63 -8 -63 -13 0 -11 104 -13 174 -4 54 8 43 25
-14 22 -19 -1 -63 -3 -97 -5z"/>
</g>
</svg>
