<?xml version="1.0" standalone="no"?>
<!DOCTYPE svg PUBLIC "-//W3C//DTD SVG 20010904//EN"
 "http://www.w3.org/TR/2001/REC-SVG-20010904/DTD/svg10.dtd">
<svg version="1.0" xmlns="http://www.w3.org/2000/svg"
 width="450.000000pt" height="450.000000pt" viewBox="0 0 450.000000 450.000000"
 preserveAspectRatio="xMidYMid meet">
<metadata>
Created by potrace 1.10, written by Peter Selinger 2001-2011
</metadata>
<g transform="translate(0.000000,450.000000) scale(0.100000,-0.100000)"
fill="#000000" stroke="none">
<path d="M2466 3990 c-27 -11 -76 -40 -109 -66 l-60 -46 -46 22 c-28 14 -73
25 -114 28 -75 5 -126 -9 -210 -62 -61 -38 -135 -41 -191 -8 -47 28 -48 7 -2
-37 51 -49 102 -52 193 -12 90 39 133 39 248 1 l90 -31 -65 6 c-226 18 -214
19 -266 -5 -43 -20 -63 -23 -158 -21 -127 2 -164 -8 -206 -55 -32 -37 -42 -67
-12 -42 59 52 169 65 288 34 88 -23 112 -20 174 19 l54 35 -44 2 c-40 1 -41 2
-11 5 40 5 101 -4 101 -15 0 -5 -21 -18 -47 -31 -42 -20 -45 -25 -28 -31 18
-7 16 -10 -17 -24 -51 -22 -107 -20 -170 5 -161 66 -329 -14 -328 -154 l1 -32
13 31 c8 17 27 41 42 53 25 20 37 22 89 18 36 -2 77 -13 100 -26 44 -24 28
-24 -56 -1 -25 7 -57 10 -72 6 -29 -7 -67 -58 -67 -88 0 -15 4 -16 25 -6 19 8
28 8 40 -2 24 -20 18 -49 -15 -69 l-31 -18 33 -14 c37 -16 160 -19 198 -5 23
8 24 7 11 -8 -21 -26 -60 -42 -116 -51 l-50 -8 35 -15 c38 -16 128 -21 175 -8
52 13 13 -13 -56 -39 -60 -22 -62 -24 -36 -30 16 -4 49 -5 75 -1 26 4 79 10
118 15 39 4 77 11 85 15 8 4 1 -4 -16 -19 -16 -14 -52 -37 -78 -51 -27 -14
-47 -28 -44 -31 10 -9 110 17 146 39 20 11 62 46 94 77 l59 56 -16 -40 c-9
-22 -26 -53 -37 -68 l-21 -28 31 16 c29 14 31 14 31 -2 0 -50 -24 -150 -50
-216 -19 -47 -32 -102 -36 -148 -3 -41 -14 -94 -24 -119 -10 -25 -26 -88 -35
-140 -26 -156 -93 -266 -268 -441 -244 -243 -271 -260 -414 -261 -64 0 -84 5
-137 31 -154 76 -248 263 -219 435 9 48 8 54 -4 44 -25 -20 -46 -71 -53 -128
l-7 -55 -12 30 c-21 49 -10 137 23 179 32 43 27 44 -30 11 -62 -36 -87 -93
-82 -190 3 -72 2 -74 -15 -56 -10 10 -21 40 -26 67 -6 43 -8 46 -18 29 -44
-82 -6 -201 77 -235 36 -15 40 -32 5 -25 -14 3 -36 7 -50 10 -14 3 -43 21 -65
41 l-39 35 9 -31 c26 -90 98 -145 190 -144 l55 1 -40 -19 c-46 -21 -106 -18
-157 8 l-32 17 15 -24 c28 -43 95 -72 176 -77 41 -3 71 -8 66 -13 -4 -4 -50
-17 -102 -28 -52 -12 -96 -23 -98 -25 -13 -13 86 -30 174 -31 57 0 103 -1 103
-2 0 -8 -68 -35 -126 -49 -51 -13 -63 -19 -48 -25 32 -13 146 -9 189 6 21 8
41 13 43 11 4 -5 -86 -59 -125 -75 -45 -18 -41 -31 10 -31 58 0 104 14 161 50
l48 31 -7 -28 c-8 -35 -20 -49 -69 -85 l-39 -28 36 0 c51 0 86 16 130 58 l37
36 0 -38 c0 -32 -7 -46 -44 -82 -28 -29 -38 -44 -27 -44 22 1 97 35 105 49 4
6 11 11 17 11 17 0 9 -33 -13 -57 l-21 -23 21 0 c27 0 28 -17 3 -44 -11 -12
-23 -34 -27 -51 l-7 -30 22 19 c21 19 21 19 21 -1 0 -41 -43 -86 -105 -110
-63 -24 -126 -79 -124 -110 0 -11 3 -13 6 -5 2 6 9 12 13 12 5 0 0 -21 -10
-46 -11 -25 -20 -55 -20 -66 0 -21 0 -21 22 -2 15 13 12 5 -10 -25 -18 -25
-32 -56 -32 -69 l0 -24 21 23 20 24 -5 -39 c-4 -27 -16 -51 -41 -76 -19 -20
-40 -52 -45 -70 -17 -58 6 -134 49 -167 29 -22 87 -15 122 14 51 43 69 98 78
231 8 121 16 148 60 195 36 39 60 51 174 81 103 27 167 58 207 101 31 33 44
32 35 -2 -10 -41 -30 -58 -94 -82 -58 -21 -81 -42 -96 -91 -7 -23 -6 -23 18 6
15 18 36 34 47 37 16 4 12 -5 -20 -39 -41 -44 -51 -63 -64 -119 -7 -29 -7 -29
13 -11 21 19 21 19 21 0 0 -10 -12 -44 -26 -74 -64 -135 0 -278 105 -234 46
19 61 63 61 181 0 78 4 105 21 140 28 58 80 98 159 124 196 64 264 164 279
414 5 80 13 131 25 153 21 41 30 41 22 0 -3 -18 -2 -46 2 -62 l8 -29 12 39 c7
21 21 50 32 64 l20 25 0 -50 1 -50 24 30 c14 16 30 42 36 57 6 16 15 28 20 28
14 0 10 -38 -7 -73 l-16 -32 32 30 c17 17 44 50 58 75 31 52 41 36 18 -29
l-14 -42 21 14 c12 8 37 43 55 78 19 35 36 66 39 69 3 3 3 -23 1 -58 l-4 -63
23 38 c12 20 25 57 29 82 5 35 9 40 16 27 6 -10 8 -37 6 -61 -3 -37 -1 -42 10
-31 8 7 24 42 36 76 l23 63 7 -36 c4 -20 4 -48 1 -64 -6 -26 -5 -26 14 7 19
32 26 54 46 135 l8 30 7 -25 c5 -14 9 -45 9 -70 l2 -45 15 28 c9 16 18 54 21
84 6 59 18 55 29 -10 3 -21 8 -36 10 -34 3 3 11 38 18 78 l12 74 20 -35 19
-35 5 50 5 50 25 -48 c26 -52 86 -112 126 -127 84 -32 183 11 204 90 8 30 5
52 -16 121 -18 61 -24 97 -20 132 8 71 21 84 22 23 2 -58 19 -99 58 -135 30
-29 31 -27 11 29 -16 46 -19 182 -5 215 7 16 9 14 9 -15 2 -53 19 -107 46
-137 13 -16 25 -26 28 -23 3 3 -2 33 -10 67 -11 43 -13 77 -8 110 l8 48 15
-64 14 -63 18 38 c21 45 23 41 24 -43 1 -66 17 -98 69 -137 34 -25 103 -26
144 -1 105 62 94 213 -32 427 -83 142 -151 165 -325 110 -127 -40 -141 -43
-175 -34 -41 11 -61 51 -84 164 -10 52 -27 110 -36 129 l-18 34 22 -19 21 -19
-11 31 c-6 17 -27 44 -46 59 -19 16 -55 48 -79 73 l-44 45 35 10 36 10 -44 23
c-24 13 -54 37 -66 53 -26 35 -51 102 -50 133 0 21 0 21 9 -1 9 -23 89 -107
95 -101 3 2 -7 26 -20 53 -14 26 -25 62 -25 79 l1 31 13 -30 c30 -69 113 -135
168 -135 22 1 22 1 3 12 -27 15 -65 50 -65 60 0 5 10 2 23 -6 29 -18 83 -27
114 -20 22 6 16 10 -45 40 -38 19 -84 50 -101 69 -39 45 -41 68 -2 26 34 -36
68 -51 121 -51 46 0 80 -35 80 -82 0 -36 15 -29 23 11 10 50 -10 100 -50 124
-43 25 -29 34 20 13 39 -16 67 -58 70 -106 1 -17 3 -30 4 -30 1 0 10 15 19 33
22 42 22 132 0 174 -14 27 -14 32 -1 27 25 -10 56 -71 62 -125 l6 -53 14 39
c19 54 9 114 -27 164 -38 52 -64 69 -130 81 -77 15 -76 23 2 18 79 -7 126 -32
170 -92 l31 -41 -6 40 c-12 76 -65 119 -168 136 -95 15 -96 24 -5 26 64 2 91
-1 119 -16 32 -16 35 -16 28 -2 -23 43 -50 54 -144 62 -50 4 -93 8 -94 8 -2 1
-3 20 -3 44 0 26 -11 66 -29 103 -16 34 -32 75 -36 93 -14 63 -85 78 -196 40
l-61 -21 -48 26 c-26 14 -62 26 -80 26 l-32 0 32 -37 c58 -67 83 -72 174 -37
7 3 11 -8 11 -28 0 -30 5 -35 58 -61 72 -35 73 -51 5 -124 -54 -56 -81 -74
-149 -98 l-39 -14 15 36 c19 44 19 44 -1 36 -14 -5 -15 -3 -4 18 l13 23 -29
-18 c-62 -40 -114 -88 -120 -112 -7 -28 -24 -33 -24 -6 0 24 27 61 83 112 27
24 55 57 63 73 l15 28 -28 -18 -28 -18 22 35 c37 61 37 76 5 88 -16 6 -45 29
-63 52 -19 23 -46 48 -61 56 -38 20 -124 17 -182 -6z m42 -54 c-35 -18 -74
-37 -88 -41 -42 -13 -7 20 53 50 80 40 112 32 35 -9z m489 18 c-15 -8 -31 -24
-35 -34 -6 -17 -8 -17 -19 6 -10 22 -9 25 20 33 49 14 65 12 34 -5z m5 -76
c-6 -6 -7 0 -4 19 5 21 7 23 10 9 2 -10 0 -22 -6 -28z m-484 -8 c-12 -16 -23
-30 -25 -30 -2 0 3 14 12 30 9 17 20 30 26 30 5 0 0 -13 -13 -30z m-286 -11
c28 -11 77 -24 107 -29 54 -8 53 -9 -24 -6 -61 2 -93 9 -135 29 -46 22 -51 26
-28 26 15 1 51 -8 80 -20z m338 7 c0 -3 -5 -8 -12 -12 -7 -4 -8 -3 -4 4 7 12
16 16 16 8z m60 -6 c0 -5 -4 -10 -10 -10 -5 0 -10 5 -10 10 0 6 5 10 10 10 6
0 10 -4 10 -10z m495 -45 c20 -50 15 -109 -10 -134 -13 -14 -15 -12 -15 20 0
23 -7 42 -20 54 -25 22 -26 62 -2 86 25 26 29 24 47 -26z m-505 -15 c7 0 22 7
32 17 16 15 18 15 18 0 0 -21 -34 -39 -68 -35 -20 2 -28 9 -31 28 -3 24 -2 24
16 7 11 -9 26 -17 33 -17z m-353 -86 c-19 -10 -38 -36 -56 -77 -16 -34 -37
-70 -47 -79 -30 -26 -85 -46 -145 -53 -60 -6 -63 -8 63 48 37 16 75 39 85 50
17 20 17 20 -2 13 -40 -16 -87 -27 -92 -23 -7 7 93 99 130 120 17 9 45 17 62
17 l30 -1 -28 -15z m797 -40 c21 -55 -24 -119 -101 -142 -53 -16 -117 -72
-143 -128 -19 -38 -22 -57 -18 -113 5 -61 17 -97 66 -194 2 -4 -9 -2 -24 3
-15 6 -29 9 -31 7 -5 -6 45 -56 90 -90 20 -15 37 -34 37 -41 0 -25 -28 -49
-66 -56 l-39 -7 28 -11 c16 -7 48 -12 73 -12 80 0 124 -36 124 -102 l-1 -33
-16 26 c-9 15 -28 34 -43 42 l-27 16 20 -57 c12 -34 21 -92 23 -142 l4 -85
-15 58 c-8 31 -22 72 -31 90 -16 32 -72 97 -84 97 -4 0 6 -26 21 -57 20 -40
33 -90 43 -163 7 -58 12 -106 11 -108 -2 -2 -15 24 -30 57 -15 33 -35 67 -45
76 -17 16 -18 15 -5 -22 7 -21 16 -59 20 -85 7 -44 5 -48 -13 -48 -21 0 -32
18 -32 55 0 13 -5 36 -11 52 l-12 28 -9 -42 c-5 -24 -13 -43 -18 -43 -5 0 -16
33 -25 72 -18 82 -48 141 -81 163 l-23 15 16 -38 c12 -30 14 -59 9 -147 -6
-94 -4 -113 10 -134 17 -24 17 -24 -12 -17 -28 6 -28 6 -9 -10 17 -13 40 -15
140 -11 146 5 202 -7 251 -54 47 -45 111 -143 167 -254 53 -106 71 -167 62
-204 -7 -26 -8 -26 -25 14 l-19 40 0 -36 c-1 -20 -8 -42 -16 -49 -13 -11 -15
-8 -15 16 0 26 -32 94 -45 94 -2 0 -2 -13 1 -30 8 -39 -3 -80 -21 -80 -10 0
-15 11 -15 35 0 41 -5 43 -31 13 l-18 -23 -1 27 c0 15 -16 57 -35 94 -29 55
-35 76 -35 128 0 70 -22 120 -33 75 -4 -13 -14 -29 -24 -35 -16 -10 -18 -7
-15 35 3 37 -1 50 -17 65 -21 19 -21 19 -21 -11 0 -16 -6 -38 -14 -48 -12 -17
-14 -14 -20 27 -7 46 -36 88 -60 88 -9 0 -12 -8 -9 -24 3 -13 -3 -39 -13 -57
-15 -29 -19 -31 -22 -14 -6 35 -24 75 -32 70 -4 -2 -10 -17 -13 -33 -6 -30
-43 -82 -58 -82 -6 0 -5 8 1 20 6 12 10 33 8 48 -2 22 -9 28 -33 30 -16 1 -40
5 -53 8 -28 6 -46 48 -32 75 13 23 8 24 -30 4 -42 -21 -37 -6 11 40 61 60 69
81 69 187 -1 79 -3 90 -14 76 -12 -16 -14 -10 -20 44 -3 34 -8 63 -10 65 -2 3
-18 -3 -36 -12 -18 -9 -33 -15 -35 -13 -2 2 13 29 32 60 26 41 37 73 41 110 4
51 3 52 -13 33 -16 -20 -16 -19 -10 7 3 16 2 40 -1 54 -7 26 -7 26 -19 -10
-15 -43 -42 -86 -55 -86 -5 0 -2 12 6 28 27 52 19 91 -30 136 -25 23 -49 52
-54 67 -12 30 -5 74 14 90 11 9 14 7 14 -12 0 -13 5 -31 10 -39 8 -12 10 -11
10 8 0 22 26 82 35 82 2 0 2 -13 -1 -29 -4 -16 -1 -32 5 -35 7 -4 11 1 11 13
0 18 23 41 84 84 14 10 33 32 42 50 25 49 55 77 106 99 31 13 55 33 68 54 25
39 78 86 90 79 4 -3 32 18 61 45 54 51 92 63 103 34z m-797 -99 c-8 -75 -34
-109 -105 -135 -31 -12 -70 -30 -87 -40 -40 -24 -83 -32 -120 -22 -29 8 -29 9
17 15 26 4 65 17 85 30 21 13 59 31 85 41 55 20 81 50 105 118 10 26 20 48 22
48 2 0 1 -25 -2 -55z m-401 30 c71 -18 79 -25 28 -24 -48 1 -154 37 -112 38
15 1 53 -6 84 -14z m452 -159 c-13 -24 -66 -66 -157 -122 -48 -30 -121 -42
-161 -25 -25 10 -25 10 6 10 50 1 94 21 176 78 96 67 113 89 130 161 l13 57 3
-67 c2 -42 -2 -77 -10 -92z m-449 3 c-18 -11 -90 -11 -107 -1 -7 5 17 9 54 9
41 0 61 -3 53 -8z m497 -86 c-9 -15 -34 -48 -56 -73 -36 -40 -39 -42 -30 -16
6 15 28 49 50 74 22 24 41 52 41 61 1 14 2 14 6 -1 2 -9 -3 -29 -11 -45z
m-102 -383 c-15 -27 -36 -58 -47 -67 -20 -18 -20 -18 -3 15 9 18 28 75 41 127
14 52 26 99 27 103 1 4 3 -24 5 -61 3 -58 0 -74 -23 -117z m88 -72 c-70 -88
-114 -157 -127 -200 -17 -60 -20 -135 -5 -174 18 -45 2 -40 -20 7 -52 115 -9
255 105 341 53 40 64 46 47 26z m46 -174 c-21 -36 -23 -51 -23 -186 l0 -147
37 42 38 42 -20 -45 c-11 -25 -20 -61 -20 -81 0 -40 28 -238 36 -251 12 -19
-15 -6 -30 15 -16 22 -17 22 -13 -13 2 -19 8 -44 12 -55 8 -18 7 -19 -10 -5
-35 29 -45 72 -38 173 8 128 1 144 -38 82 -16 -26 -32 -46 -34 -44 -2 2 8 42
22 89 21 74 24 98 20 188 -6 121 1 153 44 205 39 47 47 42 17 -9z m-239 -279
c0 -82 -1 -87 -13 -60 l-13 30 -6 -40 c-4 -22 -7 -74 -7 -115 -1 -89 -16 -77
-26 19 -5 45 -1 89 16 168 12 60 25 115 28 123 10 29 20 -33 21 -125z m1451
80 c37 -19 81 -83 131 -189 49 -106 64 -172 48 -212 l-12 -29 -7 30 -6 30 -12
-37 c-7 -20 -20 -39 -28 -42 -9 -3 -12 -2 -9 5 4 6 4 27 0 47 l-8 37 -10 -30
c-20 -62 -28 -60 -58 15 -32 78 -35 104 -18 160 7 21 8 51 4 67 l-7 28 -12
-30 c-7 -17 -25 -36 -40 -43 -25 -11 -26 -11 -15 10 6 12 9 43 6 72 -4 43 -10
55 -41 82 -32 27 -34 33 -19 37 38 10 85 6 113 -8z m-1609 -348 c-23 -52 -44
-110 -48 -128 l-8 -34 -5 45 -5 45 -35 -55 c-19 -30 -49 -84 -67 -120 -28 -56
-32 -61 -32 -35 0 17 6 46 12 65 11 31 3 24 -74 -55 -104 -107 -144 -156 -170
-208 l-20 -38 40 21 c22 11 43 20 47 20 4 0 -23 -31 -60 -69 -66 -69 -96 -120
-96 -162 l0 -22 26 24 c23 20 25 21 17 4 -6 -11 -13 -33 -17 -50 -7 -28 -7
-29 11 -12 16 14 13 -2 -16 -91 -33 -97 -41 -112 -91 -162 -39 -40 -71 -62
-112 -77 -32 -11 -58 -17 -58 -13 0 15 52 50 74 50 32 0 91 54 118 107 21 44
23 61 23 194 l0 146 47 94 c58 115 92 156 286 344 84 81 173 176 199 211 26
35 48 62 50 60 2 -2 -14 -46 -36 -99z m866 -83 c8 -21 -13 -42 -28 -27 -13 13
-5 43 11 43 6 0 13 -7 17 -16z m100 -59 c-6 -35 -41 -95 -57 -95 -4 0 0 16 10
36 10 19 23 48 29 65 14 40 25 37 18 -6z m-162 -70 c-8 -45 -45 -109 -74 -125
-17 -8 -15 -2 10 48 16 31 35 81 41 109 11 45 14 49 21 31 4 -13 5 -41 2 -63z
m-115 -1 c0 -44 -29 -96 -66 -121 -18 -11 -16 -4 13 53 19 38 33 82 33 103 0
27 3 32 10 21 5 -8 10 -33 10 -56z m-1520 -116 l45 -13 -48 -3 c-36 -2 -55 2
-77 18 -40 28 -38 43 3 25 17 -8 52 -20 77 -27z m1390 -8 c0 -43 -5 -55 -36
-90 -50 -56 -59 -50 -18 11 19 28 37 69 40 90 9 53 14 49 14 -11z m-139 -108
c-20 -39 -79 -98 -88 -88 -3 3 10 24 29 48 19 24 44 58 54 76 26 46 31 15 5
-36z m-961 51 c0 -1 -28 -18 -62 -38 -35 -20 -74 -47 -87 -58 -21 -19 -23 -20
-18 -4 4 10 7 22 7 26 0 4 10 18 22 31 20 22 20 23 3 15 -11 -5 -47 -10 -80
-12 l-60 -3 60 23 c45 18 79 23 138 23 42 -1 77 -2 77 -3z m856 -55 c-7 -36
-47 -82 -88 -104 -44 -23 -43 -17 4 34 24 26 53 60 62 75 24 36 30 34 22 -5z
m-330 -216 c-38 -107 -98 -199 -160 -244 -61 -44 -61 -34 -3 40 30 37 79 106
110 155 31 48 59 87 61 87 3 0 -1 -17 -8 -38z m-662 -483 c-32 -34 -84 -65
-84 -50 0 15 34 50 65 66 46 23 52 18 19 -16z"/>
<path d="M3010 3659 c0 -5 5 -7 10 -4 6 3 10 8 10 11 0 2 -4 4 -10 4 -5 0 -10
-5 -10 -11z"/>
<path d="M2717 3382 c-21 -23 -37 -67 -37 -100 1 -24 2 -25 11 -9 6 10 21 42
35 72 24 55 21 70 -9 37z"/>
<path d="M2743 3294 c-21 -66 -16 -109 13 -141 20 -22 24 -23 19 -8 -4 11 -10
58 -14 105 l-6 85 -12 -41z"/>
<path d="M2601 3177 c-1 -72 15 -117 67 -185 14 -19 27 -51 30 -78 5 -45 5
-46 18 -23 29 52 12 120 -41 169 -37 34 -56 75 -65 135 l-8 50 -1 -68z"/>
<path d="M2870 3835 c0 -9 5 -15 11 -13 6 2 11 8 11 13 0 5 -5 11 -11 13 -6 2
-11 -4 -11 -13z"/>
<path d="M2900 3800 c0 -5 7 -10 15 -10 8 0 15 5 15 10 0 6 -7 10 -15 10 -8 0
-15 -4 -15 -10z"/>
<path d="M2855 3790 c-3 -5 -1 -10 4 -10 6 0 11 5 11 10 0 6 -2 10 -4 10 -3 0
-8 -4 -11 -10z"/>
<path d="M2883 3763 c4 -3 10 -3 14 0 3 4 0 7 -7 7 -7 0 -10 -3 -7 -7z"/>
<path d="M2823 3753 c4 -3 10 -3 14 0 3 4 0 7 -7 7 -7 0 -10 -3 -7 -7z"/>
<path d="M1700 399 c-549 -17 -746 -45 -473 -69 468 -40 1630 -40 2071 0 185
17 159 34 -80 50 -385 27 -1015 35 -1518 19z"/>
</g>
</svg>
