<?xml version="1.0" standalone="no"?>
<!DOCTYPE svg PUBLIC "-//W3C//DTD SVG 20010904//EN"
 "http://www.w3.org/TR/2001/REC-SVG-20010904/DTD/svg10.dtd">
<svg version="1.0" xmlns="http://www.w3.org/2000/svg"
 width="1350.000000pt" height="1350.000000pt" viewBox="0 0 1350.000000 1350.000000"
 preserveAspectRatio="xMidYMid meet">
<metadata>
Created by potrace 1.10, written by Peter Selinger 2001-2011
</metadata>
<g transform="translate(0.000000,1350.000000) scale(0.100000,-0.100000)"
fill="#000000" stroke="none">
<path d="M4734 12775 c-4 -10 0 -30 10 -45 9 -16 16 -33 16 -39 0 -5 15 -36
34 -68 36 -60 90 -120 190 -210 91 -82 44 -78 -79 7 -48 33 -65 47 -165 140
-68 64 -138 113 -205 145 -72 34 -236 68 -268 56 -21 -8 -21 -9 8 -16 17 -3
37 -10 45 -16 8 -5 22 -12 30 -15 46 -19 113 -55 165 -89 37 -23 206 -167 226
-191 13 -16 12 -17 -11 -12 -14 3 -50 13 -80 23 -103 31 -245 54 -331 55 -120
0 -287 -32 -419 -82 -223 -84 -451 -303 -561 -538 -24 -50 -76 -181 -82 -205
-3 -11 -22 -65 -42 -120 -107 -297 -181 -371 -480 -482 -75 -28 -146 -61 -215
-101 -84 -49 -112 -62 -121 -56 -11 6 43 62 106 110 41 32 223 124 247 125 7
0 33 11 58 24 25 13 55 29 68 34 12 6 22 16 22 22 0 11 -15 10 -115 -10 -27
-5 -99 -17 -160 -26 -139 -21 -254 -53 -305 -85 -8 -6 -25 -14 -37 -20 -13 -5
-23 -15 -23 -21 0 -12 27 -9 116 12 28 7 59 9 69 6 15 -6 10 -14 -29 -48 -25
-22 -64 -69 -87 -104 -33 -52 -51 -68 -95 -89 -30 -14 -56 -26 -59 -26 -2 0
-30 -18 -62 -39 -101 -68 -194 -178 -242 -286 -21 -47 -51 -166 -51 -203 0
-43 -27 -157 -48 -202 -41 -88 -117 -147 -213 -165 -43 -8 -114 19 -154 59
-22 22 -25 23 -25 7 0 -51 69 -123 137 -142 56 -15 131 -7 182 19 47 25 51 26
51 13 0 -14 -111 -121 -142 -137 -15 -8 -28 -21 -28 -29 0 -36 147 31 200 92
80 90 100 140 145 358 30 147 77 275 129 350 55 78 177 187 193 172 2 -2 -18
-33 -45 -68 -98 -131 -168 -273 -217 -444 -10 -33 -22 -71 -28 -85 -5 -14 -13
-41 -18 -60 -4 -19 -24 -80 -44 -135 -20 -55 -40 -111 -44 -125 -15 -46 -102
-204 -144 -260 -76 -104 -212 -228 -303 -276 -99 -53 -204 -71 -204 -36 0 24
90 109 203 192 48 35 87 68 87 72 0 14 -27 9 -40 -7 -7 -8 -21 -15 -31 -15
-10 0 -21 -5 -24 -11 -4 -5 -17 -15 -28 -20 -64 -29 -163 -106 -193 -151 -11
-16 -28 -28 -40 -28 -21 0 -57 33 -67 63 -4 9 -11 17 -17 17 -17 0 -11 -55 10
-101 25 -56 25 -66 -2 -80 -26 -14 -120 4 -138 27 -17 19 -30 18 -30 -4 0 -27
63 -88 118 -113 41 -19 64 -22 187 -22 107 -1 151 3 185 16 53 20 110 23 93 6
-12 -12 -20 -17 -138 -78 -118 -62 -151 -83 -240 -151 -151 -115 -224 -150
-316 -150 -68 0 -109 23 -130 71 -14 35 -29 29 -29 -12 0 -51 58 -127 124
-161 49 -25 164 -34 235 -19 30 6 57 9 60 6 7 -7 -23 -62 -94 -170 -69 -105
-117 -159 -189 -212 -51 -38 -65 -43 -110 -43 -58 0 -59 1 -104 53 -29 34 -32
35 -32 15 1 -13 11 -43 23 -68 40 -81 137 -112 223 -72 45 20 96 52 106 66 4
6 10 7 14 3 4 -4 -4 -35 -19 -69 -59 -145 -85 -246 -96 -378 -10 -127 7 -295
36 -354 l20 -38 7 112 c9 156 30 243 131 550 69 211 112 312 197 462 66 117
252 307 276 283 4 -4 0 -12 -8 -18 -38 -30 -160 -184 -205 -259 -73 -121 -141
-297 -175 -448 -5 -19 -18 -78 -30 -130 -12 -52 -26 -114 -31 -138 -5 -24 -11
-47 -13 -51 -3 -4 -12 -57 -21 -117 -20 -130 -20 -271 -2 -374 15 -78 60 -204
83 -231 8 -8 14 -19 14 -23 0 -11 60 -87 85 -108 33 -27 34 -12 5 64 -87 223
-72 479 43 713 52 107 88 124 67 33 -29 -127 0 -412 56 -546 8 -18 14 -41 14
-51 0 -10 6 -24 14 -30 7 -6 16 -25 20 -42 3 -17 10 -28 16 -24 15 9 12 48 -5
81 -16 31 -21 129 -6 138 10 7 21 -27 21 -69 0 -16 7 -41 15 -55 8 -14 14 -43
15 -65 0 -23 5 -46 11 -52 5 -5 13 -31 17 -57 4 -26 11 -48 16 -49 12 -3 33
94 46 208 5 50 14 114 20 144 5 29 10 77 10 105 0 71 15 91 29 40 37 -142 39
-201 11 -335 -44 -208 -121 -333 -260 -423 -96 -62 -146 -76 -271 -76 -97 0
-111 3 -163 29 -31 15 -59 24 -62 19 -8 -12 69 -110 109 -141 58 -43 149 -79
212 -84 59 -5 170 16 255 49 79 29 208 114 270 177 59 59 84 96 140 210 16 31
17 32 23 12 5 -22 -20 -136 -45 -201 -24 -62 -76 -145 -129 -203 -59 -65 -172
-152 -218 -168 -17 -6 -28 -15 -25 -20 12 -20 81 -5 174 39 121 59 232 174
285 298 30 70 55 194 55 274 0 80 14 114 26 63 3 -15 12 -47 20 -71 40 -124
-13 -334 -123 -484 -50 -69 -144 -150 -210 -183 -132 -64 -239 -71 -340 -22
-49 23 -38 -16 19 -69 86 -82 224 -126 382 -123 67 1 101 -2 104 -10 5 -14
-46 -79 -113 -146 -76 -77 -234 -193 -279 -205 -11 -3 -22 -12 -24 -19 -8 -25
96 -1 278 64 19 7 123 41 230 75 107 34 212 68 233 76 77 29 124 48 185 76
120 54 123 30 7 -58 -107 -82 -203 -124 -492 -221 -112 -37 -203 -70 -203 -74
0 -25 180 -33 500 -21 195 7 277 14 310 26 25 9 54 16 65 16 12 0 26 5 33 12
24 24 22 -1 -3 -30 -35 -42 -136 -92 -228 -113 -116 -26 -117 -35 -5 -55 196
-35 548 3 763 83 60 22 108 45 127 61 9 8 22 11 29 7 16 -10 -61 -81 -120
-111 -59 -29 -127 -54 -171 -63 -78 -15 -24 -26 137 -29 164 -3 256 8 348 39
17 6 45 15 64 19 19 5 79 32 134 60 55 28 101 49 103 47 2 -1 -16 -27 -40 -57
-78 -101 -162 -148 -322 -184 -92 -21 -369 -22 -480 -2 -160 28 -252 39 -305
34 -121 -10 -229 -95 -384 -299 -134 -179 -143 -188 -235 -259 -89 -68 -175
-122 -308 -191 -53 -28 -128 -70 -167 -93 -38 -24 -77 -46 -85 -50 -66 -31
-309 -207 -470 -340 -82 -68 -444 -423 -546 -536 -131 -146 -305 -364 -341
-428 -10 -17 -13 -266 -13 -1152 l0 -1130 3005 0 c1653 0 3005 3 3005 8 0 4
-18 38 -40 76 -22 37 -40 70 -40 71 0 2 -26 48 -58 102 -32 54 -61 105 -65
113 -4 8 -16 29 -27 45 -11 17 -23 37 -27 45 -4 8 -26 47 -50 86 -43 72 -51
94 -33 94 15 0 290 -278 355 -360 33 -41 65 -80 70 -86 6 -6 31 -39 55 -73 75
-105 90 -121 116 -121 19 0 24 5 24 26 0 14 -6 38 -14 52 -8 15 -31 61 -51
102 -37 78 -42 87 -87 158 -16 24 -28 45 -28 48 0 12 -154 206 -232 294 -46
52 -145 151 -219 219 -232 216 -439 434 -439 464 0 3 46 -25 103 -62 56 -38
125 -81 152 -96 28 -14 66 -36 85 -47 19 -11 91 -50 159 -85 255 -131 426
-268 560 -448 67 -89 94 -132 105 -168 7 -23 26 -13 26 14 0 33 -38 133 -81
216 -109 208 -274 362 -636 597 -269 175 -397 290 -561 501 -5 6 -11 17 -15
25 -4 8 -16 29 -26 45 -43 66 -16 51 82 -48 96 -97 195 -178 312 -257 49 -32
226 -139 255 -153 8 -4 42 -23 75 -42 33 -18 80 -44 105 -56 25 -13 67 -35 93
-51 26 -15 54 -28 62 -28 7 0 15 -5 17 -11 2 -6 11 -10 20 -8 17 4 -27 39
-272 216 -124 90 -281 225 -365 314 -89 95 -145 162 -145 177 0 6 -5 12 -12
12 -6 0 -9 3 -6 6 8 7 44 -12 91 -49 48 -37 263 -147 288 -147 30 0 22 14 -27
49 -25 18 -87 68 -137 110 -51 42 -105 86 -120 98 -27 21 -86 72 -211 182
-189 165 -345 415 -412 655 -22 79 -54 285 -54 350 0 72 28 262 43 296 10 20
13 -23 18 -215 6 -236 15 -312 52 -445 18 -60 42 -131 56 -158 4 -9 23 -48 42
-87 52 -108 152 -247 252 -350 62 -64 64 -40 4 48 -24 34 -46 69 -50 77 -4 8
-16 29 -27 45 -44 70 -132 267 -160 360 -42 143 -49 179 -75 360 -3 22 -1 60
3 85 l9 45 7 -40 c4 -22 13 -63 21 -91 8 -28 15 -58 15 -66 0 -16 19 -83 47
-168 58 -176 186 -385 331 -538 59 -63 173 -153 184 -146 5 3 -11 31 -36 62
-110 144 -214 357 -269 552 -32 111 -38 141 -52 257 -26 211 -11 528 29 585
15 21 16 19 16 -42 0 -154 33 -430 67 -560 40 -153 50 -185 106 -320 83 -200
227 -420 367 -562 88 -88 261 -215 397 -289 26 -15 64 -36 83 -47 44 -26 61
-35 185 -101 103 -55 216 -121 225 -130 12 -14 53 -32 58 -26 13 12 -152 161
-285 257 -341 248 -445 336 -527 443 -41 55 -33 70 17 33 18 -14 77 -46 132
-73 55 -26 126 -61 159 -77 32 -16 63 -25 67 -21 5 5 -31 39 -79 75 -236 180
-386 319 -497 458 -57 72 -115 153 -129 181 -3 8 -15 28 -26 44 -77 120 -139
289 -194 527 -23 96 -22 396 0 498 25 112 50 194 61 197 6 2 12 -48 16 -124 6
-135 19 -235 42 -318 25 -92 78 -260 90 -285 107 -222 135 -275 223 -410 69
-105 183 -250 198 -250 4 0 13 -8 20 -17 9 -12 13 -13 14 -5 0 7 -9 22 -20 34
-27 29 -140 219 -177 298 -29 60 -45 100 -78 190 -15 39 -39 152 -55 251 -13
85 -13 295 0 320 17 31 28 22 35 -28 23 -191 78 -366 182 -579 68 -140 123
-223 243 -364 81 -96 132 -145 257 -250 12 -11 37 -27 55 -36 32 -17 33 -17
18 2 -8 10 -45 53 -81 94 -59 67 -89 108 -189 255 -39 56 -80 137 -119 230
-18 44 -39 95 -47 113 -8 18 -14 41 -14 52 0 31 17 32 29 2 6 -15 16 -36 23
-47 7 -11 25 -39 41 -63 15 -24 27 -45 27 -48 0 -17 182 -243 247 -305 82 -80
183 -159 201 -159 5 0 12 -6 15 -12 2 -7 7 -11 10 -8 3 3 -21 35 -54 70 -93
100 -201 229 -244 293 -93 137 -127 195 -191 332 -18 39 -74 215 -74 233 0 8
-7 45 -17 83 -12 51 -14 77 -6 101 l10 33 7 -40 c3 -22 11 -53 17 -70 6 -16
15 -48 20 -70 6 -22 14 -44 20 -49 5 -6 9 -18 9 -29 0 -26 85 -199 138 -282
124 -192 288 -360 442 -452 100 -60 170 -88 170 -68 0 3 -19 25 -43 48 -66 65
-169 205 -206 282 -60 126 -81 210 -81 325 0 104 6 134 54 267 38 104 155 288
172 270 3 -3 -7 -47 -22 -98 -26 -87 -28 -107 -28 -284 -1 -195 5 -239 51
-360 23 -60 79 -168 120 -233 40 -61 222 -252 241 -252 7 0 12 -4 12 -10 0 -5
8 -10 18 -10 16 1 16 1 0 14 -10 7 -18 17 -18 21 0 4 -6 13 -14 19 -22 18
-146 175 -183 234 -40 62 -133 245 -133 261 0 6 -6 25 -14 43 -48 112 -61 341
-27 478 10 41 26 97 35 124 18 54 102 186 117 186 12 0 11 -37 -2 -61 -32 -60
-69 -300 -53 -342 10 -28 23 -20 34 24 6 23 14 38 18 34 4 -4 10 -79 13 -168
9 -245 43 -360 157 -537 81 -124 273 -303 298 -278 3 3 -3 23 -12 44 -55 125
-71 184 -89 338 -22 184 -5 351 53 516 18 53 29 68 134 182 78 85 161 204 180
260 22 63 44 13 29 -67 -17 -90 -68 -207 -119 -274 -38 -49 -64 -91 -56 -91
18 0 111 80 167 143 61 70 147 200 162 246 11 37 28 8 23 -41 -5 -46 -23 -122
-43 -178 -31 -88 -64 -222 -87 -350 -35 -199 1 -486 94 -750 19 -52 95 -213
121 -255 41 -66 155 -211 206 -262 57 -59 160 -142 191 -156 8 -4 29 -16 45
-26 17 -11 66 -38 110 -61 177 -91 246 -141 341 -242 92 -98 167 -260 194
-418 5 -30 14 -82 19 -115 6 -33 11 -84 11 -114 0 -92 -43 -346 -76 -451 -8
-25 -14 -53 -14 -62 0 -10 -6 -32 -14 -50 -8 -18 -28 -78 -46 -133 -18 -55
-39 -112 -46 -127 -8 -15 -14 -34 -14 -43 0 -21 26 -19 34 3 3 9 23 44 44 77
38 59 95 193 107 249 4 20 9 26 17 18 11 -11 5 -408 -8 -490 l-6 -42 430 0
c237 0 433 4 436 9 3 4 -3 24 -13 44 -10 20 -21 44 -24 54 -3 10 -15 43 -27
73 -63 162 -79 283 -90 670 -5 179 -14 357 -19 395 -6 39 -11 93 -11 120 0 74
-37 260 -77 393 -34 111 17 64 90 -83 80 -160 101 -231 118 -405 9 -95 9 -150
0 -228 -17 -159 -15 -463 5 -531 21 -74 70 -175 113 -233 60 -82 64 -64 15 72
-25 71 -27 85 -28 260 -1 153 2 196 18 250 89 312 106 400 106 563 0 214 -50
414 -162 642 -16 33 -38 74 -48 90 -11 17 -23 37 -27 45 -4 8 -26 42 -50 76
-24 34 -43 67 -43 73 0 6 -4 11 -10 11 -5 0 -10 7 -10 16 0 23 83 -40 145
-111 255 -293 347 -629 269 -985 -36 -164 -38 -180 -25 -180 6 0 14 8 17 18 3
9 11 31 18 47 87 199 116 403 86 600 -38 254 -155 464 -364 657 -214 199 -299
290 -332 358 -32 67 -60 157 -52 165 2 3 26 -25 52 -60 123 -167 322 -285 481
-285 56 0 88 13 60 24 -9 3 -26 6 -38 6 -67 0 -224 115 -311 229 -70 91 -145
259 -150 332 -2 40 -21 55 -107 83 -114 37 -194 77 -274 139 -75 57 -161 155
-197 225 -13 24 -31 58 -40 75 -15 29 -40 102 -68 202 -21 78 -24 226 -5 327
9 51 23 111 30 133 8 22 17 53 20 70 6 27 8 28 17 11 8 -14 8 -50 -1 -127 -35
-323 67 -640 269 -838 85 -84 219 -171 262 -171 26 0 23 6 -27 63 -25 29 -45
55 -45 59 0 4 -12 24 -26 45 -38 57 -94 180 -94 209 0 35 14 23 45 -39 33 -68
39 -78 107 -167 82 -107 95 -121 168 -176 72 -54 98 -71 120 -80 8 -3 29 -11
46 -19 17 -7 66 -16 110 -20 93 -8 120 -17 197 -68 72 -48 232 -124 300 -143
69 -19 222 -44 272 -44 l40 0 -25 20 c-14 11 -34 22 -45 26 -47 14 -119 54
-180 98 -118 87 -222 236 -270 386 -10 30 -23 73 -30 95 -7 22 -16 80 -20 129
-6 79 -5 88 9 77 8 -7 18 -34 21 -59 29 -237 229 -510 445 -607 42 -19 194
-47 381 -71 102 -12 156 -14 215 -8 l78 9 -27 18 c-15 10 -46 22 -70 26 -78
16 -153 48 -232 97 -62 39 -115 87 -115 104 0 10 5 9 18 -3 10 -10 22 -17 27
-17 5 0 16 -6 24 -13 34 -29 227 -97 273 -97 6 0 -11 17 -37 38 -137 106 -198
176 -258 296 -40 81 -23 88 44 19 72 -75 141 -128 203 -158 39 -18 62 -39 94
-84 58 -83 210 -197 352 -263 119 -56 223 -82 244 -61 3 4 -17 18 -46 32 -274
133 -438 386 -438 675 0 52 4 97 9 100 5 3 21 -13 37 -35 63 -92 225 -209 288
-209 35 0 33 10 -9 43 -19 15 -35 32 -35 37 0 13 33 13 47 -1 17 -17 172 -48
238 -48 69 0 213 29 217 44 2 6 -28 13 -67 17 -262 24 -497 229 -589 513 -26
81 -19 299 8 229 3 -9 6 -30 6 -48 0 -88 95 -277 197 -393 38 -43 145 -123
200 -148 69 -33 185 -64 238 -65 77 0 113 22 55 33 -16 4 -64 23 -106 42 -230
108 -393 405 -394 718 0 92 28 209 41 167 4 -14 7 -55 8 -93 2 -142 84 -361
172 -461 50 -57 157 -139 170 -131 5 3 -12 32 -38 63 -54 67 -107 174 -133
275 -25 94 -28 287 -5 287 8 0 15 -3 15 -7 1 -5 26 -35 56 -68 159 -173 274
-418 274 -587 0 -74 13 -109 27 -71 3 10 18 34 33 53 50 67 77 139 96 259 23
146 1 266 -85 466 -33 77 -39 94 -51 157 -23 116 8 243 117 478 17 36 45 95
61 131 61 130 101 273 103 362 1 29 4 63 8 77 7 24 7 24 14 -9 22 -106 -1
-300 -51 -436 -25 -67 -62 -156 -73 -177 -24 -45 -74 -200 -94 -290 -17 -77
-13 -157 6 -127 5 8 9 22 9 32 0 28 80 145 149 217 289 302 409 657 341 1005
-53 276 -149 450 -315 571 -51 37 -65 45 -155 90 -120 61 -189 104 -247 157
-61 57 -178 209 -214 280 -58 116 -55 112 -61 89 -3 -11 1 -42 9 -69 7 -26 21
-73 30 -103 14 -48 96 -227 123 -270 164 -261 253 -465 280 -638 6 -34 14 -81
20 -105 11 -49 11 -161 0 -197 -6 -23 -8 -22 -14 15 -13 75 -40 170 -93 320
-20 59 -121 264 -152 310 -15 22 -30 47 -34 55 -4 8 -15 27 -25 42 -155 240
-223 398 -253 588 -23 143 -12 350 27 486 8 28 14 62 14 76 0 13 6 44 14 69
47 150 47 399 0 534 -8 23 -14 46 -14 52 0 22 -71 163 -82 163 -11 0 -7 -38
11 -105 27 -104 21 -406 -8 -424 -5 -4 -15 -18 -20 -31 -8 -19 -9 -7 -5 48 15
170 -47 496 -122 645 -8 16 -14 33 -14 39 0 10 -51 114 -87 178 -64 114 -113
209 -113 221 1 11 3 11 13 -1 7 -8 80 -76 162 -151 83 -75 168 -156 190 -180
44 -48 144 -178 191 -250 83 -124 150 -332 114 -354 -5 -3 -12 7 -16 22 -4 15
-13 39 -20 53 -7 14 -22 46 -34 73 -12 26 -25 47 -29 47 -5 0 -13 10 -20 23
-11 22 -11 22 -5 -3 32 -133 37 -337 15 -615 -20 -253 -5 -415 51 -565 51
-135 152 -272 268 -360 52 -41 59 -45 165 -100 99 -52 196 -116 257 -170 52
-45 141 -160 182 -234 95 -171 148 -474 115 -661 -5 -33 -14 -82 -19 -110 -22
-125 -80 -276 -159 -410 -41 -70 -119 -179 -132 -183 -13 -5 -11 -32 2 -32 18
0 163 152 209 220 95 139 161 310 175 453 9 79 28 89 66 32 27 -41 111 -100
152 -107 35 -7 34 4 -5 49 -35 40 -54 69 -64 93 -3 8 -12 29 -19 45 -21 47
-43 132 -60 230 -9 50 -21 116 -27 148 -12 61 -5 86 12 46 35 -82 159 -229
232 -275 40 -26 87 -34 58 -11 -50 40 -102 132 -184 325 -31 73 -66 147 -76
165 -11 18 -23 39 -27 47 -33 75 -210 236 -345 315 -56 33 -107 74 -99 79 5 4
16 -1 24 -9 9 -8 22 -15 29 -15 8 0 18 -4 24 -9 5 -5 50 -26 99 -47 87 -36 94
-37 215 -37 113 0 130 3 181 26 31 14 71 40 90 57 l34 32 -30 -8 c-16 -4 -88
-8 -160 -8 -124 -1 -215 14 -274 44 -9 5 -52 23 -96 40 -217 88 -310 146 -431
269 -31 31 -80 111 -69 111 3 0 38 -32 78 -71 92 -91 166 -148 242 -187 108
-54 153 -64 277 -60 100 3 120 7 171 32 32 15 80 50 107 76 53 54 110 162 110
210 0 34 -17 40 -28 11 -10 -29 -78 -98 -120 -124 -188 -117 -398 -17 -547
258 -21 39 -41 75 -45 80 -4 6 -10 19 -12 30 -3 11 -9 28 -13 38 -6 15 0 17
70 17 62 0 89 5 129 24 68 33 146 118 146 161 0 22 -7 19 -48 -21 -56 -55
-114 -77 -202 -77 -57 0 -85 5 -115 20 -65 34 -131 117 -149 186 -10 41 -26
32 -26 -15 0 -68 61 -294 101 -370 24 -46 5 -46 -31 -1 -112 142 -145 270
-153 603 -5 170 -10 231 -26 292 -11 43 -25 86 -31 97 -14 27 7 39 26 15 34
-44 84 -137 100 -186 9 -29 23 -70 31 -91 7 -20 13 -51 13 -68 0 -67 51 -250
81 -287 25 -32 35 -30 31 7 -4 38 10 40 54 6 100 -76 245 -47 294 60 21 45 26
100 11 109 -4 3 -13 -6 -19 -19 -16 -34 -89 -85 -124 -85 -40 0 -99 32 -137
76 -48 55 -69 107 -116 294 -20 81 -73 220 -91 241 -8 8 -14 19 -14 24 0 15
-110 142 -179 207 -57 53 -72 75 -85 118 -21 69 -73 161 -141 248 -30 39 -55
73 -55 76 0 12 21 5 62 -22 24 -16 59 -38 78 -48 106 -58 256 -190 341 -302
57 -76 78 -81 47 -12 -64 146 -154 258 -287 360 -63 47 -372 240 -386 240 -16
0 -206 140 -263 194 -48 45 -129 152 -158 206 -41 78 -76 192 -99 325 -36 204
-55 271 -109 385 -92 195 -243 330 -481 432 -46 19 -127 40 -235 59 -98 18
-139 20 -280 15 -91 -3 -181 -9 -200 -12 l-35 -7 31 27 c18 14 36 26 42 26 5
0 35 11 67 26 112 49 251 89 369 106 89 13 118 30 74 44 -13 4 -86 7 -163 7
-137 0 -252 -19 -314 -52 -26 -14 -31 -14 -31 4 0 8 4 15 9 15 5 0 11 8 15 18
3 9 14 31 25 47 11 17 20 40 20 52 1 21 -6 18 -61 -28 -35 -28 -74 -55 -88
-61 -153 -64 -295 -92 -421 -83 -90 6 -171 24 -170 38 0 5 19 18 42 31 24 12
45 28 47 35 5 15 -23 12 -112 -9 -38 -10 -61 -10 -105 0 -31 7 -73 15 -94 19
-21 3 -39 11 -40 16 -1 6 18 20 42 32 25 13 47 27 50 31 3 5 15 14 26 21 18
11 17 11 -10 6 -16 -4 -71 -9 -122 -12 -76 -4 -102 -1 -150 15 -83 29 -184 82
-177 93 3 5 35 9 70 9 77 0 85 21 13 31 -24 4 -62 12 -84 18 -23 6 -126 11
-247 11 -129 0 -208 4 -208 10 0 5 12 12 28 16 15 3 45 12 67 19 22 8 67 17
100 20 105 11 126 16 123 32 -5 28 -130 52 -268 52 -118 1 -164 -6 -285 -44
-16 -5 -27 3 -51 38 -55 78 -144 127 -228 127 -44 0 -148 -31 -173 -51 -11
-10 -21 -4 -48 29 -59 68 -139 79 -231 30 l-43 -23 -38 36 c-44 40 -102 69
-141 69 -46 0 -120 -32 -164 -72 -23 -21 -45 -38 -49 -38 -4 0 -29 11 -56 24
-184 92 -369 136 -565 136 -75 0 -117 -5 -144 -16 -34 -15 -37 -18 -19 -25 11
-4 35 -8 52 -8 18 -1 50 -7 70 -15 21 -7 65 -21 98 -31 33 -10 71 -24 85 -31
14 -7 33 -15 43 -18 50 -16 -8 -23 -150 -20 -224 6 -311 21 -405 70 -15 8 -29
10 -32 5 -6 -10 38 -51 97 -91 20 -14 37 -28 37 -32 0 -14 -127 -9 -187 7 -70
18 -117 39 -160 71 -67 50 -73 19 -8 -43 25 -23 45 -45 45 -48 0 -11 -87 -5
-155 11 -303 70 -519 182 -612 317 -26 39 -34 46 -39 32z m2528 -429 c-41 -87
-51 -166 -21 -166 8 0 10 -37 8 -122 -3 -89 -1 -122 8 -125 7 -3 15 8 18 24 9
37 70 184 104 247 24 44 87 103 98 92 2 -2 -1 -23 -6 -47 -39 -173 -52 -299
-31 -299 5 0 12 12 15 28 3 15 12 41 19 57 19 44 37 95 46 134 5 19 13 37 18
40 5 3 14 20 20 36 l10 30 1 -27 c1 -15 -3 -30 -9 -33 -5 -3 -10 -20 -10 -37
0 -30 -21 -103 -47 -165 -7 -17 -13 -36 -13 -43 0 -7 -6 -33 -14 -59 -48 -155
-49 -162 -38 -173 8 -8 13 -7 17 5 8 26 14 41 24 57 4 8 16 31 26 50 34 66 89
143 93 131 2 -7 0 -23 -6 -34 -5 -12 -19 -51 -31 -87 -21 -68 -36 -109 -71
-200 -12 -30 -25 -69 -30 -86 -4 -18 -10 -37 -14 -43 -9 -14 -35 -103 -45
-156 -5 -22 -13 -60 -19 -85 -6 -25 -19 -81 -28 -125 -9 -44 -22 -108 -30
-142 -8 -34 -14 -74 -14 -88 0 -14 -7 -54 -15 -88 -8 -34 -24 -105 -36 -157
-16 -66 -22 -123 -21 -185 1 -77 -1 -85 -10 -55 -5 19 -12 42 -15 50 -6 22
-23 -8 -23 -43 0 -16 -6 -41 -14 -55 -13 -26 -29 -93 -61 -257 -17 -87 -32
-395 -21 -438 9 -38 24 -33 31 11 4 20 13 55 21 77 8 23 14 50 14 62 0 12 6
28 13 35 8 7 18 31 23 53 l8 40 4 -40 c2 -22 -1 -41 -7 -43 -6 -2 -11 -25 -11
-52 0 -26 -7 -64 -15 -83 -9 -22 -15 -66 -15 -109 1 -66 2 -71 15 -54 8 11 15
35 15 53 0 19 7 50 15 70 8 19 15 47 15 62 1 14 7 37 15 51 8 14 14 37 15 52
0 35 10 59 21 52 14 -8 10 -76 -6 -108 -8 -15 -15 -48 -15 -71 0 -24 -5 -56
-11 -72 -12 -31 -28 -141 -34 -243 -4 -61 -4 -63 8 -30 7 19 16 41 21 48 4 7
10 41 13 75 2 34 11 79 19 100 8 20 14 53 14 71 0 41 8 66 23 66 10 0 7 -60
-12 -250 -5 -47 -6 -89 -1 -93 12 -13 47 72 53 126 3 27 10 54 16 60 17 17 14
-107 -4 -150 -8 -19 -15 -46 -15 -59 0 -12 -4 -25 -9 -28 -17 -11 -50 -85 -41
-91 6 -4 13 2 17 12 7 18 15 30 43 60 16 18 36 49 45 73 4 8 13 29 20 45 8 17
15 41 17 55 4 34 22 32 26 -4 4 -34 -10 -70 -89 -231 -60 -122 -65 -135 -51
-135 8 0 92 110 126 164 10 17 25 35 32 39 8 4 14 16 14 25 0 9 4 24 10 32 18
29 22 -17 5 -57 -10 -21 -28 -60 -40 -88 -12 -27 -28 -61 -34 -75 -17 -39 -34
-62 -63 -89 -32 -29 -35 -41 -12 -41 23 0 103 52 104 68 0 14 16 16 25 2 3 -5
20 -10 37 -10 26 0 29 -2 18 -15 -7 -8 -16 -15 -20 -15 -13 0 -120 -72 -120
-81 0 -14 47 -10 87 6 38 16 75 19 87 8 3 -4 -19 -20 -51 -36 -95 -47 -113
-58 -113 -68 0 -14 41 -10 70 6 28 16 210 21 210 6 0 -14 -28 -21 -84 -21 -30
0 -60 -6 -72 -15 -10 -8 -26 -15 -34 -15 -20 -1 -76 -47 -67 -56 3 -4 17 0 29
8 39 26 228 50 228 29 0 -6 20 -11 49 -11 34 0 51 -4 55 -15 3 -8 13 -15 23
-15 25 0 72 -45 131 -128 42 -60 22 -73 -23 -14 -27 34 -92 99 -129 130 -8 6
-25 12 -38 12 -13 0 -36 7 -52 15 -36 19 -77 19 -102 0 -10 -8 -32 -15 -49
-15 -16 0 -37 -4 -45 -10 -27 -17 19 -24 76 -12 124 26 269 -68 350 -226 14
-28 -9 -25 -29 3 -32 45 -139 155 -150 155 -6 0 -18 7 -28 16 -11 10 -25 13
-38 9 -24 -7 -19 -25 7 -25 9 0 29 -13 43 -28 41 -42 109 -126 109 -134 0 -14
-21 -8 -43 12 -24 23 -78 52 -84 46 -2 -2 18 -30 44 -62 75 -90 137 -184 172
-258 38 -81 31 -105 -11 -40 -39 57 -139 164 -156 164 -6 0 -12 5 -12 10 0 6
-8 10 -17 10 -16 -1 -16 -2 -3 -13 24 -19 75 -88 99 -132 12 -22 27 -48 34
-57 6 -9 8 -20 4 -24 -4 -5 -30 17 -57 46 -26 30 -52 52 -56 47 -4 -4 0 -15 9
-25 10 -10 17 -24 17 -30 0 -7 4 -12 10 -12 14 0 72 -129 67 -148 -4 -14 -6
-13 -12 6 -8 23 -20 28 -30 12 -5 -9 11 -42 82 -165 12 -22 25 -47 29 -55 3
-8 10 -25 16 -36 6 -12 7 -35 4 -50 -4 -19 0 -43 13 -70 21 -43 38 -89 71
-189 41 -125 47 -144 94 -332 30 -118 21 -245 -30 -417 -17 -60 -18 -153 -1
-186 12 -22 18 -25 63 -22 27 2 80 -4 117 -12 38 -9 81 -16 96 -16 25 0 90
-15 226 -54 75 -21 250 -99 260 -117 4 -5 14 -9 24 -9 10 0 24 -7 31 -15 7 -8
20 -15 30 -15 10 0 23 -7 30 -15 29 -35 53 -5 68 85 14 86 39 41 41 -76 1 -58
3 -61 44 -96 23 -20 60 -50 82 -66 38 -28 101 -92 90 -92 -10 0 -50 25 -105
66 -69 51 -98 67 -110 59 -12 -8 -12 -148 1 -270 22 -218 23 -248 8 -243 -7 2
-17 18 -21 34 -4 16 -19 63 -33 104 -25 70 -27 88 -29 258 l-2 184 -35 18
c-39 21 -158 76 -209 98 -19 8 -44 19 -54 24 -29 15 -196 69 -241 79 -58 12
-132 29 -195 44 -30 8 -78 16 -107 19 -54 5 -63 -1 -63 -44 0 -9 -7 -23 -15
-30 -19 -16 -19 -37 0 -74 19 -37 14 -42 -24 -23 -28 14 -45 7 -21 -8 6 -3 10
-16 10 -28 0 -43 45 -92 112 -123 329 -153 593 -314 765 -467 149 -134 192
-175 225 -220 41 -54 44 -75 6 -35 -39 42 -217 196 -307 267 -50 39 -124 89
-261 177 -127 81 -222 128 -238 117 -10 -6 -25 1 -51 25 -38 35 -63 50 -126
78 -39 18 -42 18 -47 10 -2 -3 34 -42 78 -88 113 -115 202 -248 166 -248 -5 0
-29 28 -54 63 -50 68 -179 197 -197 197 -13 0 -15 -22 -3 -35 12 -14 52 -137
52 -160 0 -10 -7 -26 -15 -35 -14 -16 -10 -24 47 -100 96 -125 114 -150 134
-189 10 -20 25 -44 33 -54 11 -13 12 -20 3 -29 -8 -8 -13 -7 -19 8 -4 10 -12
24 -18 29 -7 6 -39 46 -72 90 -96 127 -111 142 -119 122 -10 -28 18 -105 51
-140 18 -17 35 -39 38 -47 4 -8 16 -28 27 -45 39 -59 77 -150 90 -210 5 -22
14 -58 21 -81 11 -36 6 -104 -7 -91 -3 2 -9 26 -13 53 -16 91 -67 215 -161
391 -30 57 -42 56 -54 -6 -7 -37 -79 -186 -104 -214 -14 -16 -14 -20 1 -46 9
-16 17 -43 17 -59 0 -17 4 -32 10 -34 13 -4 17 -42 5 -48 -5 -3 -11 7 -13 22
-2 14 -10 32 -18 38 -8 7 -14 20 -14 29 -1 9 -9 26 -19 38 l-19 23 -69 -68
c-78 -77 -166 -125 -282 -153 -96 -24 -121 -24 -231 1 -91 20 -170 53 -245
101 -46 30 -135 122 -135 140 0 7 -8 5 -20 -6 -18 -17 -19 -16 -26 9 -7 30
-34 35 -34 7 0 -31 -19 -35 -30 -6 -6 15 -17 33 -25 41 -8 9 -15 22 -15 30 0
8 -9 14 -20 14 -13 0 -24 10 -31 28 -10 25 -12 26 -23 10 -7 -10 -16 -18 -19
-18 -3 0 -18 22 -34 50 -25 45 -29 48 -44 34 -16 -14 -18 -13 -24 6 -4 12 -17
37 -29 55 -17 24 -26 31 -38 24 -11 -6 -20 -4 -28 6 -7 8 -19 15 -26 15 -7 0
-21 11 -30 26 -9 14 -23 23 -30 20 -20 -8 -30 20 -43 117 -12 87 -8 177 10
250 12 44 24 48 34 10 l8 -28 8 32 c10 36 27 51 33 31 3 -7 8 -35 12 -63 7
-48 7 -49 15 -20 4 17 11 42 14 58 13 61 34 19 36 -73 1 -30 4 -44 6 -30 3 14
12 33 21 44 11 11 19 43 22 82 5 64 22 92 28 44 10 -89 32 -89 32 0 0 58 12
85 24 54 3 -9 6 -37 6 -62 0 -26 7 -56 15 -66 8 -11 15 -32 15 -47 0 -36 10
-60 21 -53 12 7 11 64 -2 139 -6 34 -9 75 -7 91 l3 29 23 -35 c12 -19 22 -51
22 -70 0 -19 7 -48 15 -64 8 -15 15 -40 15 -55 0 -35 15 -59 23 -37 8 19 -2
74 -14 82 -12 7 -12 171 0 179 12 7 71 -100 78 -143 3 -19 12 -36 19 -39 8 -3
14 -13 14 -23 0 -21 17 -36 28 -25 4 3 -1 20 -11 36 -9 17 -17 42 -17 55 0 13
-7 51 -16 83 -32 114 2 117 57 5 18 -35 35 -64 39 -64 4 0 10 -9 13 -21 3 -12
10 -18 16 -14 8 4 7 15 -3 33 -28 53 -70 181 -63 188 9 9 47 -30 47 -47 0 -9
7 -22 15 -29 8 -7 15 -21 15 -32 0 -10 7 -21 15 -24 8 -4 15 -12 15 -19 0 -7
7 -15 15 -19 10 -3 15 1 15 13 0 10 -7 21 -15 25 -8 3 -15 16 -15 29 0 14 -7
30 -15 37 -8 7 -15 23 -15 35 0 12 -7 28 -15 35 -18 15 -20 63 -2 58 6 -3 13
-14 15 -26 2 -12 8 -22 13 -22 5 0 14 -10 20 -22 22 -49 40 -77 74 -114 39
-43 47 -28 13 26 -42 66 -47 75 -57 97 -5 11 -15 24 -20 28 -6 3 -11 17 -11
31 0 13 -4 24 -10 24 -5 0 -10 10 -10 23 1 21 1 21 12 2 6 -11 17 -24 25 -28
7 -4 13 -12 13 -17 0 -5 15 -25 33 -45 48 -51 57 -63 57 -73 0 -12 50 -45 57
-38 3 3 -2 8 -11 12 -9 3 -16 13 -16 20 0 8 -6 17 -14 20 -8 3 -17 16 -20 30
-4 13 -11 24 -16 24 -6 0 -10 6 -10 14 0 7 -7 19 -15 26 -8 7 -15 20 -15 30 0
10 -7 20 -15 24 -17 6 -21 56 -5 56 6 0 15 -11 20 -25 5 -14 14 -25 20 -25 5
0 10 -7 10 -15 0 -9 7 -18 15 -21 8 -4 15 -11 15 -17 0 -16 61 -77 77 -77 7 0
13 -4 13 -10 0 -5 7 -10 16 -10 12 0 10 6 -10 28 -64 68 -97 108 -102 125 -3
9 -10 17 -15 17 -5 0 -9 7 -9 15 0 9 -6 18 -14 21 -15 6 -28 42 -20 55 6 10
34 0 34 -12 0 -23 176 -169 204 -169 28 0 17 14 -53 68 -105 80 -181 166 -181
204 0 42 25 68 66 68 18 0 55 11 81 25 60 32 173 152 210 225 27 53 28 61 27
190 0 74 -1 153 -2 175 -1 22 -1 56 0 75 3 28 -1 35 -17 38 -29 6 -33 18 -23
74 10 56 5 71 -16 42 -18 -24 -34 -10 -18 16 25 40 1 48 -40 13 -20 -18 -33
-1 -19 25 9 17 6 20 -35 26 -25 3 -59 17 -77 30 -18 13 -42 27 -54 30 -11 4
-24 13 -27 21 -3 8 -16 15 -29 15 -12 0 -40 9 -62 20 -22 11 -47 20 -56 20 -9
0 -22 7 -29 15 -7 9 -21 13 -34 9 -14 -3 -30 3 -45 17 -21 20 -27 21 -55 11
-27 -11 -33 -10 -46 8 -11 14 -19 17 -30 10 -10 -6 -20 -4 -31 6 -11 10 -19
12 -24 5 -3 -6 -13 -11 -21 -11 -10 0 -14 13 -14 46 0 40 -2 45 -15 34 -8 -7
-15 -18 -15 -24 0 -7 -11 -23 -26 -36 -32 -31 -39 -21 -49 64 -10 92 -17 117
-29 113 -6 -2 -13 -40 -16 -90 -3 -48 -9 -88 -13 -90 -11 -3 -46 100 -47 138
0 42 -11 76 -21 69 -5 -3 -9 -45 -9 -95 0 -49 -4 -89 -9 -89 -12 0 -21 26 -21
62 0 27 -6 47 -39 118 -10 22 -10 19 -6 -20 18 -161 18 -172 0 -168 -10 1 -27
20 -38 41 -10 20 -22 37 -27 37 -4 0 -10 14 -14 32 -5 24 -9 29 -18 20 -9 -9
-8 -20 5 -47 31 -65 16 -106 -20 -57 -11 15 -23 37 -27 50 -11 33 -26 16 -26
-29 0 -21 -3 -39 -6 -39 -10 0 -50 46 -58 66 -4 11 -10 14 -16 8 -6 -6 -6 -21
2 -42 15 -38 9 -46 -26 -32 -22 8 -34 6 -56 -7 -27 -16 -30 -16 -48 0 -25 23
-32 21 -32 -8 0 -32 -17 -32 -53 3 l-30 27 6 -37 c5 -32 3 -38 -12 -38 -10 0
-31 18 -47 41 -27 40 -46 40 -25 0 13 -23 15 -71 3 -71 -5 0 -28 27 -52 59
-40 56 -66 78 -78 66 -3 -3 0 -5 6 -5 7 0 12 -9 12 -19 0 -11 4 -22 9 -26 14
-8 41 -65 41 -84 0 -17 -72 54 -83 83 -4 9 -10 16 -16 16 -5 0 -11 9 -14 20
-3 11 -10 20 -16 20 -16 0 -13 -10 14 -55 14 -22 29 -50 35 -62 5 -13 14 -23
20 -23 5 0 10 -9 10 -20 0 -18 -30 -30 -30 -12 0 4 -23 32 -52 62 -28 30 -57
65 -65 78 -9 12 -19 22 -24 22 -20 0 -7 -35 34 -88 23 -31 51 -72 61 -91 18
-31 18 -35 2 -46 -9 -7 -16 -17 -16 -22 0 -6 -13 -28 -28 -49 -92 -127 -122
-207 -122 -326 0 -79 3 -95 35 -162 19 -41 35 -82 35 -91 0 -9 9 -19 19 -22
11 -3 24 -18 30 -34 6 -17 17 -29 27 -29 9 0 32 -11 49 -24 22 -17 39 -23 55
-19 22 6 23 4 16 -28 -27 -123 -28 -216 -4 -266 8 -17 7 -28 -6 -47 -17 -27
-22 -66 -8 -66 5 0 14 12 20 26 7 14 17 22 22 19 13 -8 13 -55 1 -55 -10 0
-41 -56 -41 -73 0 -5 12 6 28 25 47 59 70 80 76 70 3 -5 -1 -18 -9 -28 -8 -10
-15 -27 -15 -36 0 -10 -4 -18 -9 -18 -14 0 -56 -89 -46 -97 4 -5 10 -2 12 5 3
7 13 21 23 30 10 9 19 25 21 35 5 23 23 24 27 1 4 -15 -7 -41 -45 -116 -32
-64 24 -12 75 69 35 56 57 56 67 1 7 -42 7 -43 17 -15 5 15 16 27 24 27 19 0
18 -47 -1 -84 -8 -15 -15 -37 -15 -47 0 -10 -4 -20 -9 -24 -6 -3 -20 -27 -32
-53 -13 -26 -30 -55 -38 -65 -22 -27 -3 -33 22 -7 23 26 40 51 56 87 5 11 15
24 20 28 6 3 11 14 11 24 0 10 6 24 14 31 8 6 16 23 18 37 2 15 9 28 16 31 17
5 16 -66 -3 -102 -8 -15 -15 -34 -15 -41 0 -7 -7 -18 -15 -25 -8 -7 -15 -20
-15 -30 0 -10 -7 -23 -15 -30 -8 -7 -15 -22 -15 -33 0 -20 0 -20 21 -1 30 27
69 90 69 113 0 10 6 24 14 31 8 6 16 26 18 43 2 18 8 32 13 32 17 0 17 -63 1
-87 -9 -12 -16 -37 -16 -54 0 -17 -7 -37 -15 -44 -17 -14 -20 -36 -5 -45 6 -4
13 7 16 24 4 16 12 32 20 35 8 3 14 19 14 35 0 17 6 34 14 38 8 4 16 22 18 38
1 17 8 30 13 30 17 0 17 -55 1 -80 -18 -27 -22 -95 -6 -95 5 0 12 12 16 28 10
46 14 53 24 47 5 -3 10 -26 10 -51 0 -24 4 -44 9 -44 11 0 21 25 21 50 0 24
49 82 50 59 0 -9 10 -27 21 -40 19 -22 21 -32 15 -104 -6 -90 -24 -156 -62
-233 -24 -46 -64 -89 -87 -90 -16 -1 -67 -27 -67 -34 0 -5 -8 -8 -19 -8 -10 0
-24 -7 -32 -16 -12 -14 -14 -14 -25 1 -13 17 -34 13 -34 -7 0 -19 -47 -56 -61
-48 -7 5 -25 -5 -47 -26 -19 -19 -41 -34 -48 -34 -7 0 -18 -9 -25 -21 -8 -16
-14 -18 -22 -10 -9 9 -8 17 1 31 6 11 12 28 12 37 -1 16 -2 16 -12 -2 -6 -11
-17 -24 -25 -28 -7 -4 -13 -13 -13 -20 0 -7 -12 -23 -26 -36 l-26 -25 7 50 c5
41 4 46 -7 33 -7 -8 -29 -34 -48 -57 -39 -48 -50 -52 -50 -19 0 40 -10 37 -64
-19 -64 -67 -84 -70 -50 -8 29 52 20 84 -11 38 -26 -40 -74 -82 -120 -106 -59
-31 -229 -30 -299 2 -27 12 -58 31 -69 40 -24 23 -18 54 11 58 13 2 21 9 19
15 -4 12 -28 13 -85 1 -31 -6 -38 -2 -88 50 -57 59 -77 68 -88 39 -9 -24 -31
-62 -45 -76 -6 -6 -11 -19 -11 -29 0 -10 -6 -21 -14 -24 -8 -3 -16 -18 -20
-35 -3 -16 -10 -29 -16 -29 -16 0 -12 46 5 60 8 7 15 21 15 30 0 17 28 78 40
90 3 3 16 22 28 42 l21 38 -25 49 c-34 69 -64 167 -64 210 0 20 -5 42 -11 48
-9 9 -6 19 9 40 24 34 54 104 47 111 -10 10 -88 -51 -168 -131 -85 -84 -190
-215 -227 -283 -12 -22 -30 -52 -41 -69 -19 -31 -25 -43 -34 -70 -2 -8 -9 -15
-15 -15 -15 0 -12 37 5 54 8 8 15 23 15 34 0 11 7 25 15 32 8 7 15 17 15 23 0
15 55 100 123 191 67 88 154 177 242 247 57 45 61 51 74 111 16 76 56 143 112
187 27 23 37 37 31 43 -10 10 -56 -8 -117 -45 -35 -21 -165 -118 -171 -128 -3
-5 -9 -9 -15 -9 -17 0 -9 25 17 53 33 36 20 57 -23 34 -15 -8 -53 -23 -83 -33
-30 -9 -68 -26 -85 -36 -16 -10 -44 -18 -61 -18 -17 0 -71 -20 -120 -46 -87
-45 -111 -60 -292 -184 -97 -66 -130 -75 -65 -17 74 67 158 137 164 137 3 0
37 20 75 45 38 25 130 76 204 112 74 37 160 83 190 103 52 34 79 47 183 86 23
9 57 22 75 30 18 8 39 14 46 14 7 0 34 9 59 20 50 22 53 31 62 174 2 37 10 74
16 82 10 12 -1 14 -69 14 -137 0 -404 -32 -512 -62 -19 -5 -51 -13 -70 -18
-66 -15 -194 -64 -285 -107 -25 -13 -38 -14 -46 -6 -7 7 -3 14 18 22 15 6 42
20 58 31 17 11 37 22 45 26 8 3 29 11 45 18 217 95 425 136 682 136 l173 0 20
40 c11 21 20 52 20 67 0 15 7 50 15 77 8 28 15 88 15 137 0 170 57 329 203
568 116 191 272 354 451 472 45 31 58 49 33 49 -30 0 -159 -80 -247 -154 -144
-120 -26 27 138 172 57 51 37 58 -33 11 -29 -20 -50 -28 -56 -22 -6 6 30 48
96 112 58 56 105 107 105 112 0 15 -22 10 -35 -8 -8 -11 -14 -12 -19 -5 -7 12
111 137 159 168 17 11 23 20 16 27 -11 11 -120 -38 -188 -83 -101 -68 -26 36
87 119 41 31 99 67 128 81 28 14 52 28 52 32 0 26 -133 -9 -229 -59 -49 -26
-61 -28 -61 -12 0 22 126 113 204 147 27 12 65 22 86 22 21 0 52 3 71 7 28 5
30 7 14 14 -34 13 -152 10 -182 -5 -15 -8 -48 -24 -73 -36 -25 -11 -65 -32
-88 -46 -50 -29 -69 -24 -30 9 123 104 161 118 326 120 175 3 179 20 5 27
-195 7 -188 31 10 34 60 0 102 5 102 11 0 6 -16 11 -35 13 -19 2 -39 9 -45 16
-5 7 -19 18 -30 25 -18 11 -17 12 11 7 17 -3 54 -8 83 -12 28 -4 51 -10 51
-15 0 -5 10 -9 21 -9 21 0 21 1 -5 25 -15 14 -31 25 -35 25 -5 0 -14 6 -20 14
-6 7 -25 16 -41 20 -37 7 -40 26 -4 26 30 0 122 -49 181 -96 47 -39 53 -41 53
-16 0 9 -27 46 -60 81 -33 36 -60 68 -60 73 0 13 17 9 30 -7 12 -14 30 -12 30
4 0 4 -14 21 -30 38 -19 19 -27 34 -20 38 5 3 13 -1 16 -9 8 -21 24 -20 40 2
12 16 13 15 14 -5 0 -20 43 -89 99 -163 26 -33 39 -17 19 23 -26 54 -69 168
-92 248 -18 62 -21 139 -6 139 5 0 12 -12 15 -27 12 -61 66 -214 81 -234 6 -8
14 -26 18 -41 9 -40 29 -36 23 5 -4 30 -9 47 -39 130 -6 17 -13 55 -15 82 -3
28 -9 54 -14 59 -5 6 -8 28 -8 50 l1 41 10 -47 c6 -27 14 -48 19 -48 4 0 11
-17 15 -37 4 -21 19 -65 34 -98 15 -33 30 -68 33 -77 4 -10 11 -18 17 -18 15
0 12 49 -7 100 -18 51 -24 267 -9 335 l9 40 7 -30 c4 -16 8 -64 9 -106 0 -41
7 -98 15 -125 8 -27 17 -62 20 -77 4 -15 11 -25 16 -22 6 4 10 81 10 188 0
100 3 192 6 204 14 50 24 6 25 -105 1 -64 4 -130 8 -147 l7 -30 16 33 c9 18
20 54 23 80 4 26 13 76 21 112 8 36 17 83 20 104 4 29 8 36 15 25 14 -22 10
-137 -6 -207 -9 -40 -12 -70 -6 -79 7 -14 10 -12 15 8 4 13 13 38 21 54 34 78
105 382 105 451 0 25 16 104 45 224 7 30 20 89 29 130 9 41 23 104 31 140 41
186 60 421 36 458 -9 16 -21 -54 -21 -127 0 -41 -8 -88 -42 -231 -6 -25 -14
-69 -19 -99 -4 -29 -13 -59 -19 -65 -14 -13 -9 123 8 269 22 181 72 891 72
1020 0 110 10 196 21 189 5 -3 9 -56 10 -117 1 -62 4 -137 8 -167 l7 -55 8 50
c14 95 54 334 65 385 13 63 80 187 123 231 36 36 43 40 46 25 2 -10 0 -28 -6
-40z m-2522 -50 c36 -8 110 -31 165 -51 55 -20 113 -40 128 -45 16 -5 34 -13
40 -18 7 -5 24 -12 40 -16 15 -3 27 -11 27 -16 0 -15 -61 -11 -90 5 -28 16
-80 20 -80 6 0 -5 21 -23 46 -40 70 -46 32 -49 -53 -4 -135 71 -323 192 -298
193 6 0 39 -7 75 -14z m-325 -81 c59 -20 98 -38 177 -83 85 -48 73 -69 -22
-37 -116 37 -138 42 -151 34 -10 -6 -5 -10 19 -15 17 -4 32 -10 32 -14 0 -5
12 -13 28 -19 47 -20 82 -42 82 -52 0 -12 -53 -12 -65 0 -6 5 -48 19 -95 31
-116 31 -362 34 -460 6 -192 -54 -357 -177 -515 -381 -88 -115 -115 -143 -115
-122 0 37 68 153 128 219 68 74 169 161 212 182 74 35 209 136 182 136 -6 0
-14 -4 -17 -10 -8 -12 -75 -13 -75 -1 0 12 94 73 145 93 62 26 136 47 180 52
81 9 280 -3 330 -19z m2851 -23 c-12 -11 -18 7 -10 30 l8 23 4 -23 c2 -13 1
-26 -2 -30z m-848 -202 c82 -109 153 -194 165 -199 5 -2 7 10 4 30 -6 41 -61
200 -79 228 -10 17 -10 23 0 33 10 10 14 8 18 -10 4 -12 10 -22 14 -22 10 0
62 -87 127 -212 44 -85 51 -45 27 170 l-5 47 20 -35 c29 -52 37 -76 75 -242
17 -70 22 -426 7 -478 -6 -21 -10 -15 -29 47 -12 39 -22 79 -22 90 0 39 -66
219 -89 243 -20 21 -23 22 -16 5 7 -19 13 -49 30 -165 l7 -45 -21 25 c-19 22
-85 129 -115 184 -6 12 -24 41 -40 66 -16 24 -45 74 -63 110 -19 36 -57 107
-84 159 -27 51 -49 96 -49 99 0 13 64 -56 118 -128z m-208 -7 c98 -103 174
-205 251 -338 96 -165 221 -545 180 -545 -6 0 -14 8 -17 18 -5 16 -18 48 -48
115 -16 36 -114 235 -134 273 -16 30 -32 22 -32 -17 0 -16 -4 -29 -9 -29 -4 0
-62 55 -128 123 -66 67 -154 155 -197 196 -42 40 -75 75 -73 78 12 11 170 -87
265 -164 75 -61 93 -56 49 15 -13 20 -27 44 -30 52 -4 8 -16 29 -27 45 -11 17
-23 37 -26 45 -9 19 -105 163 -114 170 -11 9 -60 77 -60 83 0 15 91 -57 150
-120z m1610 31 c0 -3 -12 -23 -27 -43 -34 -45 -47 -65 -71 -116 -17 -35 -28
-63 -63 -153 -17 -45 -10 -59 14 -27 54 73 142 167 168 181 l29 14 -26 -47
c-15 -27 -32 -55 -39 -63 -17 -21 -25 -60 -13 -60 6 0 38 24 72 53 85 74 130
107 147 107 9 0 10 -3 3 -8 -23 -15 -197 -226 -256 -309 -90 -129 -127 -185
-141 -215 -22 -52 -37 -43 -37 22 0 58 -14 80 -26 43 -3 -10 -25 -65 -49 -123
-24 -58 -46 -113 -49 -122 -10 -33 -26 -19 -26 22 0 39 12 99 46 235 51 201
104 324 195 450 86 118 149 186 149 159z m-944 -199 c28 -161 24 -655 -6 -655
-24 0 -40 192 -40 506 0 330 9 358 46 149z m-3046 75 c0 -6 -8 -14 -17 -17
-35 -14 -140 -88 -191 -137 -53 -50 -99 -113 -89 -122 3 -3 32 13 65 35 33 23
66 41 75 41 9 0 19 5 22 10 3 6 16 10 28 10 21 -1 22 -1 2 -12 -21 -12 -35
-23 -64 -48 -244 -214 -253 -223 -509 -493 -46 -48 -120 -119 -165 -159 -45
-40 -91 -80 -101 -90 -11 -10 -38 -30 -60 -45 -23 -16 -42 -31 -44 -35 -2 -5
-7 -8 -12 -8 -8 0 -188 -120 -295 -196 -106 -76 -223 -176 -270 -231 -37 -44
-55 -53 -55 -30 0 24 102 169 169 240 115 122 249 215 470 328 73 37 202 120
246 158 94 81 154 159 278 357 14 22 32 47 39 55 8 8 54 59 103 114 126 142
191 200 285 253 56 32 90 40 90 22z m4320 -87 c0 -5 -61 -71 -136 -148 -74
-77 -165 -175 -202 -217 -37 -42 -71 -73 -75 -68 -10 9 51 138 88 185 81 107
325 293 325 248z m-3600 -70 c-8 -3 -33 -13 -55 -23 -22 -10 -65 -25 -95 -35
-166 -51 -334 -133 -404 -197 -17 -16 -17 -18 -3 -18 9 0 26 4 39 9 13 5 58
17 101 27 58 13 80 15 89 6 8 -8 7 -13 -8 -18 -10 -3 -39 -15 -64 -26 -197
-87 -331 -171 -296 -184 10 -4 29 -1 44 6 35 16 206 25 252 13 50 -13 45 -36
-10 -46 -75 -13 -151 -38 -230 -75 -57 -27 -92 -53 -147 -109 -68 -69 -85 -93
-65 -93 5 0 27 12 48 28 48 34 168 92 189 92 9 0 25 5 36 11 11 5 30 9 42 6
21 -3 21 -4 2 -12 -11 -5 -22 -11 -25 -15 -3 -4 -36 -24 -75 -45 -84 -45 -190
-124 -265 -197 -54 -53 -120 -130 -120 -142 0 -3 -16 -29 -36 -56 l-36 -51 28
13 c16 6 36 17 44 23 54 40 157 82 375 151 109 34 163 63 355 189 173 113 174
96 2 -79 -71 -72 -168 -176 -217 -231 -48 -55 -95 -106 -103 -112 -14 -12 -14
-13 0 -13 19 0 42 12 127 67 36 23 69 39 74 36 9 -5 -7 -21 -263 -267 -80 -77
-129 -131 -121 -134 7 -2 23 0 34 6 44 22 173 65 210 69 38 5 54 -13 20 -23
-10 -3 -25 -9 -33 -14 -23 -14 -160 -80 -165 -80 -9 0 -152 -100 -192 -135
-162 -138 -285 -381 -319 -625 -22 -162 -20 -221 22 -628 37 -369 -6 -558
-178 -787 -37 -49 -93 -117 -125 -150 -101 -105 -197 -209 -243 -264 -123
-145 -244 -368 -293 -541 -38 -131 -47 -181 -48 -256 -1 -43 -4 -92 -8 -109
-6 -28 -8 -26 -29 36 -19 57 -22 86 -22 224 0 161 5 193 51 342 27 89 65 165
133 266 73 108 151 190 286 297 268 213 357 340 414 596 18 81 21 303 6 419
-24 175 -34 453 -22 597 11 144 35 275 53 292 5 6 9 20 9 32 0 13 5 26 10 29
6 3 10 16 10 27 0 20 -1 20 -23 -4 -35 -38 -99 -143 -141 -233 -54 -114 -64
-136 -71 -169 -5 -23 -8 -27 -16 -15 -23 37 12 170 83 313 24 49 164 247 187
266 4 3 24 28 46 55 67 85 207 229 241 248 8 4 14 12 14 17 0 22 -57 7 -141
-36 -99 -51 -202 -140 -276 -238 -25 -33 -51 -65 -57 -71 -6 -5 -17 -21 -23
-35 -9 -19 -12 -20 -12 -7 -1 9 3 25 8 35 4 9 23 48 42 87 26 53 57 93 129
166 96 96 156 138 325 224 102 52 156 86 225 144 143 119 165 164 55 111 -33
-16 -91 -38 -130 -50 -38 -12 -83 -26 -100 -32 -16 -5 -43 -13 -60 -17 -137
-35 -316 -173 -432 -333 -77 -107 -96 -100 -50 18 41 102 96 195 178 294 42
52 129 194 129 212 0 7 7 22 15 32 8 11 15 26 15 33 0 25 194 405 253 495 64
99 189 210 295 263 85 43 205 75 382 104 61 10 144 13 120 4z m3820 -23 c0 -6
-8 -14 -17 -17 -10 -4 -22 -12 -26 -20 -4 -7 -12 -13 -17 -13 -19 0 -158 -106
-379 -289 -24 -20 -59 -47 -77 -60 -19 -13 -34 -28 -34 -33 0 -4 -7 -8 -15 -8
-21 0 -20 4 27 68 63 86 156 181 218 221 75 49 85 54 170 96 41 20 86 43 100
50 30 17 50 19 50 5z m-2523 -11 c193 -47 326 -119 432 -235 79 -86 65 -101
-27 -31 -66 51 -164 107 -186 107 -21 0 -20 -14 0 -31 13 -11 60 -79 120 -176
34 -55 2 -43 -54 20 -106 119 -311 317 -357 344 -20 12 -20 12 2 13 13 0 44
-5 70 -11z m4278 -129 c129 -14 222 -38 332 -87 29 -13 62 -28 75 -33 121 -52
295 -229 344 -350 3 -8 12 -28 19 -45 37 -84 75 -209 75 -245 0 -13 6 -46 14
-74 8 -28 25 -87 36 -131 50 -182 123 -291 316 -471 174 -161 265 -255 330
-341 30 -39 54 -74 54 -77 0 -13 -17 -5 -45 21 -72 68 -193 168 -230 191 -187
121 -333 272 -397 412 -55 119 -68 156 -123 345 -9 33 -23 75 -31 93 -8 18
-14 39 -14 46 0 7 -12 40 -26 72 -120 276 -284 449 -504 532 -160 60 -293 84
-588 108 -45 4 -85 10 -87 15 -14 22 297 35 450 19z m-4253 -67 c62 -32 213
-177 202 -195 -5 -8 -11 -6 -19 5 -7 10 -17 17 -24 17 -6 0 -11 4 -11 8 0 5
-28 29 -62 55 -75 55 -118 93 -118 103 0 4 -8 13 -17 20 -29 21 -9 16 49 -13z
m2788 -1 c25 -6 25 -6 -5 -13 -16 -4 -53 -7 -81 -8 -28 0 -70 -7 -95 -15 -24
-7 -75 -23 -114 -35 -131 -41 -237 -99 -414 -230 -103 -76 -112 -80 -104 -50
4 12 54 70 112 129 88 88 120 113 190 148 93 47 173 71 271 82 66 8 194 4 240
-8z m-5070 -33 c0 -6 -12 -31 -27 -57 -43 -72 -44 -74 -108 -197 -33 -64 -66
-127 -73 -140 -19 -36 -35 -31 -29 8 10 72 75 211 135 292 71 94 102 123 102
94z m2245 -94 c49 -27 100 -67 133 -101 46 -51 64 -84 45 -84 -8 0 -69 46
-103 78 -14 12 -62 48 -107 79 -46 31 -83 60 -83 65 0 18 40 6 115 -37z m2600
-21 c20 -13 40 -15 103 -10 l77 7 -28 -26 c-15 -14 -37 -25 -47 -25 -11 0 -34
-6 -52 -14 -88 -39 -157 -70 -194 -87 -46 -21 -60 -23 -69 -9 -3 6 6 15 20 20
27 10 26 30 -1 30 -20 0 -139 -60 -210 -105 -31 -20 -58 -34 -61 -31 -8 8 97
115 155 158 122 91 251 129 307 92z m-2768 -8 c15 -7 46 -22 68 -32 63 -29
176 -117 165 -128 -6 -6 -14 -5 -23 2 -14 12 -89 53 -224 122 -40 20 -70 40
-66 44 11 10 50 7 80 -8z m4618 -134 c119 -18 252 -80 334 -155 23 -22 95
-114 118 -152 30 -50 83 -168 83 -185 0 -29 -19 -24 -31 7 -12 33 -151 171
-210 209 -131 84 -246 136 -339 154 -120 24 -171 30 -242 30 -42 0 -79 4 -82
9 -10 16 52 23 183 23 96 0 144 -5 201 -21 97 -26 148 -45 162 -59 15 -15 48
-16 48 -2 0 5 -11 12 -25 16 -14 3 -25 10 -25 14 0 5 -21 18 -47 30 -27 12
-61 27 -78 35 -16 7 -47 16 -67 20 -20 3 -38 10 -40 15 -2 5 -28 14 -58 19
l-55 10 55 -4 c30 -2 82 -8 115 -13z m-4755 -23 c109 -14 250 -65 250 -90 0
-13 -25 -11 -79 6 -97 30 -128 37 -147 33 -15 -4 -16 -6 -4 -10 36 -14 48 -20
94 -46 72 -41 94 -86 31 -62 -43 16 -49 -2 -14 -38 18 -18 29 -35 26 -39 -4
-3 -30 1 -58 10 -28 10 -104 20 -168 23 -90 5 -120 11 -136 24 -11 10 -35 21
-53 25 -48 10 -34 29 29 37 101 14 142 23 146 34 2 6 -16 24 -39 40 -63 43
-78 57 -71 67 5 8 24 7 193 -14z m3049 14 c21 -5 14 -11 -55 -44 -43 -21 -85
-38 -92 -38 -8 -1 -26 -7 -40 -14 -15 -8 -45 -22 -67 -31 -22 -10 -53 -24 -68
-32 -16 -8 -38 -14 -50 -14 -21 0 -20 2 8 28 75 69 166 110 335 151 3 0 16 -2
29 -6z m206 -148 c-22 -13 -46 -25 -53 -25 -7 0 -52 -13 -100 -29 -48 -15
-134 -43 -192 -60 -58 -18 -113 -37 -122 -42 -10 -5 -26 -9 -35 -9 -39 1 86
77 202 123 89 35 214 62 310 66 l30 1 -40 -25z m1390 -14 c175 -48 268 -100
379 -215 84 -87 128 -148 168 -234 56 -120 50 -202 -7 -89 -15 28 -33 66 -42
82 -26 50 -198 212 -286 268 -124 81 -300 162 -390 182 -15 3 -25 10 -22 15
10 16 125 11 200 -9z m-6997 -13 c-37 -68 -78 -131 -128 -198 -146 -195 -248
-364 -312 -515 -25 -60 -49 -119 -52 -130 -3 -11 -14 -51 -26 -90 -40 -137
-60 -282 -60 -437 0 -90 -4 -148 -10 -148 -12 0 -16 19 -30 137 -33 266 71
645 267 981 24 41 43 75 43 77 0 7 44 69 97 135 54 69 178 190 194 190 5 0 9
5 9 10 0 6 5 10 10 10 6 0 5 -9 -2 -22z m2132 -68 c0 -5 -15 -10 -32 -10 -25
0 -29 3 -18 10 20 13 50 13 50 0z m-2354 -73 c-94 -110 -274 -362 -299 -417
-4 -8 -16 -30 -27 -47 -65 -108 -180 -459 -180 -550 0 -17 -3 -45 -6 -63 -12
-56 -24 -11 -24 90 0 136 48 349 106 463 33 66 10 75 -33 15 -147 -209 -200
-387 -224 -752 -15 -235 -46 -445 -78 -529 -31 -78 -49 -118 -75 -162 -32 -53
-129 -186 -180 -246 -76 -89 -92 -108 -145 -179 -64 -84 -137 -198 -151 -235
-12 -32 -30 -32 -30 0 0 25 10 50 64 165 43 92 166 285 197 310 10 8 159 208
159 214 0 3 13 24 29 48 30 45 80 171 100 248 34 138 65 388 78 645 4 98 3
118 -7 108 -15 -14 -37 -70 -51 -129 -6 -23 -19 -50 -30 -60 -18 -16 -19 -16
-19 7 0 41 28 202 43 249 29 89 95 207 176 315 43 57 209 229 261 270 14 11
56 45 95 75 38 30 77 62 87 70 33 30 47 40 55 41 4 0 35 20 68 43 33 24 64 41
68 39 4 -3 -8 -24 -27 -46z m5872 -25 c74 -26 74 -32 1 -32 -35 -1 -141 -3
-236 -5 -105 -3 -174 -1 -178 5 -3 5 4 12 17 14 13 3 52 12 88 20 96 21 244
20 308 -2z m-3659 -2 c20 -5 48 -12 64 -15 63 -13 2 -34 -108 -37 -53 -2 -127
14 -126 27 0 11 70 32 110 34 13 1 40 -3 60 -9z m4911 0 c0 -13 -20 -13 -40 0
-12 8 -9 10 13 10 15 0 27 -4 27 -10z m95 -19 c3 -5 19 -13 36 -16 42 -9 160
-70 231 -118 66 -44 154 -138 183 -194 10 -21 24 -45 30 -53 11 -14 56 -122
85 -200 7 -19 15 -51 18 -70 2 -19 11 -44 18 -55 8 -11 14 -27 14 -36 0 -10 6
-30 14 -46 8 -15 29 -57 46 -93 40 -80 79 -139 170 -255 183 -234 238 -312
252 -360 4 -11 18 -51 33 -90 23 -61 27 -86 28 -195 1 -99 -3 -135 -17 -175
-32 -86 -55 -130 -74 -142 -18 -11 -19 -9 -11 30 15 76 10 315 -7 381 -29 113
-53 185 -84 248 -52 105 -76 146 -181 298 -25 36 -48 72 -52 80 -4 8 -17 31
-28 50 -19 32 -35 62 -75 143 -8 16 -14 36 -14 45 0 9 -7 26 -15 36 -8 11 -15
31 -15 45 0 14 -7 35 -15 45 -8 11 -15 28 -15 37 0 10 -6 30 -14 46 -8 15 -29
59 -47 98 -67 139 -215 306 -347 392 -67 43 -181 103 -197 103 -7 0 -18 7 -25
15 -11 13 -7 15 28 15 23 0 43 -4 47 -9z m-4855 -37 c0 -2 -12 -4 -26 -4 -14
0 -23 4 -20 9 6 8 46 4 46 -5z m-82 -31 c2 -9 -8 -13 -32 -13 -38 0 -49 -16
-18 -27 40 -13 102 -45 102 -53 0 -4 10 -10 22 -14 17 -4 20 -8 11 -17 -8 -8
-18 -7 -40 4 -15 8 -62 23 -103 32 -60 13 -87 14 -135 6 -33 -6 -78 -13 -100
-16 -54 -9 -174 -46 -181 -56 -3 -5 -16 -9 -29 -9 -13 0 -27 -4 -30 -10 -3 -5
-13 -10 -22 -10 -40 0 74 79 198 137 95 45 142 56 187 43 53 -14 89 -12 96 6
7 18 67 16 74 -3z m61 -22 c9 -6 10 -11 2 -15 -14 -9 -51 2 -51 15 0 11 30 12
49 0z m3525 -16 c83 -16 94 -20 82 -32 -9 -10 -323 -4 -349 7 -22 8 -22 8 3
18 66 26 154 28 264 7z m1424 -110 c223 -203 270 -258 310 -365 18 -47 41
-149 41 -180 l1 -25 -20 25 c-11 14 -29 43 -41 65 -28 53 -77 113 -172 212
-76 78 -147 167 -147 184 0 5 -13 30 -28 56 -16 26 -31 57 -34 68 -3 11 -9 29
-14 40 -9 23 -10 24 104 -80z m-5058 5 c22 -13 5 -23 -27 -16 -21 6 -24 9 -12
17 18 11 20 11 39 -1z m3878 -70 c108 -33 93 -44 -53 -37 -103 5 -125 3 -125
-8 0 -8 10 -20 23 -26 12 -7 42 -29 67 -50 25 -20 64 -47 88 -59 49 -26 142
-115 142 -137 0 -8 30 -60 66 -115 36 -55 64 -104 62 -109 -2 -5 -22 8 -44 29
-55 53 -129 104 -184 127 -35 14 -76 19 -188 20 -78 1 -145 5 -148 7 -7 8 127
38 169 38 21 0 58 -5 83 -11 78 -20 74 2 -10 59 -105 71 -126 81 -193 87 -125
12 -143 16 -143 30 0 8 16 19 35 26 19 7 35 16 35 20 0 21 -49 39 -102 39 -59
0 -73 11 -38 30 26 14 25 26 -2 33 -12 4 -19 9 -15 13 16 16 99 23 247 20 126
-3 168 -7 228 -26z m-2191 -102 c-2 -18 -4 -6 -4 27 0 33 2 48 4 33 2 -15 2
-42 0 -60z m-3887 51 c0 -11 -6 -44 -14 -72 -17 -64 -40 -194 -62 -352 -21
-146 -28 -163 -44 -109 -19 63 -24 179 -10 247 11 59 17 78 56 180 46 116 74
157 74 106z m2190 -4 c7 -8 18 -15 24 -15 18 -1 71 -48 63 -57 -5 -4 -16 -2
-25 4 -24 17 -93 50 -119 58 -13 3 -23 11 -23 16 0 15 67 10 80 -6z m5756 -42
c4 -15 13 -34 21 -41 7 -7 13 -21 13 -30 0 -9 7 -26 15 -36 8 -11 15 -26 15
-33 0 -21 -20 -15 -30 10 -6 12 -14 29 -18 37 -28 49 -42 84 -42 101 0 29 19
23 26 -8z m-5581 -63 c73 -13 129 -44 192 -109 71 -72 53 -79 -21 -9 -17 16
-35 28 -42 28 -6 0 -25 7 -40 15 -64 33 -210 10 -320 -50 -59 -33 -104 -69
-206 -164 -68 -63 -98 -83 -98 -65 0 11 62 88 119 147 88 93 208 166 296 183
22 4 37 13 41 26 4 13 11 17 22 12 10 -4 35 -10 57 -14z m4935 -87 c122 -131
168 -227 214 -440 37 -172 51 -224 83 -328 19 -60 38 -114 42 -120 4 -5 11
-19 14 -30 3 -11 13 -38 21 -60 8 -22 24 -65 36 -95 19 -52 36 -99 77 -228 12
-39 14 -55 5 -64 -8 -8 -13 -7 -18 8 -14 42 -73 155 -141 271 -40 68 -73 125
-73 128 0 2 -14 28 -31 57 -57 95 -200 372 -242 468 -30 67 -55 150 -48 155 5
2 23 -14 42 -37 19 -23 54 -63 77 -88 47 -48 46 -49 22 35 -14 50 -53 159 -76
210 -54 123 -69 157 -94 208 l-29 57 28 -20 c16 -11 57 -50 91 -87z m-6245
-134 c4 -6 -2 -13 -14 -16 -12 -3 -21 -9 -21 -13 0 -5 -9 -12 -20 -15 -12 -4
-64 -39 -118 -79 -167 -125 -277 -244 -336 -363 -21 -43 -43 -86 -48 -97 -20
-39 -38 -125 -54 -251 -8 -71 -18 -133 -21 -138 -25 -41 -31 149 -8 288 39
242 132 428 262 527 52 39 183 108 205 108 8 0 18 4 24 9 10 10 111 49 131 50
6 1 15 -4 18 -10z m1468 -42 c38 -32 37 -90 0 -129 -36 -38 -81 -38 -122 1
-39 36 -43 92 -9 128 30 32 95 32 131 0z m5457 -9 c6 -13 14 -30 19 -38 5 -8
31 -51 57 -95 26 -44 73 -114 104 -155 68 -90 173 -239 183 -260 4 -8 16 -28
26 -45 28 -42 73 -138 104 -220 39 -103 77 -311 77 -421 0 -128 -41 -379 -81
-494 -7 -19 -13 -41 -15 -47 -2 -7 -8 -13 -14 -13 -15 0 -12 44 7 130 12 57
16 127 16 290 1 184 -3 230 -21 315 -45 207 -89 307 -220 501 -132 197 -170
257 -203 324 -49 102 -82 250 -54 250 3 0 10 -10 15 -22z m-1966 -4 c38 -15
-3 -24 -104 -24 -98 0 -142 10 -108 23 19 8 193 8 212 1z m-4946 -66 c-3 -7
-45 -43 -94 -80 -97 -74 -180 -158 -252 -255 -75 -102 -86 -71 -22 60 54 112
118 174 246 238 102 50 129 58 122 37z m4865 -32 c18 -8 41 -16 51 -18 11 -2
21 -9 24 -15 5 -17 -38 -17 -63 1 -11 7 -33 16 -49 20 -23 6 -27 9 -15 17 18
11 16 11 52 -5z m-238 -46 c95 -21 187 -77 245 -149 38 -49 120 -200 120 -224
0 -10 6 -30 14 -46 9 -16 11 -33 6 -41 -6 -10 -10 -7 -15 13 -4 15 -11 27 -16
27 -5 0 -14 12 -20 27 -20 52 -122 194 -175 242 -98 89 -183 118 -326 107 -48
-3 -88 -4 -88 -2 0 3 15 12 33 22 57 30 150 40 222 24z m-2935 -62 c0 -16 -4
-28 -9 -28 -12 0 -24 56 -15 71 10 16 24 -9 24 -43z m-729 -59 c9 -35 24 -82
34 -104 20 -47 137 -165 164 -165 10 0 24 -7 31 -15 7 -8 25 -15 41 -15 16 0
47 -7 69 -16 27 -11 57 -15 88 -11 80 8 117 31 174 107 52 70 68 78 68 35 0
-27 -45 -85 -66 -85 -7 0 -18 -9 -24 -20 -10 -18 -8 -20 25 -20 30 0 35 -3 35
-24 0 -13 -7 -29 -15 -36 -8 -7 -15 -25 -15 -41 0 -26 -3 -29 -25 -23 -16 4
-34 -1 -52 -13 -40 -28 -93 -53 -112 -53 -12 1 -11 3 4 12 29 16 70 58 57 58
-25 0 -137 -52 -172 -80 l-25 -20 41 0 c34 0 43 -4 52 -25 7 -14 12 -33 12
-42 0 -28 -24 -87 -44 -107 -27 -28 -125 -76 -153 -76 -27 0 -31 18 -5 27 23
9 67 52 59 59 -3 3 -18 -1 -34 -9 -40 -21 -96 -37 -124 -36 l-24 1 25 11 c48
23 109 67 120 86 12 23 1 34 -20 20 -20 -12 -87 -12 -95 1 -3 5 10 16 30 24
67 28 112 106 70 122 -8 4 -15 14 -15 23 0 12 -15 21 -47 29 -61 17 -135 54
-185 94 -51 40 -93 105 -79 122 7 8 4 30 -10 70 -32 99 -19 132 21 54 79 -154
142 -217 255 -257 78 -28 205 -28 205 -1 0 4 -21 10 -47 13 -83 7 -162 43
-233 105 -64 56 -110 150 -110 225 0 92 26 90 51 -4z m-1011 57 c0 -3 -6 -11
-13 -18 -87 -88 -270 -384 -286 -462 -10 -44 -31 -45 -31 -2 0 62 62 223 117
306 50 73 167 180 200 180 7 0 13 -2 13 -4z m1765 -86 c4 -21 3 -49 -1 -62 -7
-22 -7 -22 -15 -3 -11 28 -11 105 0 105 5 0 12 -18 16 -40z m4231 -7 c40 -123
265 -435 407 -562 21 -19 22 -31 2 -31 -8 0 -15 4 -15 9 0 4 -18 20 -40 35
-59 39 -169 151 -231 236 -55 76 -119 193 -119 220 0 8 -7 24 -15 34 -17 23
-20 76 -5 76 6 0 13 -8 16 -17z m-4780 -51 c98 -70 259 -69 335 4 26 25 39 23
39 -7 0 -19 -65 -77 -117 -103 -47 -23 -172 -22 -221 3 -49 25 -80 60 -88 99
-8 39 1 40 52 4z m4634 -11 c0 -27 70 -161 126 -244 73 -106 103 -143 215
-261 120 -126 198 -227 235 -306 65 -135 117 -323 190 -690 27 -132 24 -550
-4 -680 -38 -175 -45 -205 -58 -220 -7 -8 -14 -26 -16 -40 -1 -14 -7 -23 -13
-20 -12 6 -11 30 3 85 6 22 18 110 28 197 25 231 9 555 -34 688 -6 19 -21 64
-32 100 -12 35 -32 87 -46 116 -13 28 -24 53 -24 57 0 3 -19 38 -43 79 -24 40
-47 80 -51 88 -22 46 -172 269 -226 335 -139 173 -175 225 -154 225 3 0 31
-22 62 -49 104 -88 217 -169 221 -158 2 6 -1 13 -7 15 -7 2 -12 10 -12 17 0 7
-4 15 -8 17 -5 2 -52 53 -105 114 -145 169 -218 292 -258 436 -20 70 -24 120
-12 131 8 9 23 -12 23 -32z m310 -11 c6 0 14 -8 17 -17 4 -10 25 -43 47 -73
49 -66 63 -88 75 -117 6 -11 15 -24 20 -28 6 -3 11 -14 11 -25 0 -10 7 -21 16
-24 8 -3 12 -11 9 -16 -10 -16 -74 53 -128 137 -26 40 -47 76 -47 81 0 5 -7
15 -15 22 -8 7 -15 23 -15 36 0 12 -4 26 -10 29 -5 3 -10 14 -9 23 0 12 3 11
9 -5 5 -13 14 -23 20 -23z m-1658 1 c28 -24 33 -36 32 -71 -2 -60 -33 -90 -94
-90 -60 0 -95 33 -95 88 0 91 90 133 157 73z m-4430 -43 c-18 -84 -23 -160
-10 -152 13 8 5 -44 -18 -121 -8 -27 -22 -75 -31 -105 -8 -30 -21 -73 -28 -95
-6 -22 -19 -65 -28 -95 -8 -30 -22 -80 -31 -111 -20 -68 -21 -142 -3 -137 6 3
13 15 15 29 9 71 101 309 119 309 11 0 13 -40 8 -227 -6 -226 -22 -407 -50
-574 -8 -47 -15 -100 -15 -117 0 -34 -35 -188 -52 -230 -14 -34 -105 -220
-121 -247 -54 -90 -280 -397 -298 -403 -5 -2 -9 -10 -9 -17 0 -7 -7 -15 -15
-19 -8 -3 -15 -10 -15 -16 0 -12 -15 -32 -42 -58 -10 -9 -18 -20 -18 -24 0 -4
-13 -22 -30 -40 -16 -18 -30 -38 -30 -44 0 -7 -7 -14 -15 -18 -8 -3 -15 -12
-15 -21 0 -19 -19 -20 -26 -1 -8 20 80 197 152 306 56 85 88 126 181 235 30
35 132 171 150 200 24 38 102 200 118 245 17 49 44 152 69 270 18 83 23 444 7
454 -10 6 -21 -16 -21 -42 0 -20 -63 -220 -78 -248 -6 -10 -20 -40 -32 -66
-30 -66 -44 -62 -37 10 3 31 11 158 17 282 5 124 15 252 21 285 6 33 14 80 18
105 4 25 13 55 19 67 14 26 16 63 2 63 -5 0 -13 -12 -16 -27 -4 -16 -13 -37
-20 -48 -8 -11 -14 -29 -14 -40 0 -12 -7 -30 -15 -41 -8 -10 -15 -31 -15 -46
0 -40 -11 -63 -21 -46 -28 43 18 253 90 412 47 104 173 277 189 261 3 -3 0
-29 -6 -57z m6705 -115 c4 -10 19 -36 33 -58 38 -58 78 -160 104 -267 21 -87
22 -321 2 -375 -8 -21 -17 -51 -21 -68 -13 -56 -21 2 -23 160 -2 190 -45 413
-108 563 -8 18 -14 39 -14 47 0 21 19 19 27 -2z m-8781 -166 c-33 -190 -154
-350 -321 -426 -78 -36 -88 -39 -120 -45 -16 -3 -43 -8 -60 -11 -27 -6 -28 -5
-10 6 11 7 22 15 25 19 3 3 28 17 55 30 112 54 214 138 292 242 27 36 103 191
103 210 0 16 44 80 48 69 2 -5 -4 -47 -12 -94z m3790 27 c5 -27 -1 -38 -48
-93 -77 -87 -109 -156 -194 -408 -13 -40 -28 -81 -33 -90 -5 -10 -12 -25 -15
-33 -3 -8 -10 -22 -15 -30 -5 -8 -12 -24 -16 -34 -4 -13 -9 -16 -16 -9 -6 6
-6 19 1 37 11 30 40 163 40 185 0 19 -32 -24 -59 -80 -35 -71 -111 -146 -111
-110 0 6 4 13 10 16 15 9 80 150 80 174 0 27 -11 27 -60 -1 -51 -30 -60 -17
-21 27 30 34 36 48 31 70 -3 18 24 90 37 98 7 4 13 15 13 22 0 8 7 15 15 15 8
0 15 -7 15 -15 0 -8 9 -19 20 -25 17 -9 24 -7 40 12 l18 23 11 -28 c6 -16 11
-33 11 -40 0 -22 36 30 75 108 22 44 52 98 66 120 26 39 51 90 64 129 5 17 8
18 20 5 8 -8 17 -28 21 -45z m2373 -31 c6 -21 11 -44 11 -51 0 -18 27 -67 63
-113 15 -20 27 -45 27 -55 0 -31 73 -68 205 -104 172 -48 327 -2 473 140 45
44 64 57 68 46 6 -17 -17 -57 -59 -102 -26 -29 -27 -33 -12 -42 17 -9 17 -11
-1 -35 -25 -34 -93 -76 -157 -99 -67 -23 -250 -25 -325 -3 -50 15 -72 14 -72
-5 0 -5 9 -12 20 -15 11 -3 20 -15 20 -25 0 -13 5 -17 18 -13 12 3 36 -12 70
-44 29 -27 52 -52 52 -56 0 -18 -29 -3 -65 33 -45 44 -55 49 -48 20 3 -11 9
-20 14 -20 5 0 9 -6 9 -13 0 -7 27 -40 60 -73 32 -34 57 -64 54 -67 -21 -20
-153 95 -175 152 -7 17 -13 21 -20 14 -11 -11 31 -97 78 -159 12 -17 23 -34
23 -38 0 -11 -114 56 -135 80 -12 13 -24 24 -28 24 -12 0 -7 -44 8 -70 16 -28
20 -70 6 -70 -5 0 -23 20 -39 45 -34 52 -51 44 -27 -12 9 -21 23 -53 31 -71 8
-18 14 -41 14 -51 0 -10 7 -24 15 -31 17 -14 20 -50 5 -50 -6 0 -14 8 -17 18
-4 9 -20 36 -35 58 -15 23 -28 44 -28 48 0 3 -11 22 -25 42 -21 30 -25 33 -25
16 0 -48 25 -171 47 -237 37 -107 37 -105 19 -105 -9 0 -16 7 -16 15 0 8 -4
15 -8 15 -12 0 -106 195 -125 260 -27 90 -47 187 -47 227 -1 21 -7 56 -15 78
-8 22 -15 56 -15 76 0 20 -7 42 -15 49 -19 15 -21 84 -2 78 6 -3 13 -22 15
-44 2 -21 8 -42 14 -45 6 -4 14 -24 18 -45 16 -78 65 -199 92 -226 l20 -20 -6
30 c-9 38 2 82 18 76 7 -3 18 2 25 10 11 14 15 14 37 0 13 -9 26 -24 29 -35 4
-10 11 -19 16 -19 14 0 11 46 -6 87 -8 19 -15 45 -15 56 0 11 -22 41 -48 66
-26 25 -51 54 -55 64 -3 9 -12 17 -19 17 -18 0 -58 41 -58 61 0 31 27 44 64
31 18 -7 43 -12 56 -12 21 0 17 6 -32 53 -66 61 -88 101 -88 156 0 78 31 99
49 34z m167 -36 c47 -50 94 -67 185 -67 73 0 87 3 131 30 56 35 58 35 58 15 0
-26 -82 -100 -126 -113 -117 -35 -231 8 -292 109 -22 37 -28 70 -15 83 4 4 13
-1 20 -11 8 -10 25 -31 39 -46z m572 -1 c7 -60 -78 -174 -163 -218 -46 -24
-129 -48 -165 -48 l-25 1 28 24 c15 14 34 25 41 25 52 0 198 127 236 204 24
51 43 55 48 12z m-1388 -105 c0 -12 -20 -25 -27 -18 -7 7 6 27 18 27 5 0 9 -4
9 -9z m-3300 -231 c0 -10 7 -23 15 -30 8 -7 15 -18 15 -24 0 -7 33 -61 72
-121 94 -142 89 -135 142 -240 50 -101 87 -203 76 -210 -10 -6 -147 143 -206
223 -83 112 -137 246 -151 373 l-9 77 23 -15 c13 -9 23 -23 23 -33z m5820 -77
c152 -157 218 -248 292 -403 71 -150 108 -280 138 -487 21 -148 3 -491 -29
-551 -6 -12 -11 -33 -11 -49 0 -15 -4 -35 -10 -43 -18 -29 -23 20 -11 115 25
205 -1 509 -58 686 -36 113 -51 158 -66 194 -19 46 -129 270 -148 300 -47 76
-110 171 -159 238 -32 43 -58 85 -58 93 0 8 -4 14 -10 14 -5 0 -10 5 -10 11 0
18 51 -25 140 -118z m-7060 41 c0 -15 -74 -105 -137 -165 -75 -72 -149 -129
-263 -204 -224 -147 -382 -285 -485 -427 -52 -72 -74 -81 -48 -20 112 264 254
433 468 558 11 7 85 45 164 86 177 90 175 89 236 137 49 39 65 48 65 35z
m7016 -250 c60 -87 118 -195 181 -334 9 -19 20 -43 25 -53 13 -27 48 -166 48
-193 0 -36 -18 -38 -29 -2 -25 80 -44 128 -52 128 -5 0 -9 -94 -9 -209 0 -125
-4 -212 -10 -216 -5 -3 -11 4 -14 17 -2 13 -11 58 -20 101 -9 42 -23 112 -31
155 -65 319 -90 424 -120 502 -32 85 -79 196 -87 205 -4 5 -8 18 -8 30 0 16 8
12 42 -25 23 -25 61 -72 84 -106z m-7663 87 c-16 -21 -56 -74 -90 -118 -119
-154 -249 -405 -312 -604 -25 -78 -51 -185 -51 -210 0 -30 -29 -129 -42 -144
-24 -27 0 283 32 410 19 77 92 264 114 295 6 8 20 31 30 50 39 71 137 189 216
261 45 41 89 82 98 91 29 31 32 7 5 -31z m601 -123 c-42 -82 -223 -263 -384
-383 -58 -44 -129 -101 -157 -128 -94 -88 -76 -14 31 128 68 91 211 214 338
290 44 26 128 87 134 96 5 8 34 24 52 28 1 1 -5 -14 -14 -31z m6896 -26 c85
-104 147 -259 152 -377 3 -77 -12 -100 -26 -38 -22 101 -106 323 -143 378 -14
21 -18 55 -5 55 4 0 14 -8 22 -18z m-68 -179 c97 -168 128 -262 153 -456 7
-54 -4 -207 -15 -207 -12 0 -40 99 -40 140 0 22 -5 51 -12 67 -6 15 -18 48
-25 73 l-12 45 5 -70 c3 -38 9 -137 14 -220 5 -82 12 -179 15 -215 l6 -65 -25
48 c-14 27 -26 57 -26 67 0 28 -11 51 -21 44 -14 -9 -10 -233 6 -309 17 -80
19 -145 5 -145 -12 0 -42 69 -64 150 -9 36 -22 81 -27 100 -20 70 -39 248 -39
361 0 117 7 178 37 302 12 54 15 100 10 208 -6 162 2 174 55 82z m968 -41 c0
-9 7 -26 15 -36 8 -11 15 -31 15 -45 0 -14 7 -35 15 -45 17 -23 20 -52 5 -61
-5 -3 -12 7 -16 22 -4 15 -12 34 -18 42 -16 21 -38 82 -43 124 -3 20 -9 40
-14 43 -5 3 -9 15 -9 26 0 17 5 14 25 -16 14 -20 25 -45 25 -54z m-6352 -82
c109 -126 234 -321 263 -410 4 -14 17 -50 29 -80 40 -101 60 -224 60 -359 0
-129 -5 -171 -21 -171 -5 0 -9 10 -9 21 0 70 -40 282 -77 409 -36 123 -165
410 -184 410 -12 0 -11 -40 1 -118 6 -35 8 -67 4 -73 -11 -18 -32 11 -43 59
-18 84 -88 285 -127 369 -14 29 -22 58 -19 63 7 12 16 4 123 -120z m5242 40
c0 -35 -60 -149 -104 -199 -65 -72 -186 -146 -186 -113 0 4 25 32 56 62 58 57
158 182 195 244 26 44 39 46 39 6z m-6810 -59 c0 -10 -55 -49 -115 -81 -11 -6
-32 -18 -47 -28 -35 -23 -163 -102 -201 -125 -16 -10 -31 -16 -33 -14 -2 2 14
24 36 49 44 51 114 100 205 145 125 62 155 73 155 54z m90 -31 c0 -6 -44 -57
-99 -113 -173 -179 -260 -290 -357 -457 -96 -164 -150 -310 -182 -495 -22
-128 -24 -449 -3 -578 11 -65 11 -91 3 -99 -8 -8 -13 -6 -18 8 -3 10 -12 35
-19 54 -7 19 -21 69 -31 110 -26 104 -26 381 0 490 47 200 53 224 101 360 28
78 127 272 176 345 94 137 163 203 389 366 29 21 40 23 40 9z m1350 -197 c0
-259 -94 -460 -375 -803 -120 -146 -243 -315 -258 -353 -9 -23 -27 -22 -27 2
0 25 59 171 100 246 35 64 120 181 167 230 15 17 53 59 83 95 30 36 63 74 73
85 23 25 111 173 120 200 3 11 15 47 27 80 22 61 60 255 60 305 0 14 3 30 7
33 15 16 23 -24 23 -120z m-2549 -316 c0 -122 4 -244 10 -272 20 -108 21 -122
10 -129 -6 -4 -13 -1 -15 6 -1 7 -8 29 -15 48 -40 115 -52 187 -53 310 0 92 5
143 17 186 10 32 19 65 21 72 2 7 8 10 14 7 6 -4 10 -91 11 -228z m2379 154
c-41 -160 -122 -298 -288 -490 -256 -296 -390 -550 -455 -861 -32 -151 -47
-236 -47 -265 0 -17 -4 -36 -9 -44 -20 -32 -24 84 -7 219 19 152 21 220 6 220
-5 0 -12 -12 -15 -27 -4 -16 -13 -43 -21 -61 -8 -18 -14 -43 -14 -57 0 -31
-19 -80 -27 -71 -12 12 -3 146 16 224 22 94 66 226 86 264 8 14 15 31 15 38 0
6 7 18 15 26 8 9 15 24 15 35 0 10 5 19 10 19 6 0 15 10 20 23 14 31 31 57 55
81 11 12 33 40 49 64 16 23 33 42 37 42 5 0 9 7 9 15 0 8 7 15 15 15 8 0 15 3
15 8 0 4 47 57 105 117 59 61 145 155 193 210 75 86 108 132 190 260 7 11 18
34 24 50 18 44 23 6 8 -54z m5420 -61 c0 -59 -105 -192 -210 -264 -45 -31 -83
-56 -86 -56 -2 0 -33 -20 -70 -45 -66 -46 -84 -53 -84 -35 0 25 101 131 193
203 132 103 160 127 201 173 43 49 56 54 56 24z m-6190 -100 c0 -5 -4 -10 -10
-10 -5 0 -10 -6 -10 -14 0 -8 -3 -16 -7 -18 -25 -10 -229 -275 -304 -393 -59
-92 -139 -259 -139 -290 0 -8 -6 -29 -14 -47 -29 -69 -64 -210 -91 -371 -10
-53 -21 -99 -25 -102 -16 -10 -23 130 -11 230 20 167 33 235 68 351 14 48 12
74 -6 74 -4 0 -12 -12 -18 -27 -10 -25 -11 -26 -12 -6 -1 12 4 25 9 28 6 3 10
15 10 25 0 74 243 345 447 498 35 26 63 50 63 55 0 4 7 7 15 7 8 0 15 5 15 10
0 6 5 10 10 10 6 0 10 -4 10 -10z m240 -43 c0 -9 -34 -67 -80 -137 -54 -83
-203 -326 -214 -350 -4 -8 -15 -31 -26 -50 -16 -30 -19 -32 -26 -17 -14 37 56
222 119 317 27 40 103 130 180 213 22 23 47 36 47 24z m2898 -17 c490 -51 588
-70 708 -136 149 -82 252 -203 315 -368 27 -71 26 -192 -1 -238 -21 -37 -62
-71 -98 -82 -35 -12 -27 18 12 45 71 49 94 139 60 231 -36 98 -50 126 -91 180
-39 51 -121 122 -180 155 -65 37 -203 67 -203 44 0 -4 41 -49 92 -99 82 -80
90 -92 78 -107 -8 -10 -22 -14 -34 -11 -11 3 -26 0 -33 -6 -9 -7 -21 -8 -36
-2 -23 10 -109 10 -125 0 -9 -5 -53 6 -137 35 -64 21 -206 40 -360 46 -88 3
-165 10 -171 15 -6 4 -27 7 -45 6 -20 -2 -33 1 -32 8 1 7 -17 9 -53 6 -62 -5
-68 4 -29 46 14 15 23 32 21 38 -4 10 74 56 118 69 15 4 17 8 7 18 -8 8 -44
12 -104 11 -116 0 -166 -22 -252 -108 -114 -113 -157 -210 -134 -303 20 -86
-4 -86 -36 -1 -16 45 -16 49 1 105 24 80 74 156 153 233 98 97 190 140 351
165 110 17 123 17 238 5z m-4389 -238 c-1 -70 -4 -170 -8 -222 l-6 -95 -20 30
c-28 40 -34 228 -11 309 9 30 16 65 16 78 0 14 3 28 6 31 18 18 24 -16 23
-131z m9069 50 c48 -48 130 -122 182 -164 107 -85 169 -149 223 -224 42 -61
97 -167 97 -188 0 -9 6 -30 14 -48 27 -66 46 -167 52 -289 6 -128 -7 -321 -24
-342 -5 -7 -14 -25 -19 -42 -8 -23 -11 3 -16 121 -6 141 -23 242 -57 344 -31
92 -91 221 -140 300 -5 8 -18 32 -29 53 -12 20 -88 127 -171 237 -82 110 -150
202 -150 204 0 3 -13 28 -30 56 -29 49 -36 70 -25 70 3 0 45 -40 93 -88z
m-6818 54 c0 -24 -17 -72 -51 -141 -49 -98 -91 -150 -257 -320 -170 -173 -187
-193 -249 -295 -24 -41 -49 -82 -54 -90 -5 -8 -14 -26 -19 -39 -7 -15 -14 -21
-20 -15 -14 14 33 156 89 264 45 88 88 139 271 320 140 139 239 259 263 323 9
25 27 21 27 -7z m5010 -127 c0 -6 -51 -65 -114 -130 -151 -156 -250 -308 -321
-489 -9 -25 -21 -55 -26 -68 -5 -13 -14 -43 -19 -67 -6 -25 -19 -59 -30 -77
l-20 -33 0 37 c0 97 47 319 71 334 5 3 9 12 9 19 0 41 155 264 234 338 43 40
152 117 165 117 5 0 14 7 21 15 15 18 30 20 30 4z m-23 -120 c-7 -13 -44 -71
-83 -129 -78 -118 -164 -257 -164 -268 -1 -4 -12 -20 -25 -37 -77 -94 40 183
124 295 62 81 125 150 138 150 7 0 13 5 13 12 0 6 2 9 5 6 3 -3 0 -16 -8 -29z
m307 -149 c17 -76 35 -149 56 -230 6 -25 15 -61 20 -80 26 -110 90 -256 262
-595 22 -44 46 -93 53 -110 7 -16 20 -47 29 -68 9 -21 16 -52 16 -69 0 -26 -2
-29 -15 -18 -8 7 -15 23 -15 36 0 12 -4 25 -9 28 -5 4 -19 27 -31 54 -31 67
-86 177 -125 247 -204 370 -285 598 -285 797 0 151 12 153 44 8z m1289 51 c29
-27 88 -78 132 -112 167 -131 245 -235 288 -389 18 -63 40 -210 32 -218 -3 -3
-5 1 -5 10 0 8 -9 23 -20 33 -11 10 -20 23 -20 28 0 23 -163 254 -252 356 -71
82 -218 306 -218 333 0 15 12 8 63 -41z m-4997 -58 c3 -10 11 -28 17 -40 14
-31 2 -40 -23 -18 -22 20 -34 50 -25 65 10 16 25 12 31 -7z m-1725 -116 c-6
-6 -11 -29 -11 -51 0 -22 -7 -47 -16 -57 -15 -16 -14 -19 12 -32 l27 -14 -46
-7 c-64 -10 -74 0 -37 37 20 21 30 41 30 62 0 17 6 39 14 50 7 11 17 34 21 50
l9 30 4 -29 c2 -16 -1 -33 -7 -39z m5209 -2 c0 -38 20 -118 54 -229 24 -75 95
-214 150 -294 28 -40 55 -82 61 -92 5 -11 15 -20 22 -20 18 0 16 39 -2 46 -9
4 -15 19 -15 37 0 52 14 32 108 -158 72 -145 117 -244 146 -322 9 -24 23 -60
32 -82 9 -21 14 -47 12 -56 -5 -27 -26 -29 -30 -4 -3 25 -28 39 -28 16 0 -9 7
-22 15 -31 8 -8 15 -21 15 -30 0 -8 6 -30 14 -48 97 -232 123 -596 59 -843
-36 -139 -103 -305 -123 -305 -14 0 -13 14 5 69 24 75 43 188 55 319 20 222
-18 531 -86 690 -8 18 -14 40 -14 48 0 9 -6 28 -14 42 -8 15 -38 83 -66 152
-54 129 -101 230 -246 525 -111 228 -138 305 -154 440 -8 72 -6 147 6 185 9
25 24 -10 24 -55z m2452 -54 c63 -156 71 -208 72 -426 1 -205 -4 -244 -50
-405 -21 -73 -72 -204 -100 -260 -19 -37 -24 -42 -30 -27 -4 10 0 42 9 70 17
56 36 148 63 317 24 145 24 541 0 648 -19 87 -21 165 -4 160 6 -2 24 -37 40
-77z m-8881 36 c-27 -34 -80 -274 -81 -372 -1 -44 -5 -100 -9 -125 -7 -44 -8
-44 -15 -15 -4 17 -13 46 -19 65 -15 48 -12 183 6 255 28 117 97 239 121 215
6 -6 4 -15 -3 -23z m1098 -84 c-14 -59 -50 -136 -98 -208 -15 -22 -30 -47 -34
-55 -4 -8 -16 -28 -27 -45 -11 -16 -25 -41 -30 -55 -6 -13 -22 -46 -36 -73
-13 -27 -24 -54 -24 -60 0 -10 -29 -74 -77 -169 -7 -14 -13 -34 -13 -43 0 -9
-6 -29 -14 -43 -8 -15 -18 -38 -24 -52 -18 -46 -27 6 -10 59 9 25 23 71 32
101 9 30 30 96 46 147 17 50 30 97 30 103 0 22 100 217 147 286 54 80 134 176
142 169 2 -3 -2 -31 -10 -62z m797 -3 c51 -5 100 -13 110 -19 11 -5 37 -13 59
-17 37 -7 38 -8 11 -12 -16 -2 -57 1 -91 7 -35 6 -195 11 -373 11 -185 0 -313
4 -317 9 -7 12 26 17 180 29 124 9 263 7 421 -8z m2413 -39 c-32 -26 -45 -15
-17 14 14 14 27 20 32 15 6 -6 0 -17 -15 -29z m-939 -42 c0 -29 -32 -80 -67
-105 -56 -41 -91 -54 -153 -54 -68 0 -102 14 -168 67 -34 28 -40 38 -31 49 16
19 38 18 84 -7 58 -30 174 -30 232 -1 23 12 50 33 60 47 22 30 43 32 43 4z
m4671 -145 c106 -81 155 -150 233 -328 25 -56 5 -66 -30 -14 -47 71 -104 137
-205 243 -123 127 -199 217 -193 227 5 8 92 -49 195 -128z m-4161 37 c0 -28
61 -77 112 -91 30 -8 70 -10 111 -6 51 6 66 4 76 -8 29 -35 -43 -69 -141 -69
-49 0 -65 5 -107 33 -27 19 -56 46 -65 61 -16 27 -22 90 -10 102 10 10 24 -2
24 -22z m3544 -106 c73 -97 152 -190 267 -311 189 -201 289 -369 342 -579 32
-124 39 -173 44 -292 6 -123 -10 -255 -42 -363 -7 -25 -16 -57 -19 -72 -4 -16
-11 -28 -16 -28 -6 0 -10 58 -10 148 0 377 -137 752 -454 1242 -53 82 -139
220 -152 243 -40 72 -55 108 -48 118 5 8 10 6 17 -7 6 -11 37 -55 71 -99z
m-1118 88 c12 -39 49 -111 86 -166 21 -32 38 -61 38 -64 0 -3 14 -22 30 -43
17 -21 30 -40 30 -43 0 -3 13 -25 29 -49 58 -87 129 -223 166 -318 9 -25 23
-60 31 -78 8 -18 14 -42 14 -53 0 -11 7 -33 15 -49 8 -16 12 -36 8 -46 -5 -14
-9 -11 -22 14 -41 80 -77 142 -135 231 -90 138 -196 319 -196 334 0 15 -20 37
-33 37 -12 0 1 -88 20 -133 12 -27 13 -41 6 -48 -8 -8 -15 -3 -26 18 -64 118
-87 194 -94 314 -6 108 -1 159 18 159 5 0 12 -8 15 -17z m1567 -80 c147 -152
253 -295 308 -413 95 -206 130 -332 150 -552 11 -119 5 -243 -18 -362 -11 -62
-23 2 -23 129 0 260 -54 478 -182 730 -47 91 -89 168 -101 184 -6 7 -16 21
-22 31 -5 10 -37 61 -70 115 -86 139 -104 169 -105 178 -1 17 21 4 63 -40z
m-2413 -58 c30 -8 66 -15 78 -15 13 0 38 -6 55 -14 18 -8 44 -17 60 -20 15 -4
27 -11 27 -16 0 -15 -41 -12 -74 5 -15 8 -47 15 -70 15 -22 1 -59 7 -81 15
-22 8 -54 15 -71 15 -17 0 -53 3 -80 7 -42 6 -45 8 -24 14 43 12 123 9 180 -6z
m3671 -267 c0 -174 -4 -197 -54 -363 -11 -38 -24 -77 -28 -85 -4 -8 -25 -50
-46 -93 -54 -111 -63 -127 -72 -127 -5 0 -12 -10 -16 -22 -4 -16 -8 -19 -12
-10 -3 8 -1 24 5 35 23 47 102 303 102 332 0 10 6 41 14 69 19 67 42 185 61
321 9 61 18 121 22 135 l5 25 9 -24 c5 -13 10 -100 10 -193z m-1955 65 c20
-21 75 -90 123 -154 187 -247 271 -494 271 -792 0 -149 -6 -199 -21 -175 -5 7
-9 26 -9 43 0 44 -29 223 -45 280 -8 28 -16 59 -19 70 -8 37 -71 203 -101 270
-66 145 -224 446 -246 470 -5 5 -9 13 -9 17 0 18 23 6 56 -29z m297 -144 c186
-218 246 -343 292 -604 16 -97 18 -168 5 -200 -6 -16 -9 -13 -14 20 -8 50 -34
140 -52 183 -8 18 -14 37 -14 43 0 6 -21 54 -46 107 -55 118 -52 112 -164 317
-18 33 -46 85 -63 115 -16 30 -40 74 -53 98 -13 23 -24 45 -24 48 0 14 66 -49
133 -127z m-1176 -285 c54 -58 110 -174 133 -274 4 -19 12 -55 18 -80 6 -25
17 -76 26 -115 39 -186 49 -235 62 -292 8 -34 14 -71 14 -81 0 -11 7 -42 16
-70 18 -55 11 -110 -8 -62 -5 14 -16 39 -22 55 -12 27 -48 141 -93 290 -9 28
-21 66 -28 85 -7 19 -22 64 -34 100 -11 36 -30 90 -41 120 -12 30 -25 69 -30
85 -5 17 -20 62 -33 100 -14 39 -27 86 -30 105 -4 19 -9 45 -13 58 -11 36 15
26 63 -24z m813 -11 c0 -22 -2 -25 -10 -13 -13 20 -13 40 0 40 6 0 10 -12 10
-27z m-5927 -168 c-2 -62 -8 -126 -14 -142 -6 -15 -14 -46 -19 -68 -33 -156
-170 -402 -272 -490 -75 -64 -208 -118 -208 -85 0 6 10 15 23 20 45 18 135
100 191 174 115 153 206 389 271 700 5 22 9 26 18 17 8 -8 11 -48 10 -126z
m6172 -192 c4 -16 13 -53 21 -84 20 -80 18 -171 -7 -246 -12 -35 -24 -62 -26
-59 -2 2 -6 96 -9 210 -4 141 -2 206 5 206 6 0 13 -12 16 -27z m-1509 -30 c29
-29 29 -274 -1 -413 -71 -337 -87 -493 -65 -610 4 -25 11 -62 15 -82 8 -39
-10 -56 -21 -20 -3 9 -12 31 -19 47 -37 85 -47 150 -48 300 0 164 2 175 78
490 9 39 19 130 22 204 5 99 9 128 16 115 6 -11 16 -24 23 -31z m-4072 -286
c-9 -24 -23 -11 -17 14 3 12 9 17 15 11 5 -5 6 -16 2 -25z m1586 -94 c31 -15
38 -15 76 -1 29 10 48 12 65 5 13 -5 43 -9 66 -8 26 1 53 -6 75 -19 18 -11 50
-20 71 -20 38 0 107 -25 107 -39 0 -10 -52 -47 -78 -55 -25 -8 -20 -26 7 -26
10 0 44 14 75 31 68 36 100 35 104 -2 2 -18 -3 -29 -20 -37 -13 -6 -17 -11 -9
-11 7 -1 35 15 61 34 56 41 73 44 64 11 -4 -17 -1 -25 13 -30 15 -6 11 -11
-22 -27 -143 -72 -275 -88 -574 -70 -226 14 -352 36 -440 79 -63 31 -141 105
-141 133 0 27 5 25 56 -26 24 -25 51 -45 60 -45 17 0 14 8 -29 63 -33 43 -32
78 3 54 10 -7 29 -25 40 -39 31 -40 98 -90 110 -83 6 4 -5 21 -25 41 -34 33
-47 74 -22 74 6 0 35 -11 62 -25 65 -32 68 -31 45 10 -11 19 -17 35 -14 35 11
0 69 -33 76 -43 4 -8 14 -5 28 8 16 14 23 16 32 7 7 -7 17 -12 22 -12 6 0 5 5
-2 12 -36 36 2 49 58 21z m-3800 -232 c0 -4 -31 -39 -70 -77 -38 -38 -89 -95
-112 -126 -41 -57 -62 -70 -41 -25 6 12 14 29 17 37 19 48 86 126 145 167 48
34 61 39 61 24z m4773 -233 c-16 -24 -39 -68 -52 -98 -13 -30 -27 -59 -32 -64
-5 -6 -9 -18 -9 -28 0 -9 -6 -32 -14 -50 -20 -48 -43 -159 -57 -274 -11 -96
-9 -247 7 -406 9 -88 -6 -89 -45 -4 -64 137 -93 245 -93 356 -2 205 101 445
247 578 69 63 94 58 48 -10z m1081 -111 c0 -67 -2 -196 -4 -287 -4 -173 -1
-192 53 -320 15 -34 88 -146 130 -199 24 -30 151 -156 188 -186 25 -22 112
-83 141 -100 56 -33 108 -74 100 -79 -5 -3 -18 1 -28 9 -10 8 -26 15 -34 15
-31 1 -189 89 -267 148 -110 84 -210 206 -272 332 -12 25 -26 52 -30 60 -5 8
-14 26 -19 40 -11 25 -11 25 -11 -7 -1 -17 4 -35 9 -38 6 -3 10 -19 10 -36 0
-16 4 -37 9 -47 5 -9 21 -42 36 -72 77 -157 246 -324 460 -455 44 -27 96 -60
115 -75 19 -15 43 -30 53 -33 19 -7 24 -27 6 -27 -6 0 -23 6 -37 14 -15 8 -52
24 -82 36 -278 112 -421 200 -562 348 -66 70 -94 109 -131 184 -26 53 -47 105
-47 116 0 31 -18 72 -31 72 -18 0 -4 -193 20 -284 32 -121 94 -240 191 -366
23 -30 122 -134 219 -230 97 -97 198 -200 224 -230 110 -124 240 -353 287
-505 12 -38 28 -90 36 -114 16 -50 19 -121 5 -121 -11 0 -21 25 -21 52 0 11
-6 32 -13 46 -8 15 -21 44 -30 65 -74 170 -175 316 -313 452 -103 101 -124
120 -204 180 -177 133 -317 274 -396 395 -47 74 -50 78 -94 160 -19 34 -19 35
-20 8 0 -15 5 -30 10 -33 6 -3 10 -17 10 -29 0 -24 51 -128 76 -157 8 -8 14
-18 14 -21 0 -4 26 -44 57 -89 53 -77 274 -309 294 -309 5 0 9 -7 9 -15 0 -20
-13 -19 -53 3 -185 99 -402 311 -495 482 -8 14 -21 39 -30 55 -35 64 -76 191
-93 285 -25 139 -14 328 28 450 39 116 153 310 153 260 0 -16 -17 -73 -36
-118 -18 -42 -19 -105 -2 -100 7 3 15 18 19 34 3 16 10 38 16 49 6 11 21 45
33 75 11 30 25 64 29 75 26 65 60 178 70 235 3 19 11 35 16 35 20 0 27 -118
18 -288 -5 -94 -7 -184 -5 -200 6 -36 26 -30 30 9 1 16 10 47 18 69 9 22 23
58 31 80 9 22 21 54 28 70 38 89 75 209 75 246 0 44 12 71 24 59 7 -7 11 -56
10 -133z m-964 -141 c0 -16 -18 -31 -27 -22 -8 8 5 36 17 36 5 0 10 -6 10 -14z
m-1057 -304 c4 -149 2 -202 -6 -199 -6 2 -14 17 -18 33 -3 16 -11 39 -17 51
-7 13 -12 67 -12 132 0 93 3 117 21 151 12 23 23 40 24 38 1 -2 5 -94 8 -206z
m-4343 190 c0 -4 -9 -15 -21 -25 -73 -63 -294 -271 -405 -381 -168 -168 -219
-233 -410 -517 -166 -248 -228 -332 -237 -322 -7 6 32 80 105 198 27 44 55 89
61 100 7 11 14 22 17 25 15 15 50 71 50 80 0 5 5 10 10 10 6 0 10 8 10 17 0
19 -68 -50 -163 -164 -35 -42 -55 -59 -62 -52 -7 7 -4 15 8 23 9 7 17 18 17
24 0 6 6 17 13 24 6 7 21 29 31 48 11 19 38 60 60 90 74 100 87 134 28 74 -49
-50 -102 -119 -102 -132 0 -6 -3 -12 -7 -14 -14 -6 -53 -67 -53 -81 0 -8 -7
-20 -15 -27 -8 -7 -15 -18 -15 -26 0 -15 -41 -78 -120 -184 -50 -68 -180 -256
-205 -298 -30 -50 -48 -71 -56 -66 -8 5 -2 20 32 84 4 8 26 51 49 95 23 44 50
94 60 110 32 52 60 105 60 115 0 16 -20 11 -27 -6 -3 -9 -17 -28 -30 -42 -22
-23 -125 -170 -148 -210 -16 -28 -55 -67 -55 -54 0 6 5 14 10 17 6 3 10 14 10
23 0 16 52 125 92 192 11 19 31 55 45 80 40 74 130 210 222 335 67 90 273 291
386 376 145 109 401 275 628 407 12 7 40 24 62 37 41 25 65 31 65 17z m6557
-240 c7 -7 13 -19 13 -27 0 -18 65 -147 109 -215 74 -114 77 -134 12 -70 -70
69 -140 194 -152 270 -4 25 -10 56 -14 70 -6 23 -6 24 6 5 7 -11 19 -26 26
-33z m-6303 -521 c-5 -3 -14 -15 -21 -26 -7 -11 -41 -67 -76 -125 -71 -118
-151 -279 -200 -405 -72 -181 -107 -276 -107 -287 0 -8 -6 -22 -14 -33 -7 -11
-16 -33 -20 -50 -6 -25 -9 -27 -17 -13 -14 26 21 208 73 378 22 73 75 181 128
265 11 17 23 37 27 45 25 56 225 289 231 270 3 -7 1 -15 -4 -19z m640 -76 c-4
-8 -10 -15 -15 -15 -5 0 -9 -6 -9 -13 0 -7 -10 -23 -23 -37 -36 -40 -233 -324
-250 -360 -4 -8 -11 -22 -17 -30 -14 -22 -95 -162 -103 -180 -4 -8 -17 -31
-29 -50 -62 -102 -197 -390 -255 -545 -8 -22 -21 -55 -29 -73 -8 -18 -14 -39
-14 -47 0 -7 -7 -26 -15 -42 -8 -15 -17 -40 -20 -55 -3 -16 -10 -28 -15 -28
-14 0 -12 55 4 114 8 28 22 80 31 116 9 36 23 80 31 98 8 18 14 39 14 47 0 8
6 29 14 47 8 18 24 58 36 88 63 157 138 305 224 440 116 182 233 336 350 458
77 79 102 98 90 67z m-924 -34 c0 -6 -4 -12 -9 -16 -10 -6 -14 -12 -84 -150
-54 -109 -97 -201 -126 -275 -12 -30 -29 -68 -37 -83 -8 -16 -14 -37 -14 -47
0 -10 -4 -21 -9 -25 -5 -3 -13 -20 -17 -38 -3 -17 -13 -45 -20 -62 -7 -16 -15
-42 -19 -57 -3 -16 -10 -28 -15 -28 -15 0 -12 74 4 128 8 26 22 76 31 112 30
116 74 221 126 306 21 35 39 67 39 70 0 3 28 43 63 89 55 76 87 103 87 76z
m390 -101 c0 -6 -12 -29 -27 -53 -49 -75 -54 -85 -133 -232 -98 -185 -230
-456 -230 -474 0 -5 -6 -22 -14 -38 -13 -25 -52 -119 -92 -223 -7 -19 -21 -60
-30 -90 -16 -54 -30 -90 -53 -140 -10 -21 -11 -15 -6 35 18 186 82 454 159
670 24 67 98 206 145 275 47 67 253 280 271 280 5 0 10 -5 10 -10z m-630 -44
c0 -8 -7 -19 -15 -26 -8 -7 -15 -23 -15 -35 0 -12 -7 -28 -15 -35 -8 -7 -15
-18 -15 -26 0 -12 -8 -34 -45 -119 -7 -16 -16 -42 -19 -57 -10 -43 -29 -34
-23 10 6 47 41 148 68 192 5 8 14 27 20 43 6 15 15 27 19 27 4 0 11 11 14 25
7 26 26 26 26 1z m1190 19 c0 -5 -27 -52 -57 -100 -26 -40 -94 -151 -103 -165
-23 -37 -100 -172 -100 -175 0 -2 -19 -36 -43 -77 -24 -40 -46 -80 -50 -88 -4
-8 -30 -55 -57 -105 -67 -123 -150 -294 -193 -395 -45 -107 -121 -366 -137
-468 -5 -30 -11 -56 -14 -59 -13 -14 -18 57 -6 111 6 34 16 84 20 111 21 137
59 284 101 395 17 47 37 101 45 120 23 65 164 334 212 407 120 184 249 356
335 448 15 17 27 33 27 37 0 5 5 8 10 8 6 0 10 -2 10 -5z m70 -321 c0 -3 -30
-44 -67 -91 -161 -202 -251 -329 -358 -505 -39 -64 -115 -213 -115 -226 0 -5
-7 -15 -15 -22 -13 -11 -15 -7 -15 29 0 98 101 317 218 472 44 57 136 159 206
227 115 110 146 135 146 116z m47 -289 c-10 -7 -17 -17 -17 -23 0 -6 -4 -12
-8 -14 -12 -5 -119 -140 -181 -227 -96 -136 -207 -331 -245 -428 -49 -129 -76
-218 -76 -251 0 -11 -3 -28 -6 -37 -26 -68 -33 162 -8 282 43 214 99 319 240
452 227 214 295 272 307 264 6 -3 3 -11 -6 -18z m1543 -77 c6 -13 19 -36 30
-53 11 -16 24 -39 30 -50 6 -11 19 -33 30 -50 11 -16 24 -39 30 -50 6 -11 19
-33 30 -50 11 -16 23 -37 27 -45 14 -27 76 -123 171 -264 51 -76 90 -141 87
-145 -11 -10 -161 154 -234 258 -83 117 -201 344 -201 386 0 7 -7 25 -14 41
-13 25 -13 44 0 44 2 0 9 -10 14 -22z m-108 -178 c4 -3 12 -17 17 -30 12 -28
13 -28 152 -260 165 -274 252 -408 331 -512 62 -82 65 -88 45 -88 -31 0 -242
230 -321 349 -60 91 -127 219 -171 326 -20 50 -43 105 -51 123 -8 18 -14 46
-14 62 0 16 -4 32 -10 35 -5 3 -10 16 -9 28 0 21 1 21 12 -3 6 -14 15 -27 19
-30z m-523 -49 c1 -58 38 -226 73 -326 5 -16 13 -43 18 -60 19 -71 100 -241
178 -370 59 -98 65 -107 81 -124 9 -10 10 -16 3 -19 -16 -5 -95 82 -153 168
-139 208 -229 484 -229 702 0 52 3 98 7 102 11 11 22 -24 22 -73z m205 -7 c3
-9 6 -23 6 -32 0 -16 52 -181 84 -267 13 -36 41 -92 149 -300 27 -52 56 -121
57 -134 0 -10 -54 47 -88 92 -20 26 -40 47 -44 47 -13 0 -9 -35 7 -56 8 -10
15 -26 15 -35 0 -9 7 -22 15 -29 17 -14 20 -50 5 -50 -6 0 -15 11 -20 25 -5
14 -13 25 -17 25 -9 0 -12 6 -62 106 -19 38 -37 83 -42 99 -4 17 -12 44 -18
60 -14 41 -37 135 -55 228 -25 122 -19 291 8 221z m-1265 -111 c-17 -19 -25
-34 -92 -168 -68 -134 -119 -252 -158 -365 -31 -89 -34 -97 -44 -143 -3 -15
-10 -25 -15 -22 -30 19 15 297 68 430 32 79 85 155 164 237 63 65 82 79 85 65
3 -10 -1 -25 -8 -34z m1507 10 c7 -32 40 -138 53 -168 4 -11 16 -37 25 -58 9
-21 16 -43 16 -49 0 -13 182 -379 210 -423 11 -16 23 -37 27 -45 15 -35 167
-260 175 -260 4 0 8 -7 8 -15 0 -8 3 -15 8 -15 8 0 44 -61 39 -67 -5 -4 -105
93 -158 152 -41 47 -171 219 -216 286 -33 50 -123 231 -123 248 0 6 -6 25 -14
43 -35 82 -76 270 -76 346 0 55 16 70 26 25z m-835 -78 c34 -133 202 -459 301
-586 15 -20 28 -41 28 -45 0 -5 27 -40 60 -79 33 -38 60 -75 60 -82 0 -6 6
-13 13 -16 7 -2 8 -8 3 -13 -5 -5 -11 -4 -13 4 -3 6 -11 12 -19 12 -8 0 -14 3
-14 8 0 4 -30 32 -67 62 -36 30 -95 90 -130 133 -34 44 -63 74 -63 68 0 -11 4
-21 34 -78 9 -17 16 -38 16 -46 0 -8 7 -20 15 -27 8 -7 12 -16 9 -22 -12 -19
-94 92 -142 195 -18 37 -32 71 -32 77 0 5 -6 24 -14 42 -32 76 -72 242 -81
333 -3 39 -8 90 -11 115 l-6 45 23 -35 c12 -19 26 -48 30 -65z m-691 -185 c0
-10 -6 -34 -14 -52 -8 -18 -22 -60 -31 -93 -10 -33 -23 -78 -30 -100 -14 -45
-42 -171 -50 -227 -7 -47 -24 -50 -26 -5 -7 145 17 263 78 397 44 94 73 126
73 80z m509 -72 c27 -90 100 -243 179 -376 18 -29 32 -55 32 -57 0 -6 70 -122
118 -195 51 -78 153 -214 169 -223 7 -4 13 -15 13 -22 0 -8 5 -15 12 -15 6 0
9 -3 5 -6 -11 -12 -105 66 -197 163 -100 106 -232 267 -244 297 -5 14 -10 16
-18 8 -10 -10 -9 -18 10 -52 41 -74 88 -180 80 -180 -14 0 -79 68 -117 123
-36 53 -84 146 -106 207 -23 63 -55 216 -55 261 0 49 10 76 21 57 5 -7 9 -23
9 -34 0 -45 88 -214 111 -214 12 0 12 33 0 45 -16 19 -51 153 -51 199 0 53 15
60 29 14z m-278 -125 c-17 -189 16 -495 69 -648 30 -85 34 -105 21 -105 -6 0
-15 8 -18 18 -4 9 -19 35 -33 57 -77 119 -117 341 -98 545 6 69 17 137 25 152
7 15 13 38 13 52 0 13 3 32 6 41 6 15 8 15 16 2 5 -9 4 -58 -1 -114z m94 -33
c17 -104 75 -313 110 -395 7 -16 20 -47 29 -68 35 -81 13 -90 -36 -14 -56 88
-58 91 -69 117 -55 122 -79 241 -78 380 l1 95 19 -40 c10 -22 21 -56 24 -75z"/>
<path d="M7227 11078 c-4 -12 -7 -39 -7 -59 0 -20 -7 -56 -15 -79 -8 -23 -15
-59 -15 -79 0 -20 -5 -52 -11 -71 -10 -34 -23 -142 -34 -280 -4 -57 -3 -60 5
-26 6 22 16 46 22 54 7 8 15 42 19 76 9 77 26 188 44 292 17 91 19 162 6 182
-6 10 -10 8 -14 -10z"/>
<path d="M5666 7752 c-3 -6 -1 -14 5 -17 15 -10 25 3 12 16 -7 7 -13 7 -17 1z"/>
<path d="M5363 7494 c-18 -14 -33 -30 -33 -35 0 -6 -11 -25 -24 -42 -28 -38
-45 -149 -27 -171 9 -11 8 -22 -5 -49 -20 -42 -8 -67 33 -67 33 0 83 36 83 60
0 11 14 29 30 42 23 17 30 29 30 57 0 19 8 43 17 53 15 16 15 21 3 28 -12 7
-12 12 3 28 21 23 22 46 3 62 -8 6 -16 21 -18 33 -5 33 -55 34 -95 1z"/>
<path d="M7927 7334 c-7 -8 11 -46 27 -56 16 -11 30 -10 51 6 19 14 19 15 1
35 -18 20 -65 29 -79 15z"/>
<path d="M7953 7253 c-16 -6 -17 -35 -1 -51 7 -7 27 -12 45 -12 29 0 33 3 33
25 0 32 -42 53 -77 38z"/>
<path d="M5149 7062 c-36 -32 -32 -52 10 -52 34 0 54 21 49 51 -5 33 -23 34
-59 1z"/>
<path d="M7988 6958 c7 -7 12 -20 12 -30 0 -10 7 -18 15 -18 21 0 19 30 -2 46
-22 17 -41 18 -25 2z"/>
<path d="M7940 6905 c20 -35 30 -86 11 -57 -5 8 -17 12 -27 10 -25 -5 -21 -45
8 -76 19 -19 20 -26 10 -42 -6 -11 -9 -26 -6 -35 7 -17 55 -45 78 -45 20 0 31
37 16 55 -9 11 -8 19 4 37 9 12 16 32 16 44 0 38 -82 144 -112 144 -17 0 -17
-2 2 -35z"/>
<path d="M7337 6682 c-14 -15 -14 -19 2 -38 28 -35 103 -84 127 -84 32 0 39
17 12 31 -13 7 -36 27 -51 45 -16 18 -39 39 -52 48 -21 14 -24 13 -38 -2z"/>
<path d="M7250 6658 c0 -22 64 -86 146 -148 76 -58 104 -71 104 -50 0 6 -9 10
-20 10 -23 0 -24 4 -10 30 8 15 5 19 -25 24 -25 5 -56 27 -108 76 -73 71 -87
80 -87 58z"/>
<path d="M4735 6456 c-16 -8 -43 -17 -58 -20 -15 -4 -25 -11 -22 -16 9 -15 53
-12 83 4 15 8 35 17 45 20 9 3 17 10 17 16 0 14 -29 12 -65 -4z"/>
<path d="M7853 6203 c-11 -29 68 -79 90 -57 11 11 -12 43 -43 59 -36 19 -39
19 -47 -2z"/>
<path d="M5223 6104 c-58 -28 -78 -47 -69 -69 10 -26 74 -18 128 16 49 32 57
46 36 67 -17 17 -36 14 -95 -14z"/>
<path d="M6746 6060 c-4 -19 -3 -46 2 -60 10 -25 10 -24 16 10 4 19 3 46 -2
60 -10 25 -10 24 -16 -10z"/>
<path d="M6204 6056 c-7 -31 4 -55 17 -35 12 19 11 59 -1 59 -5 0 -12 -11 -16
-24z"/>
<path d="M6270 6033 c0 -22 2 -25 10 -13 13 20 13 40 0 40 -5 0 -10 -12 -10
-27z"/>
<path d="M7350 5971 c0 -10 11 -30 25 -45 18 -20 34 -26 64 -26 22 0 42 4 45
9 3 5 -12 25 -34 45 -46 41 -100 51 -100 17z"/>
<path d="M5097 5821 c-39 -19 -71 -53 -60 -65 3 -3 22 -6 41 -6 25 0 47 10 78
36 24 19 44 40 44 45 0 15 -62 9 -103 -10z"/>
<path d="M5400 5787 c-41 -18 -100 -68 -100 -83 0 -10 14 -14 50 -14 43 0 55
5 88 34 31 29 35 38 26 53 -14 22 -32 25 -64 10z"/>
<path d="M7257 5663 c-25 -25 21 -115 81 -157 57 -40 72 -26 46 40 -31 76
-102 142 -127 117z"/>
<path d="M7525 5649 c-19 -29 100 -145 141 -137 34 6 25 29 -34 88 -57 57 -93
73 -107 49z"/>
<path d="M7795 5650 c-10 -17 3 -44 40 -80 37 -36 63 -32 50 9 -8 27 -81 85
-90 71z"/>
<path d="M8247 8807 c-3 -7 -2 -19 3 -26 5 -10 8 -9 13 2 3 7 2 19 -3 26 -5
10 -8 9 -13 -2z"/>
<path d="M940 6251 c0 -5 21 -27 47 -48 l46 -38 96 1 c53 0 109 4 124 7 54 14
14 27 -84 27 -91 0 -106 3 -161 30 -67 33 -68 34 -68 21z"/>
<path d="M7484 3484 c-19 -159 39 -450 127 -627 76 -153 209 -314 369 -448
152 -125 218 -200 299 -334 67 -109 99 -190 157 -385 9 -30 23 -73 31 -95 8
-22 21 -57 29 -77 8 -21 20 -55 28 -75 8 -21 19 -57 25 -80 11 -40 26 -61 37
-50 17 17 64 306 64 397 0 96 -25 249 -61 366 -5 17 -9 39 -8 50 0 16 2 15 12
-6 6 -14 17 -29 23 -35 11 -11 63 -132 87 -205 55 -167 74 -326 57 -473 -15
-131 -55 -310 -81 -359 -5 -10 -9 -26 -9 -35 1 -13 10 -7 36 22 20 22 40 49
45 60 5 11 19 36 30 55 76 127 111 234 134 410 12 88 13 134 5 195 -18 147
-50 289 -70 309 -5 5 -10 16 -10 22 0 7 -16 40 -35 73 -80 136 -193 226 -440
348 -77 38 -171 89 -210 113 -74 47 -189 142 -240 200 -16 19 -37 41 -46 50
-8 9 -19 25 -23 36 -16 39 -17 -6 -1 -53 18 -52 88 -188 111 -214 8 -8 14 -19
14 -24 0 -4 7 -13 17 -20 10 -8 12 -14 5 -19 -14 -8 -134 113 -205 207 -140
185 -250 464 -273 689 -7 76 -21 82 -30 12z"/>
<path d="M6837 3124 c-14 -14 -7 -60 22 -151 27 -81 77 -202 101 -243 5 -8 19
-33 31 -55 11 -22 34 -59 50 -83 16 -24 29 -45 29 -48 0 -12 254 -332 290
-364 24 -22 139 -161 191 -232 125 -168 215 -327 289 -508 28 -67 70 -199 70
-220 0 -8 11 -42 25 -75 l25 -60 0 55 c0 69 -25 254 -41 300 -6 19 -18 50 -25
68 -8 18 -14 37 -14 43 0 19 -105 221 -153 296 -48 75 -32 84 39 21 70 -64
175 -168 213 -213 54 -64 150 -214 186 -290 62 -132 133 -366 136 -445 1 -25
4 -58 8 -75 l6 -30 19 45 c15 35 20 78 23 195 3 83 9 154 14 159 9 10 9 10 32
-79 9 -33 20 -79 26 -101 18 -67 42 -213 49 -292 4 -40 12 -72 17 -71 14 3 44
181 44 269 1 145 -55 348 -142 515 -82 158 -247 356 -406 487 -93 77 -104 85
-406 310 -230 172 -410 346 -542 524 -77 103 -156 243 -190 332 -4 13 -12 20
-16 16z"/>
<path d="M7560 2561 c0 -6 5 -11 10 -11 6 0 10 -7 10 -15 0 -9 7 -18 15 -21 8
-4 15 -10 15 -15 0 -22 227 -236 385 -364 60 -48 267 -253 317 -313 49 -59 57
-37 16 40 -73 140 -214 296 -365 404 -198 143 -236 170 -251 184 -17 15 -101
84 -134 109 -12 9 -18 10 -18 2z"/>
<path d="M6030 2293 c0 -23 331 -296 432 -358 117 -71 361 -259 463 -357 113
-107 192 -201 299 -353 107 -150 111 -157 120 -180 5 -15 9 -16 15 -6 5 7 1
37 -9 69 -65 207 -183 395 -358 570 -64 65 -128 127 -142 137 -14 11 -46 36
-70 55 -53 42 -146 105 -210 142 -94 54 -129 73 -280 150 -85 44 -162 86 -171
94 -8 8 -20 14 -26 14 -6 0 -16 7 -23 15 -13 15 -40 21 -40 8z"/>
<path d="M5876 2202 c-9 -8 119 -127 178 -166 101 -66 170 -109 201 -126 11
-6 34 -19 50 -29 92 -59 22 27 -80 97 -152 106 -205 142 -210 142 -3 0 -34 20
-69 44 -36 24 -67 41 -70 38z"/>
<path d="M7880 1691 c0 -5 7 -14 15 -21 8 -7 15 -17 15 -24 0 -6 21 -53 47
-106 25 -52 52 -108 59 -125 18 -45 46 -108 55 -127 17 -34 74 -200 83 -240
10 -42 26 -33 26 14 0 101 -129 428 -214 543 -12 17 -25 38 -29 48 -3 9 -11
17 -17 17 -5 0 -10 7 -10 15 0 8 -7 15 -15 15 -8 0 -15 -4 -15 -9z"/>
</g>
</svg>
